<mxfile host="app.diagrams.net" modified="2023-10-16T17:47:20.432Z" agent="Mozilla/5.0 (Windows NT 10.0; Win64; x64) AppleWebKit/537.36 (KHTML, like Gecko) Chrome/117.0.0.0 Safari/537.36" etag="b3_V5lzIRwWBnWLu3M3R" version="22.0.4" type="github">
  <diagram name="Page-1" id="5hSKuykzRuvDaxkrbAI8">
    <mxGraphModel dx="989" dy="550" grid="1" gridSize="10" guides="1" tooltips="1" connect="1" arrows="1" fold="1" page="1" pageScale="1" pageWidth="827" pageHeight="1169" math="0" shadow="0">
      <root>
        <mxCell id="0" />
        <mxCell id="1" parent="0" />
        <mxCell id="rCVp8V6lE3syv_3GfAg0-1" value="" style="shape=image;verticalLabelPosition=bottom;labelBackgroundColor=default;verticalAlign=top;aspect=fixed;imageAspect=0;image=data:image/png,iVBORw0KGgoAAAANSUhEUgAAAfwAAAEsCAYAAAAmbAE8AAAAAXNSR0IArs4c6QAAAARnQU1BAACxjwv8YQUAAAAJcEhZcwAADsMAAA7DAcdvqGQAAP+lSURBVHhe7N0FnB/XdTf8I2aWLLNlS7JlW2a2EzuOw8zUOFBIk/Zp+zxtn75leEqBQqhpkgabOE0cdJyYmZnZliVZkoUWM77zndWRr//ZXa1krcCa337uzsyFc+ncc86FmX+PTRWiQYMGDRo0aPCSRs/N1wYNGjRo0KDBSxiNwm/QoEGDBg32AjQKv0GDBg0aNNgL0Cj8Bg0aNGjQYC9Ao/AbNGjQoEGDvQCNwm/QoEGDBg32AjQKv0GDBg0aNNgL0Cj8Bg0aNGjQYC9Ao/AbNGjQoEGDvQC9/rbC5vvtw6ZNsbFyPthXf7KvR4/oUQdsB5JOR/Q2rY9VS+bE0088ETPX9I9RQwZEr+3ObDdDVbeVi2bH4w8/EYs39ImhwwZFr81BOxsb162I+TMejwenLo2+g4fFoH6d24WbNqyNZfNnxGOPPBWr+gyOoQP7Rc+d1C+b1i6PudMfj0ceezb6jhodA/v02n7+q7Bh1aKYet+d8eTinjFy9LDosxPqsWHNkpj51GPx1Nyl0XvIiBi01Uw3xZolc+OpRx6JuWt7x6Ahg6Nvp120KdatWBQznnwg7p8WMWas+NtWsXXL5sdTD94fs9f0jeHDB0fvHdIuG2P5ghnx0INPx5o+Q2LIoL47jW8adIBWGfwrrorzKzJ+Xcx56JFYMXRMDOrVXpq2j7n2qNI12LV4UQp//eql8cyjd8UN110XN99+fzw1Z3n0HToqhm3rwN20IdasXBLPPH5/3P/gozFl6tSY8uSTMXXmgljXZ1AMqRRI70qgrV0+Lx648rvxmU9/MW5ce1S85sSDo397kmfTxtiwcUNs7NFzDxEgm2LtygXxwBUXxN//9RfikQET4syTxsfAXTBANm1YEwufvjP+53N/H//wo+lxxOlnxeFj+m0ObQ8bY/XSZ+O2n341/v4fvx0LDzslTpu4b/TZGWtHm9bF4lkPxU8/83/j775xX4x79Wti4qj+L2rZas2c++Lb//AX8f2po+Ksc4+NEd1tdVV1mP/IDfGtz/5tfPXa+THulLNjYqeZUt7z48HLvhH/8Hf/FvfG+Djx+CNiRJ/Nwe1gU2XAPfvINfH5v/o/8c9XDY63vPWEGN1/2yq2ZPqt8fVP/UvcsfaQOPGE8TF4R/TvpjUx7e6fxr997iexav9j4uhDR22zIfKrqBTMxmr8VzqGgtkjhv/ugg2rYuHc6XHfTVfFVdffFg8//WzMfnZGTJ86LaZNnRKP3Hd73P/YczH8oANiSL/nDetNK+6Nr/7rLyMmHBhLH7sjrr3q6rjtwadi5oyZMe3Jh+OBBx+PWYvXRr8h1eShf5/GqNuF2O5hu6lijhkPXR8//t734sc/uyh+9N2vxKf+9q/jH7/8k3hk7upq2HUV62P5nIfjl9/8j/jvn98SU+YsjEWLF8eiRfNj6v3Xxne+/JX40U1PxZI1GyuaPaN374iVK1bGmo0d57B+6Zx46tEHY9qyzR67Paq69OwTJtLrVy+PdVXddtXsPqq8e1RtvGbNqli6Yl0lNbfCIgRrr6rsvXrEmlXLJd+JQrYqa78RMXTtgliyeu1mvxeHPsPHxSt/7XfjI286OUbthE6o1FP06DM4BvRaEYtXrK/4YOutp4379Vobq1YsjhXrqvRbSyL+sEGxbtHSWLWOEtz2Hho45vB47a/9RrzlzMNj6I5Q9lAx2pjxp8d7P/TeOPOIfaLvDjBwN61dFQtmPBFPznouVlbN2WAbUE2U1q1ZGdNv+358+h/+Ob55yb0xa/7iWLJkcSyuZPJzc6fGTZdfGU8uXBUbNidh8C+88+qYf8jZceTQ9TH/8Zvjm//y1/HJ71wTU2cviEUL58fjd1wcX/rUP8SXvn9NTFu4LbqhwY7Gdg/djdWMdOaseTH8mDfGJ/7vX8X/+9s/jndM7hnXfutr8bNbpsTqzfG2hrULn4iLv/ov8ekfPhZjTn5dvOM97433vPvd8b4PfCDe/67XxYQ1d8a//90/xYW3zohNg0bFoUceEQeMHlIpxPaFw6Z1y2LqnVfFD392dUztaiF2OXpG3wEj4+CDDoqxwwfUnbKrBkWPPv1j1KETY+KEg2JINU3fajkqg6D/kH3i0HEHx+gh/bafobYHPfrG8H0nVDPD0dHfEtAOQO8h+8VJb3hPvOXlk3acYusEPao6jBo3McYfMrpSeJs9O0WP6Dd4n5h8wjExbuzA6FF10Nb6qEffwbHP+IlxyJgh270U33/EwXHG698W5xw3LgbusHbpHSMOmByvfdNr4thxI1/8qtCmDbF0zpNxw6W/jFsfnxkrn9dKDbqC3oNi7MFHxRmnTYr9x46JiSeeG2962zvjXe96V7zr3e+J8z/2B/Hx95wR+wzo/bz03bAgbrl+Xkw45/g4YP+JcfKpJ8bhB+0TBxz7ynj3e98fv/bh34qP/8Z74vAeD8X3v/m9uPnRZ2PHmOYNtgfbvaS/cW1lqfUfFUeefFocNe6AOOCQ8bFf7+fi5ktvjk1HvSJeffqh0X9z3A6xaVU8dsW34h//9UfR4w1/Gn/zoTNjTP9kpZ7Rb+jYGLfPirj0s5+LW5aMjpPOOTVGrXoqrrvmjlh+4JnxynEb44mHH41n5lVT+X4DY2C/TfHcE7fEBV/5Uvz0obUx4ZhJsU+/XpUyHRB9Nq2JJQvmxDPTLU9Ni3nLNsbAIUOqmdLGWL1sYcx8emrMW98nBmxYFE8+8nA8NfO52FAJysEDN29PrF8es56eEs/MejZmzJwTK6NfDBo0IHpvWhtL58+KqdNmxOI1PWPVgikxZebi6D2wmrX1KwZGDUv3S2LOjOkxfdr0mDZrfqyvZneDbYFUoatnPRJXXX1H9Dz67Djv5AkxoGXGs2HN8ljw7LR44unnYsDwfrFw+mPx6BPT4rlVPWLIkIGxYcnMeOSBh2JKNbtZbytk8GYFvGFNLJr9TEyvyj13zuyYv3hV9B4wMPr3fd5s2rhhZcyfOS2emTk3nlvwbDxwy41xx7PD4rw3vDKOGNO3orEulj03O555pir3tGdibtV+Q4YP27x3vCmWTb03rrjuodjnrNfFWYdb0t8UqxbNiunTZ8WcKs/Z85dW/DI4Bv1Km7Rh08aK/oJZ8fTU2bFq7dpYPPeZmDZ7UfQYOCQG9t1UCfIZFa1nqvxnxIIVG2PAoIHRt1LyaM276Tvxk0f6x7nvfkscMbJXLJ//bEyfMTsWzKvyf2ZebOg3NIYO7PN8vlVfPjt9ajwze27MfnZOLF3bKwZWfdmn0p6rly2IZ6ZMjfnL1seg4RTkpli3elnMnTUzZs2eHbNmzopFq6v4gwdF1XxVwZ0rmR/Tn5wSC3oMit6r5sWURx+LqXOWRs8BgyqebFvCXL9sdkx5ekbMmz+vynNexT/9K97qV59BseT+RDULumnW6DjntefFxOHtLC1sXB8rFs6t6z97/sJYMP2+uOa6e2PjxHPjlZWAtqS/bsXCeHaGNqr6EQ9UAnwL/25aHLf98Ptx65qT48PvPSlGtbOkv2nDipgzdWrMnDM3Zk6bGjOeWx9Dhw2uxkjEysVV3hWPL13Xs6r7wLrcG9csrXl59oJFVftMjSerNtDuC1esjg1VG8984pGYMntV9B86JPpWU4B5zzwVjz42NZb3HhzDB/evjJVq7FR9PvWZahz07B+DBlR9VNNdFDOqckyfObMqy8K2cdi/Ctu4KhbNqfi4qtuajT1jxdwpNb0Fq3vGsJFDYlPVxrdd/O34xo9viGVDD45Dxo6oxuig2hhcv3JRzKp4d/r06TFz7pLY1LdqGzS1TTvYsHxeTH26ijvzmaoMSyr5UvVlVT7svnHV/Jg65ZmYM7eSJ1U7zVvVMwY7R1E1ignHs9Oqdpg5O+bOnRcLFi6OZSvXR7+qvVfOeToeeeypmLuyVxV/QCX+Fsb0Jx6NR59eGH2GDKvKY2xsiJVLFsSsqh+nV23wzNxl0WvI8BhcDbSN69dU7fVsTJ06pxpL/WPdgqfj4Ycfj1nVjLvPoKqN1y+JaVWbP/rUjFiyvl8MH17xY0Vv1eJ5MQPfVOWd+ez8WNVjYCUb2mTOr6Ca5S+Zel38/PqpMWLyq+LcEw6p8m5rpDWLlsXgAw+KUZXc7Nurbeytn3V9fOemfvHmd54WY6p4q+c/HtdddW3MHn1WvOsVk2NYVe/evTfGM/deGlfdvz6Of+Ur4iTyoabYYGdjuxV+jz4DYujwkTHEIK09KmU346G4+e5Zcehr3h3nHTWmYratYPXTcfG3/iv+56ZV8fY//eN4/YRhtSAp0XfowJh7ydfiosdXx7hT3xDHD50V1155Y8zcNDyGPndf/PQH34sf/vyaeGrpgDjw4NEVA94bV112edw1p2fsf8DYGDF4WIweOSiWPvNg3HLr3fFkpfAfv+PK+Nmld8SSAQfEIfsNiPkPXBVf//x/xOUz10a/FbPi1it+ET/68S/isZUj4vBJh8WI3svj0RuuimvvmxKzZzwZt11zWVx//5wYetC4GLVpbtx5ybfjXz733XhwUe+Yf89P4nuXPBSDDz86Juw3vGiDjbFm2dx45I5b444Hn4jpUx6Iay6+KG55cnWMHX9Y7DO0X6yd9XBcdVWl8I9qR+FvXBMLZzwYv/jav8Y/f+PuGHHo0Hj6tqvi5z/+YVxy69ToPax/LHzy7rjm8kviop9fGvfPHxDjJx0eo/utjpkP3BAXXXZXzFm2OGY+fl/ceONtMX1Zn9j3wH1jCCGzaWU8ffuVcdm1d8a0eYtizpQH4+brb4jH1oyLN735vDh8VM8675tuuiMef3paPHbn1fHTX94WCwcdFkdWM7O+lXJfSuFf++AWhb9+3gNxyU8vi0dmL6kE/eNx+/XXxV0z1sR+hx4Wowe2KBtnOJY+E7de/K34wn/8KB5fsDSm3HFJ/OTqx2LwoRNjxNIn4/ob7qiMsFnx8B3XxOXX3RcrBu0bBx/QNrOfd+N34seVwn/lu98U+698Ii7+wUVx1/SFlYKcGtf/6Ntx09xhMem4CTG8TyWQ1yyMR2+6Mq64++lYWBlq995wWVx54+PRZ7/D4sDhG2PaHZfGf37qs3HDvMFx4suPiUEr58VDt10XN979RMxfMDeevu/6uPKGB2JZvzFx0P7VrHTd0njq1ovii//yH3Htkv7R+7kn48bLfho/uujaeLbP/nHk+ANi8MbZcdV/fzF+cu/CytZ4Nu648tK44fGVcdiRh8WoytirFf7tnSj8yhhaPOvRuP6qa+LeJ2fV5X749uvi2jumx6hTXhvnnXJEVc6Z8cBtN8edDz9dGTOPxHW/+HncNn1t7HPwuNjHykuPxXHrhf/TscKvDJd59/wifnLNE7Fo6ex44MZL4qc3L4qjTzqqMpqXx/1X/yi++p/fjSc3jY2jjx0fA9YujIdvuDh+dPkDsbzHuph+5y/ia//xX3HxzVMiho2I4f2WxbVf/sf4wsWzYvypJ8VBg9bEY1dfEJ/65NfiqVHHxssmHxA9qj6/qVLQX/jW9bFx3yNrXuqz4bm467JL49bHKmVb8eG1l10Rdz2zLg6aOC4Gr5we1/3kK1X8q2J2ZXQteqLi6x/+KC6+ZVaMOubkOHjT7Ljr2l/EVXdPibUDxsTYkSNjzP77xYhNC+Kem66vxt2TlUK8L66+7Mq4d9amOGTCIVX7/6rq2bC04psrro37n342nnni3rimKsMDc3vFIYcdHMP6rIqHLv1+XPrIolg5f0otK26Y0TMOP3JSjOqxIO6/5uK46s5KTsx7Np568La47OLL4q5pG+KIyQfG6scui8//6+fiihnD4tjjJ8Wg1VPjym9/Pv7+K7fG6BPOiGMOGhgrF0yLu2++Je5/YmpMe/SOuPhHF8fDy4bGxMMPit4rZsatF307PveVX8bSgQNi2ZS744qLfxY//vn1MWfjwOi5bFrcdvVl8fOf/jguvmNBHHT8yTF2/bS44eIfxdX3TY8lC5+JWy77eVzx6LqYMPnI2Ke9pRoKf8q1cdH102L0sa+Jc09Mhb8s7rr4ulh78BExdmiek1kfU664KO7b51Xx1hPG1sbx6nmPxTVXXhdzx5xdKfyjK4W/IZ6554r44Y+ujGX7nxPvffur44ixg9s3Nhp0O7a73Xv0ZLm1Wbw11j0XT0+fEwOPOi9ed+aEav7bBSydE9Or2c6KnqNiwr4D2mYiL0CP6NF3dEw4cGilEObG9KcXVGqzEtr1bPO52LT/qfH+X/9InHPourjhgv+IC659KoYcdWqccezBMWL/o+O8d709Xn78odF3yZS44cqrY8qmg+PVb35ffOz/nB+HLb4u/uvzX4sbn15U8fiymDX10bj/ocdjbq/x8bpf+2i85vANcfMll8Q905bEoocvjS9//8HY/7z3xPs+cH687w2TY/bV34gv//CmeHbJ+uhRCal7bro9npy1IvY97tx49TknxgFbBkUbNq1bGdPvvyGuvGNG7HviefGej/5efPScUXHXdz8dX/nZ3dUsYSsLs9VAdIBhZSUE73nkiXh24caY8PJ3xAfefEKseuDi+NZFt8TCAZPjPb/9v+LtJw+Oe37xk7j1obmxdMbd8f2vfTvuiGPibW9/e7zr3e+MU8curgyt/4wf3fBErFhbzc6fvCa+8dUfx6xBx8Wb3v3ueMfrz4mjDhha5VnlWxkda1fOjZt/8dN4eM0B8Yq3fiB++xPvjEMXXBX/7y8+Fzc/u7LYz2vDpvXz44Zv/GN8966ecdqb3xnvft97400nD43bvvGv8env31GJjlZsio0be8T6pc/FU3ffHA8/uzoOOu7lcd7ZJ8e+a6fGL354STze6+h4y/s+EOe/720xdt4N8Y1v/jDumb6kPpyVqEoa0+++Kn547dNx0Cnnxlve9ZF419FL4tILLojbnl1XKc61Mef+y+PL374x+p/0+njnO98Vbz/vuFj96NVx5e2PxqI6ysqY8/Bd8djspVWZVsWMeyt6P70x1h54Urzure+K83/9fTFuyfXxX5/7clz98NxYvbF39Fu/IJ5+/KG476EnYtXwqpzveXecNHxuXHnp9fHE3Kp95lwXn//0D2LVEa+t2v/t8crJg+PeSyuj5Jlq9rq19fiqbdYsmxW3XPLDuOKR1XHsuW+Kd77rXfH6M46IIbGuSl8Nmk1L4/FbK4Ptrnkx7mVvjPee//E4/xUj484ffjm+88t74rnVW1/b3liNgTu/959x+5pJ8cZ3vC8+/NEPxMvHj6rG5MYqbGOsW708Zj16fzyzcEVs7LEhFj19W3yzMgDu2TA53vS618Qb3vymOH7/oTFo5Lh4+dkvi5NPPD2OPaB/rFqwIJav3hh9h+wTR048KAZtWhaLl6+uxnGFDdXsc/n8eOKRp2PBsrVVTTfFc7d/J77401lxxGvfGx/88Pnx5uP7x43f/Xx8/eopsb6a1W9cPTfuu/OBmF7x/7gz3hDvffOJseqei+O/f/Zw9B5zaJx61qlxxKEHxTEvPy9e/cpTY9ywHvHMTRfGz26eEfuf9pY4/zc/GK85umdc/c0vxQU3PB4r6oKUWBWPXPLf8d37esRZb313nH/+B+MNVfyrvvGl+PGtT8SyhY/GBZ//fiya+Pp427uqdjr/rXHsgUOcKI6nrv9+fPZrt8XQ098WH/zA++Odrz8jBi96Oh6dMjs29R4U4045MQ4euiEWL1gcq9f3imH7ToxJB4+K9Yuei8Wr18em1UvikRt+GTc8uTGOP7cq68d/J95+yLPx3//8/+J7tz0bazdtirXPzana66GYUvHOoEmviw//5q/FUT0fiB9e8KO4e+GwOPNtH4rfePuxMfvSr8f3rpgS86bdHZdcemtsOOTEeOP73xWvrupy3Xe+E9c+tHRzfdvHpjXLY9qDt8bVV1wSl176y/jJtz4bX/rhXbGgPBixdnrc8niPOP3Mg174lkhlPC6d+XDcVBlf//0f/xZf/MalsXr82+N//8GH44xJY3fd+aQGO8jQ2rQunnvqwXhwTt84633viVP379qCTf26Bldp+o4PEvWo9Fzb0jOBAD17D4j9j39VvOUNr45zX/vu+N3/8ztx9kEr4+5bH4k5FR/3slFZKapeffpH394bYv7Mh+K2ux+NOfNmxEP33xN3PfRcDBxzQPStLOZZizfE2IP3i31HDolRE0+PN732tDjmyCPjlJcdGwNXL4oFC+bEPZdfGrcvqoTi07fHrbfdFU/P3RAjR/WP+TNmx/oBB8ZxJx0do/v3iwOqmfnbKmH5m7/xgTh9wtgXLFutXbE4Hr39tniwmjU8+9Tjce9d98bs9cNi/zERs6fNjIVLt3LCqNeAGH3wMXF8JSB69hsVx559Xpx27NFx8mmnxVHVzGDj6KPilWefGBPGHxknnn5qjNm4OOZVs4wnzdzvWx6TX35sZW33jyGj948TXn5WHLBpZlx7xR0xvzKk7vzF/8Q1zwyMo06sDJUhA2LoQYfEhMMPjRH9KuOqR59qpnx/XH3dAzH3udnx6L13xt2PL45h+1Uz14UPxsOVkfPC85OVlT/z6vjqN2+KfpPPjqOrdhoweEwc9fLXxTkHLI3LvndB3L5kc9REj94xcOShcfwxR8T+QwbHwZNPjde/5wPxGx96Rxy88qm46b6nY8mSefHIXXfEw0/PjX7Dh8TaxfOrWdTy2FBk7qjj6Ilnxgc/VCnc/fvHvCcfiCcWr431KxfGohXrY0M1u7/rymq2tuGIOO/wETFg4OA45PjXxCf+7x/FO8+aGMMGjYjxRx4VR+w/sCLWIzauWBj33XBDPPZcv5g4bmwMHzwgBo4+Nt7whtOj14yb47IbH4vFmwbHuPEHxqihA2LUES+PV597Shx7wrFx/ImHxcYlz8WiZWti45Aj4z1/+P/F208YEYufnR7PPLMgVixeHEtXU3JbwUbK9Z647oYHotdBk+LQg8bGwAGDY/xRk+Pwg4dFT4bg8pnx4F13xpMz58bsJ++P2++4J2asGxojB/WI52Y8E4tXbT2fqqdjw9rF1Szu6/HNi26tjMeJlRI/Ow4cMTB6DayU9bHHxLhRlRlfEapMs8rgnhFPTnkueg8eWs0AB1ST+oNi3AGjK8G/ITb0qiYDffpUY6939N5sxffo0TP69K2e86xF1b79Rh0YE448IvapZtm178ZFceP3fhD3rRsYy564PW654+FYsK7i+8Hr4snHn40+o8bF4UeMi5HDRsdRJ7wszjrx5Djp1LPi2NERM5+eHsurSUifauz3IE96942+fftGr42z4vrLro5HZj4Xs595NO6654lYsnFwjOy9NJ6qJijLKiPvBVj5ZFz6i6r+PSvj8Z5b47Z7Ho15G4fHqD7LY+qMebFy3YaKL6bFJV/5t/jRjU9GjwNOjtefd3KM2TAtLv/hL+KJ0a+NN5+8bwyo+mj4yP3joH1GtG391PKoKo9JUnVf//Xs3dZG9fJ4z1hT8fRd198SU+bOjymP3he33/1ErBt5UOw/YGE8/vjc6Dl8XEwaf2iMGjIyJpx6Trz8xMNj4tGnx9mnV5Oa/sNiwnGnxXFHHx3Hn1WNu6ErY+bUOdFn38ogqwzlV03eN1Y9OyWemr0kVlfKfMnSzg84bdq0oTL0l8aSRdXYWbgwFjy3JNZURvmmqqSJVU/eE88MmhQnj2l9M6bipTWrYvGcx+IXX/ynuODOjXHeb/5xfPC8o2N41w6qNOgmvGiFv6kSSMvmTo17H54Zw457Zbz5zEOi7+awraFHZfXvv8+oGLB+YTw9b1WL4tiMDSvi2fkrou/gfeKQQ0dXBRapMgIqoVKzTjV4Bu5zSBw2Yf/YuAwzF4pT1I3rYuWiOTG/mkH07Dcg+leKuU/v4XHae34//vpv/iDOm+R0cDXDrARSX/vLNfme0bMSYsbppjWL45np82NDz74xoFKY/QcMjJGHHB/v/f2/iT/98Kti/+G9K6VTDdde/WLg4MEd7E1tivXrlsfcuQtjzfrelTAYEP0q4Tfs8FfEb//VZ+KP31cp4CFd6YqNVZmqIdezTyVImT/VfSVAe1eCpHef3nVbVDWplbQ99PVrlsXMp6bE3LURfQdsHmi1cj0w9hs+MJbPn10N/Gfi8UcfifmVUBsyaPOpi0pw9ujVu00w9ewZ65dMj1lL1kfP/gOqsldGVL/Rccp7/0987vN/Hq86bPALLfbKgFsx9Z64d06Pqr0GbBEPvQbtG5MOHRkb5k2JKfM2e7Zg04aNdbsPGmg/nc/qeG7evFhY5T1w4KAY0K9/DByxf7zsvb8ff/WHH40zJ47colBgU/SOkYdVAm9cn3jojtvisTnOKrT16Qatta7qy2fmxZoNFf/UJauUzogD4qRXvi7OOPLAGKBNKwXa9jpXz3pWO33as7FszaZKMD9/3mHEoYfGmKEbY96sSgGYmcmgR6+qXSrOxz+VIO/VtxKCFUN7Razn0EnxujccG0vvuSrueHxexUu9oledVxu9zrBp4/pY9MzTMe3ZxdF76MDou5nBqu6pXNs+6oYVy2LhvAWxtuKLgVX/9O/XJ0aMf0V84s/+Kj7xrjNi33aWrVvRo+fQOP38P4rXHzAzLvzs38Wf//W/xeWPzqn3ymtU7dKz4oW2Nqja+YCj4rRjRsec+2+Ku2cvjueemxsreo+OY045JQ4ebskWd7Yh2+1Xqlsp/R5c1d51rPUL4vEnKyOi38Cqr/HaoNj/2FfH//qLv4s/ePPkasxrs14Ve1btV/UHisZC1cWVXdRi1OTDynkxY/aCWNmjMtYG9q/GXWVQnvD6+D//72/j46+fHENb9h03LZkd0+evrPjQWK/kxYAhtVH4B3/7V/Gh846K4aMnxwf/9HfjqIVXxef//i/jrz/9rbjz6UWxellldD02PwaP3T+GbqYFWi/r/3yHt14rVG2wtjK4np1dzVh69qvHTv+qs8ee/mvxt//yL/Gb5x4aA6r6a1erq/injW7VL2RaNf57VIZDG83e0d95gmo8DdpnXBw1af9Y+PgD8fCURbGpkmO9lKNdYfs8elYGxOGnvy7e8b4Pxgd+7fz42B/9bfzVJ14ThwzrW/UZvl4eDz8wP0YdaWLQ0oiV/Bk54ZR40/t/O/7sz38rJq1/MC7/xdXx5KIuGLgNuhUvTuFXVuDKhTPjsUeejNUjjoiXn3l8jOnXKzasXxfr13fhiOzAg+OUU0+OCUMXxg3XPRRL1rayw6ZYM+ueuPHJtXHoyefFmceMaGM2QVtGURXLLKdi5BGjhsdAe5P1wCJIhLKs+8Smqkw9BoyJSSecEmecfka87Nzz4qwTJlWzi+fNE3L7+TFZJa7ue1TM27+SKKsWLYsBhx0fZ5x5Zpz5srPjFeecFcccts/m7wBwEheFakGPSiH0qYpmWXLkwZVVfOrpccbLzo3zzj0rjjrYPnjHaUtk8bKgLpvv6v81Ks+6VJVgGDCwX/RYtShmTV+xOQZlVimn/gNj2MhqlktI9NgYyxfNjcVLlrUttdaxKmwm2aN3//pw4qa+o6r2OzlOr9rv7Fe9Jl5xyuExemClTKrIW+JXN72r2c2g3qti/sxnYvlmgnLt27cSZEP3jbGlRCywhcaWTqhmhf37xoZVK2LdwH3jyBOrNjvzrDj7nFfE6ceOj5F5EK+OXuWwYWU8dctP4r8uvDaW9N8vJp98Rpxx1H618SD/Wjn06xlLp98f98xbIVGFjbF2xXMxa/b8eum5plejEq6V4u5fxV+1bGHMW7461md7VMK1X/8hMWrEkEoBP28IYKAseRsvVHlWl5VPXhqf+evPx0Prqzocd2KccHQlJAdU6Z7PrHNU/L1+daXUFyyrDNq2Bk1xL78e1SyxT9WHq9b1jn0Omxynn3FGnFnN8s495/Q44sCKt1oPxnSAAQedG7//t38Xf/jh82LwvFvj61/8fFz04Jwt2w5b2LtSukP2PzJe++ZXxeH9Zsd9d90dD0+dH/ud8ZZ479vOiQOH9Vfz2mDUvpluU20AVa6jivfoG4MG9YoVi5bHyCNOaBtrL6/GyNmnxcSKaXKIZN3bsPlpS1gbtmRRGeID+m6M1at7xJhDj46TK9496+xXxLkvPyUm7FPR3BxtC3pX8XuvrYzMXjHumEpWVGV42dnnxNlnnRSHjqmM28roGXvmr8ff/uP/i4+/+ehYdt/F8ZUvfjNunbIg1q1dG0vmTov5xapBsnJ9qWSAdtlSyAo+WraRkVnd96wN+aqvK+PkoCNPiNOqsp7x8lfFa84+MQ4ZuXkCUqd6IbYMl0T1XM/FqzH77MM3xfe+9ZN4fPngmHj8yXHS0eNicG3+bgXKVRkM+qsNg2PSmSfF2H6bYsn8hbHiuSnx6OL+MWnc6EquZWODGrbVKWJIHPu2342Pvf2ImHLpN+N7l94TC1Y1r07sSrwIhV/N5OY9Hbdff03cP2t1jBgzIqopYzzz5P1x172PxKxFa2LN8ufisbsdUpsSi8uZd6LH4DjqlW+LD77txJh/xXfjZ7c+FUu2DJaNFf3H4/ILL4on93ttfPjX3xPHeTG64r+NlfJetWx5JYCrh03rY+EzT8WcFUPiuFOPif2HtZ28XVspiSULnotFS1fHgDHj45CBS+Omn3wvfnzZDXH/w4/EfbffENdce1tMW7iyNnbrL0Jh1uTdeqpf+fUeHkedPDmGTP9FfPqz34urb7s3Hnzwvri1qvfNVb3M/npsthQM3vZRKbsBw+PQ8fvH6inXxfd+8NO47o774pGHKmPmqsvjlocrxVhrkzY6LxRoJQyltrJW2ktpN//xrP7z9ue2itOz9+A49PhT4oghy+O2y6+NZ5ZX8ax4LJkXq/qMisknHhujRx0QR0w+NkYtvKdqjxvjyXlLY8WSxbFo8ZJYvrRSdLNnx6YRR8akfdbGbT/5blz4i+vi7gcejPvuuCF++fMbYnrVYYqzqcpfntV8IwZPeEW88eQRMeP2y+PO6YyITbG24o3pi3rHkee+Lk4epcDtoCp4TUMla/SN/cZPiiOGzo2Lv/6lSmDcHPc++GDcfet1ce2t98TMxas2563NqqqtXRKP3n5t3PjwczFkzOjou/LZeGzawlizdnUsnr8glqwZEEcce3gMWnBT/NfXfx63PfBYPP7wfXHz9TfFA0/Pr5cs6zauy7Apeg+q+v64STF4zYy4496Kh6vZPL5c9Iw2mRgnnTg+RlQKqvJqK0PVBlvsts080bPXxph9+8/jB1c9HhtHVbO/niva3gxYuTIWL5wXcxaurutNqdeVaIFl3xEHjo+DRveOx2++Ie7GK6tWxsL582PRkuWxZOGiWLZpaIybuG8suv/y+MZ3Loqb7nmwmn3dHTded23c8eizsWJ9RXszT+QKRiucY3nw4p/HrGEnxFs/9Dvxx594dxy8bmY8/Mzitv7IvhG3qtuaRbPiiafnRO8Dj4kJo/vHoOH7xfhJE2LsiP5VG0jQuz7hH6vnxfQZM+PZZ2fEFFtX1bhdXJV9XtV39apLFRfVHpXBEr33iVPOOT423P3t+OLXfho33nl/PHj/XXHDVVfF7VX/WEnrUTe2EkNVD+Wq7pTNsxUpxv1y3/J4bmEs6bFfnHTykbHmgYvjO//9w7gezfvuiGsvvybunjIv1m2h1YYeww+LU4/fL2b88r/i89+9JG6t2vLB++6M66+6IR6atiBWL3kqLvrpPdF/8qviAx/7g/jdD74yBi6aFrNXD4ujJw6JGTf/IL5/9T0x5ZkZ8cz06TFn0Yrnz2n0Hli/ibBq/syYNWtWzJrxdEydNS9WrFgaz82fE6t7jYojJgyPaTf9JL7340vitnsfjIfuvz2uufSSuGfG0trg3FLXLXy2edWFV52PNmgL3LRheUx75La4/rYnYtPAajK0fknMfGZOrFy/NpYtnFv1xcpYp0NboYlrWhUKVuk9oF/Mf+r2uO3+KTH9iWmxbNDYOGjUCw9aS7exqvDGasLnvteQQ+M15/92vHb8qrj6e9+OS++YGivazbTBzsB2ntKn7B+Li7/x7/GlCy6Ph6fNjqcfvjtuvuHauPKXl8WDS0fE5JOOicFLHo0ffOmLcdnTm+KoE46KfQb2LfmnRp/BY2K8E7jLn47HpsyuZpkLY041M3zq8UfjgbvuiPue7RfnnP+JeN8rDo9h1Wx647rl8ezUp+LpZ+bF6lVel5oajz02rd5Le+1rzopDh/eIhdUM7trrH4wlmwbF6NFj48CDDo4xfVfEk3fdEFdUA/f2e+6Px6bOif4HHRcnHD4mlj1xc/z0Z1fGlF7j4tRjj4zhG+fFvdddFD+/fnqMPPykOOeso2PYyqlx4xW/jGtuvjMeePixmLm0b4w/9vgYN3RVPHpzJUx+ckf0GXdSnHLcQTF0UNvrViV69u4Tg4b0j9VzH4sbr74qrr/lzrj/oUfj2dXD4+iTT4xDR2yK6XdfGz/95fWxYOj4OP6YI+vT1b1SOG9aF0vmPBbX/OC7cfHDq+KEV50dhwzpEfMfvSEuuvjqmBqHxBnHTYgRvRbGPdf+Mn5x1YMxYOIpcebLTowDey+JR+6+J2as2BCrFs6KKU9Oi7Ujj4zzXnVmHDZ2VIwaOTTWzH4wbquMmadmLYil1Wz/sfvui8dmb4xDjzk2jp88KfYbuDqm3HNjXF0ZBXdU7ffok89Gj8POjHNOPCQGrFsYD994aVx0xZ2x7sBj48TjT4vjxvWNaZUyfWr2inoGPe2Jx2L6qv3iDe9/R5y836AWPtgYa5bOjvuvvTh+fMntsf6gY+PYo6sZ/KD+MXDYsBjWZ0V9KO2Ka26Ku+97IB6fuSyGHXJ0HHfkAdFr6bS4/gffiIsfWRuHnXxSjFwzK+69/Z6YOs/2zrpqtvhU3H7btOh30OQ49vBD47BDxsSGBU/ETVdeETdVhulTT0+LRRuHVzPvY2PcyIhZD94YP/n+z+LJPofFaWefHkdV8WPRjHjk0amxeNWqWDpvejxcKd1hR78yXnvOCbFPn5Ux9c4r4vs/uTbmDJ8cZ04+NAaufCZuvfznceV9i+OQycfFhIHz49abb6vaYnllfKyKZfOnxwMPPhmrhx0Shx8+IYaueCKu/On34/qpfatxclJMOmDollcOKbQ+AwdFnw2L47E7b427H50e85csi0UzH674+IlYXRljp5x0Uhw5blSsm/NIXHvZ5XHtLXfFAw89GQvWDY1JJ5wQh43pG0um3x0/+e8L4875w+PMVxwXB4weWn8saQs2Lo0b/+1P4puPbooBvTbEmmpsLds0Kk55xcviqJEb4onbr4if/eyaWDiqmiVXY3nYqmfiup/+IH55T6XEn3007r3zzrjj9tvj3kdnxoZBo+OAsSNiYCyM+269Me5+ck4sWr4qVi58Jh58dFqsGj4+Tjjm6BjbZ3E8cMMv4+IrH4mBhx4Txx09IQ47bN9YO+O+SsFeHTfcfncVf0rM3zA6TjzjuBgbc+OWS78fP71xduxfzb4nH9Iv5j1+e1z0o1/GU3FgvKzqj5E9FsfDd95eKecVFe+Mjv0OODQmVn24YuYD1biraN5W0Xz4qXiuz35x8inHVTPngc8badBrUIwZ5QT8XXHVZZfFTXfeFw8/+nQs6bdvnHDC5Bjba0r8x599Ou5d06/qkzWxevmy2DD4kDjr3FfEcQf1iil3XhXX3nhPTKv4b+WKxTH90cdj8eCJlWw6JUYPHBCrnn087rz19ni8Gmcr16yK56Y+EY9MXRAjjzgujj92Uowb2y+ee/KuuPqqakJxxz1V/Z+MhX3GV+P42Pptg3uvvjguvu7RGDzpxJhcTSA2zHk4rvnFhXHdkz3jiONPjIkj18X0+6+PH1xwSTw38qg4+pDe8fTdd8ajs5fEWq++zp0eD1Z8v3HsEXHMMYfF6KEDn//+wYZVsWDWU1Ub/yQuvvHJWDtgVCVzKwP1mafjqacejwfvuC5+8csbYsNBR0Wfhc/GhpGHxrGTDoqBVjkrQ3LFc9PjvpuvjF9cem1MXbtf1cfjYuSoSr6MGlvJsrXx0HWXxLUPzI4YMDgGDx4aI4a2fXOkwc7Ddr+Wt3bpvJgxc0H0Hn1IjDtw3xg5YngMJ5zHHBInnvXyOOnI/aoB37afPPawI+PICQfG4OK97y3o0avelz2yEkwHDN4Uq1dWln9lGq5fuyF6j6iU2GvfGK88flwM8xm6Svj1HjAiDho3LvYd3Kver+/Vt1+MHndcvOzsM2PCPoOjd+9+MWTUvjF2+OAYNvrgOHrykXHQPiNjv4MOi4mHHRT7VAw4Zt+D4pjTz4tXn3NS7D+kZzWTXRE9h+wXh004PCYcckiM6ltZwCs2xsgDJ8akIybEhElHx4knHRuH7Ts6Ro3ZNw4ef3Scce65cfrkg2PgxuWxYNHqGHbwUXHskYfFIeP2j5GD2/nGf1XPAcPGxqETJ8Yh+42pBsI+cdDhx8e5r31NnHrEvtF/05pYumxV9BtVlWPi4XFoVY59hpV0vE/7XKWchsSEo4+MIypFsd/IQbF+xfLoMWz/mDihKue4A2PUgPWV0bQ2hh0wISYdXdVn4hEx+djJMXHswFhXKcCefQbE8H0Pi1POPC2OPGhkJfR7Rf/hB8akIyfGvsMHRJ++A2PkAePi8COPiRNPODFOPWVyJYRGxb4HjY9J4yvDqWq/ffar2vX0V8WbKyF2wOA+sWHtyvoQ0OB9D6mMt4lV2Sshe+RxMemwMdGrEjJ4oP+w/eK4c14Zpx++TzvbF1V/r14Szy1ZE0Oqch9x1KQ49OADq3bsX5VnUIytZvlHTTioznvfAw+LE04/J86tFMABw/vFumULYsHqAXHwkUdXZa6U+uSqrvuPiMFDRsZBR50a55x5TOw76sBqpn5CHHPEQZXw2T8OP+qIOHifETF85Jg47MgT4+XnnB3HVWXtG2tiyaJlsWnI/jHpuGPiiMMmxCEHV20x4bAYM6hnrK9mLj179Y7Rh50cZ7/s5Di4UhY91q+ORYtXRt8xB1fK+/A44uBqFt9rTaza0Df2PXhCTJw4IY466cQ44qCxMWzoiDhg/DFVmx5f99UhE0+oDMyDo3dlEC3dMCgOOXxyNU7GxYFjh0e/VPjV/179hlS0xsdhB42OgX17V0by6Bh/xJEx6Zjj48QTT4vjDz849t2f8TAxDq54dERVr0MmnRAvf9Ur63eeB/ZaH8sXLozV/cbGUUdNjMMnHhr7j5GHGXMb3G1avTyW9+xftd2gGFjlceRpZ8cZk/aPAT2qOj63NHqPPDiOOPqYOLwaR0NjZcybvSj6H3xETNh3WDWbHx4jKv5ZPf/Z+uDswZMOj4Oqttu/4p3Bg6ryVzLgpOOPisOOOCqOP/6kOGHSwTGoorFk6boYtt+hccSkiZUxtl+M2ueQOPq4I+PAMSOrsbZ/HHrkCXHuq86N4w8bHT1XL654ZEOMOXRyHHPk+KqdBsWG1aujx9D94qijJ9VtfcB++1VjfEQMq5T9uCqvI6o2GzLygDi8Ko+2GVmN30OPOqUydisFPW50O9sdPWPg6HEVH1XjYfSIGD32gBg/+ZQ495VnVwbG6OhX8e66VStiUzWOhgypFFclu44/48w4tpJv+447PCZPPLDq52Extur7IyfuH6uefjhm9jgwXv2aU2NMZbiNHLtfjB05JAYNHRMTJh8fx1W8ePhRR8dJJ58cRxyyT4zZ76CYcPhhVf+0yZrDJp8Rr33Tq2NyZSRvXLMsllRG+4hKlk2oxtnBB46NfqsWxtL1A+PAiUfHkePHxX4j+sTKZSui96jxcezxx8YJFe9NnnhAJZur8VAZFaedekIcfsA+cdjxJ1cG86Exon+xtbRpbSxftCCeW9kzxh5atd1h+8fwQfUBiVi/bm2sWLaskvdHxBlnHVcZ40OqidQhlQxiMCGwMdauXFj1z9oYNHZ8HF2196GVLBxT1WPIgH4xbOxBccC+lRHYr2q3UWNi7NjKCBhepW3LucFOQo9NbWth2wxLgxvWb9i8/FqScICtV/Ry8rQi7Zv2BlHPzR9q6Awbq7gbn1/PrUhVtHr2eqEFXkHe9pcsu9YHrByyK+i3hVe0qnyVo40hN1VGaFVm+1LVU33wpU6zqX7tqN6v2pJf5Zf0xXNYqfbb0HYqfHO8XgqmHaSv/cv82kdZdnR6VW2V5av9K1rK0Us5Wipet3lVhjrp5vzVqUzTVs42+pY3n/fb3LZVvLq96jptJgybabdFaQuTj3bN+jig+avtJ6CiL6ylDer4/KB6lmeHbVPRqH//oIN27CjvLX1dJ2vjlbpN6vr3rupf0a3CGVzPl7eND9r4p8pnS17qgd7zvNDWx21lqy41XshvbW2bfPGC9t5cprZ+aotTP1cJ2/qsrZ7Vw2b6m9toC+0SRT5VaBtvuK/iZ18W9arLsoW3BGX7VWnVV5o65HnYKrP83Damkk/a8nm+jlW61fPizl/+MC5/9qD43U+8MYbXStN2wYaYdfeNceNji+PYt7wpjq9mypkOL9Y8UZVxizzY3K76XF7KWxf3BfUoeKH2b2nXyq/ur6o2dfqqOTe1xKnREc2OUOT1wvgO4K6v/lfelT+vrBtsaefqec2cR+K//+Hv4rK1p8Wn/+V3Y1JloGOipNvWz+RS/VC3dZ1DXafn864PKLcFbE67uT31oXLipeQdbbKZ1yQiu2p61XNbe1T9XNHYVI6HLWgrSy2H5V2h3P7JbZP6wGTdjlWeLwiXT1te4rWVp62N0C55SLla5VuD7sd2K/wGDRrsnVg7/9G48F//Oj5/x8D4tY+fHy+ffEgM79cjls2dFo8+MTsGjz8pXnbaETG8fh9tL0Wl/JZMvye+9vf/L65ce2p88jO/H8cWBw8bNNgVeFG/ltegQYO9Dz36DoiRo0ZEn5Uz4+7bbo6bb7op7rjvsZi/ZkAcdtzJcfIxE2Lk5s/k7p3wSuzimPrgrXHDzffHvHV9Yuz4I2Lc/mOi9QOHDRrsTDQz/AYNGmwz/IzysoXzY96CxbFy3cbo2btfDB42MkaPHtHh7yXsTfDbECuWPNf27Y0efWPEmH1j9PDBL/4Hgho0eBFoFH6DBg0adBOI19wHt8dt379Bg12FhvsaNGjQoBtB6bfNq5oN/Aa7Fo3Cb9CgQYNuQC6e5gy/PPHeoMGuQKPwGzRo0KCbsHr16li+fHn9Ol2DBrsajcJv0KBBg26AGT5Fv379Vn4Js0GDnYTm0F6DBg0adAOI1nQ+QAPNsn6DXYlG4Tdo0KBBN6EUr42yb7Cr0SzpN2jQoEE3IJU9Rc81c6sGuxrNDL9BgwYNGjTYC9DM8Bs0aNCgQYO9AI3Cb9CgQYMGDfYCNAq/QYMGDRo02AvQKPwGuxSOkNS/Dd8cJWnQoEGDbkWj8BvsEqSCdy1dgwYNGjToHjSn9Bs0aNCgQYO9AM0Mv8EuRXsz+8YGbdCgQYMdj0bh72XY3ZRpfpSkFY3Sb7ArgO+cKWnQ4KWI3XZJX7Feap+iJEh8UzubfGv1a+2azuJn3Gy31rj8uRRmwpvvezdo0IYcN2vXrq3HSL9+/Zpx0eAlh2YPv4Cm8OtWvXv33uyz45DN/GKECBpcRzQyj1TqFLq4ZXxhXPq3hjdosLcix49rGsMNGryUsMfO8LcWvj1AkzJMRdkesrm2NW/psszbWvZMC5m+PaSid/WTnOJmfI4x49qrV6/o27dvXc90DRrszWhvfG3LGG3QYE/AbqXwsyiulFM5G03/9n5bOtOV8TpCGZb35ZXLfLn0A/Rby5Tg14pMB+vWravrRNlKK6xUtPw6Kj/a0iayTGV8cSxHah/Py5cvj9WrV9fh8l6xYsUWv9GjR8eZZ54ZBx544Jby7I0o27DB3g280IqGNxq81NBtCj/JUjDPPfdcrFy5sn4GYVypPD3nrNT9qlWrYsmSJbFs2bLaj3JEg9JKiC+9+BnHNZUYl3txrf5cQvq8UqwUZCrPVNSpnPl5lr5Ml4pWHq7CszyQdc2ZtXtx3afL8mV6jl/GS39bDumX8bk0Ctxn+cF1zZo1tR/FD29/+9vjuOOO25LP3gZtlH3QoEECX8DeOCYavPTRrQqfe+qpp+InP/lJLFy4MAYOHFgPpFRu4Dn3zFORAiXFWKBwgb9w/u7Rzvjp0KRQhw0bVt9z++yzT/Tp02dL2IABA+pnZZAvxz/Lk2XJZumoeVr9PXNJB1Ihl+XLe3HzHsr7EiWNRPq1otUvn8uyLliwIG6++eY44YQT4sQTT9xSjr0NlD1oywYNGjTYG9CtS/pIP/jgg3HTTTfFySefHBMnTqyVXirVREcKZ1uLlnTKa7p8Lq9Q3kPr84sBWlmHbaUrHaWUyr21LTx3lWbGk2bmzJlx9dVXx+TJk+Okk06q/be1bC8FbG+/NGjQoMGeim6b3qRApeD79+8fQ4cOjeHDh9dXs2zOjN/VDFscV0vw7jnh6cr4rS7jS5+OUZHGRd4T7qlAPadf+pezPcq2VLKlYuCf4aVLWtAa32pEpnH1XKZNl8gyubYXnsg8y/xa0Zq2LEd7NPcGbK3NGjRo0OClhm5T+KUiSmUHrUpGeCpe11LpQiom4ZA08xncS1cq8VSWGQ+dzJdf+Qz5nPFbUZYB7aSf95k+aWY9M06mzXB+JTJu0mh1kDSgvE/w68yBfG2L5HZIazkadB36peRn9/mcLp/La+k6Mvy4TMM12Dpa26x0XcW2pC3DO4sHndHKsM7idIYyzfbSgEzb6pJP05Ef7Tnbr+05Z4fac8LQy7Egrwbdi24/pf/www/HjTfeGGeddVa9jJyKp6tIgUiRY4oyvfssfvrnVdwEv2SqNAikS3/3qbRTAZZ0lQGEid+qJMVtpQ15n67Ml0uU8aGMn8g4Zd6tdLYGNGbPnh2XXHJJ3Renn3765pAG24LsC8AbDpg6b2IFyuoSP7zgoKRDp86MDBky5AW8ReAJ4+fMSW5zSbN48eI6zogRI+qVq+znbenrvQ3GX6K9dupq22n3sn9b270Md82wlCNlWOlXhiUyvLwvnzmQR4aVcVqvHdWRf5mXayvNTIt38WbGlQ5PplIX7spfmqQD7vF9uqQJ+JzLOK7yseJ7yCGH1PyfcRp0H3aKwr/hhhvq18COPfbYFzBBV5CM2poO45XMkeHlVZy8z8GD2UoG5S+e+9KVKJm7zDfjoddaxryX1gDJ9KUDtMTJPDzLAz2DIP0TmY9r66DaGqSZM2dOXHbZZXH00UfHqaeeujmkQVehDRPu9c+MGTNqo5ZSP/fcc+ttqfS/4oorYtKkSXHaaafVBgHo3/nz58eVV14Zc+fOjfe+971x8MEH1/4OtzpUCa94xStqpQ/4Ylv6em+D9tYfDC8HU5cuXbplFimM075couxL0MaccZX32pxLv3zOvnBFM2eraGY+/FJJcu4zTZapdEkXDWk5yHGe8dAC9+C5tXyJPLCMZtbXNeMkzQRa3oZyzTwpfGVxzXrwzzbK9IzdQYMG1ePAVqtnNMgx5fBcXp944om6LB/60Ie2vE2FXoPuQ7cr/EceeSSuv/76eoZ/zDHHvIAZtwZFw0zSpEt/Lp+T+RLJrJywZPj0K6ssruccVCBNxnGPYTMdIQI5wDwbAOKUA0sYvxwg/MpyZVx+icxXWoNCHPB6IgHGf+TIkfWgynhZ5q7CDJ/CP+qoo2ol1GDboN0T+oujZL7+9a/HNddcE5/4xCfi5S9/ed13XiH9z//8z3jd615X8z4hp88IT0L1l7/8ZXz3u9+t++HjH/94jBo1qp7133rrrbXQdNAVDyVvNWgf+iTHzrRp0+Lyyy+v296z11BdjTNjldLynOM54Vn/WFGhrCgg7Q7anr9wfnnNsZxjsKSXvMGvvGb8jJtp0WMQlv2cYfzk6Zp+CXT4CUuHx/i7Sse559pDliWRZc+8yvJDa9mBn7zL9sn8Mu9W5zC3CeEf/MEfbDEOWuvXYMei20/pP/bYY1tm+Nu6pG+QYjKDN9/Hp/wMYgMXU40bN65msGeeeaYWpJZH99tvv3rQYkBlWLRoUTz77LO1YJYmB4WlWK/tEa6zZs2qn4888sj6Wd7iSC8/jKks++67b32dOnVqHSYfNPM7AwcddFCd7umnn64FeL76hvaUKVNi+vTp9QdvlJXyNYOjzC3jUubqqG7ayyHHu+++uy4/AcSf0LJSMmHChDq/sj3ls7X2zSV9M/xmSX/bUbZxCkL9/dOf/rSemZux/+7v/u6WNyAo/Ne85jUxfvz4up/1JZ7DM8aF8XHdddfFa1/72jj//PPrNA888EDNZ/gEfcJQHg1+FdonoT+8FUThM5YOO+ywFxjZGQfaa09+qTS5ciwJSzolvTJOed9VlHQyj0Trfbr2kP6t4VtL1xV01madoT15xA89tEwE77nnnnq84HF4MeVssHX0+tsKm+93OHSeJUrKmPAi6LalQ3MJjDK96qqr6tfJMAYDgOC88847ayVOwV944YX1DMs9pcsihyyDWa1lV3tGGI4CNhtAm2ImrL/61a/WaZVVOg5j3n777fHJT36yjkuBMz5+9KMf1UtSXjVkmVPg6klQMDouuuiiWgnYn+LkSdnef//9dTu4VwcGC2NC2Q899NAYM2ZMvSqiDAaDQcEIYSwxDpT5Bz/4QRx++OG1gVAKvPYGWCu0nXLLR10bbBvK9s17V9+bMLOnwBlplvHTYKN43N93331x8cUX12FWaR5//PHacMMDP/vZz+o47m274FP9m4pna/26t6K1bSzn20oxXoxNbcgZO1zrc+m0v7HL4B88eHDdR+mMcY6Bz5EvrY5Rvr2OXMvZeDpGYelKY6TVkVPtuR3BO9tLo6M0Kaf0k4kW40x94cWWtUHn2K2nDcm0BqMBRRGamVoiffOb3xxve9vbtgzU/MAO4WrAYpxML0w8A9e+9Stf+co444wz4rzzzqvj+9SsGRilTEmbbSfM7q0OMD4MeHut+++/fy0YCA4fsOHQfMMb3lALc8oUXYP4i1/8Yjz55JN1+Qlz5UdDOd7ylrfUX7sTVxkp9pe97GXx7ne/uxYqF1xwQS20zBblRUG/9a1vrQ0PHzMy21dmLmcyDXYNrL7gr9/6rd+q7xmgjDN9k4KXEad/KRNCGn+44ht7/3jvrrvuqtNA8nDTry8OpVHcYNch+wHP42lXwO9NH+0cdLvC15Hb25kp8ICCTSuboORPsZpxQwpQ/plnma9wz2bilDdlaYY9duzY2sI2o/q1X/u1uPfee+uZNQUqPiODQSCvtEJTCCcdNOfNm1cv56InrTSWaAn3r3zlK7U1i15uFViJYIRkmTB97jFSDJb/0WQgyFc6Th3NJO3zMkayLI1S2LUwA9MHDD58pP+sSFlR4a/vGGxnn312baAm9Ls+pfQPOOCAemXI6o9+Td5KA6BB+zCGuNb7HBfN2Ni9kP0DZV816H7slBn+9nZmpsurZXiK0/Kp5XzL3WbzBGJrHp5b/czcLaPm1/+uvfbaWmkCwWqGzVn+tw2QWweUPWBONAljcNLaEm7SYyikAqakjzjiiPjIRz5Sx7Nkaw83GZwBkgYElLRdldN2hVmjuJwwjuJA09ZCIsu0Ncgny9DgxSN5jELXrvrJIbxXvepVtVGmH3MGk/2b7Z/GH38GoN83YETilXw1L5V902cdQ/tlP+Tydz5vS7uJm65s99Iv77O/y7AyvKsu8yjTlvcZ3nqfrr08E3nflfCOyp7hrX6JjvzbQ9lPkG2YsqsMa9A96DaFXzKAewyV911hDnGSAVwpR7Nfsx+fh3X4zZ45iJuCNBnXNV3mR5haDqfkHf6j1Cn6ZETL7h/4wAdqJW5fnXGBKS23E+TJoOBZmqSfe3sJeYEVCIIcTQpAfinkpXMtGZ4DKw7CzfLkK58EGq3GQparK0CPg21J16AN2d5c9ot+wluerULZLnIyPw9aUkL4zQoSQ037MwDzMKo0jE1bVfiIcYvH5JH80WDr0GbaGrrK29mPOZaNXc59jnlX485VvPTnINOnf96j45ouaQuHjJvPiaQtTYmM2xq/9blE0hFH3mQfg9Jzmb84KW/U1YSDy3pz+JncdSjZpCPpZnjS7Awp40qZDVtL1+DFo9sP7Zkh28u0XOnkMejgUrl1BZT8Qw89FO94xzvqA2to5Z46RjPLZgzYG7ffnUwoD0z86KOP1kxOEHslTTqrA2bLlvQtx1tatYTuYB0Fzd/yq8N0Tv6i6/VC9Mzm0bYUa2/evr7Df2bkhLVB4dnSPoPBOQArEgSSU/ap0MHyr4N09vPN9MQxGCwJ27+3xJ8QZv/ewHWGgXJQjjQitgarFowZqxbKDdvSDw2eby88ph/0tf13fOHMBb7BB3gULzgfgg8YkFam9Ke0Diy5Ght4D139gs/wjDSgbxul3zFKRcGoMp4clLW91lXe1g/opDPOTAyMF0oOnaRFrugP/a3vTT6EGYvSiq/fOSjTQsbJiQujzz0FSlZSppQsHpLOKhGHf8TNMyDS3HbbbXU6EwDbj86AODNEHpJ5/PxaqS1RIEO9BUIukzmMVHWRDm/Kn/wTJj9x1RdPagsyzFajcqDND58qZ8qg1vp2BPJaHmScMdOVNA1eHLpVimDsZIIcUF1lhkTGJVgxXu63G8xeK8NwlLXZeS7l5YD1TKhS9MrBzyAyMO2fm30blCxe4eij86Y3valWirYOCGt58kc364S2a4YZUBS8gWYAyku4ejNMXv3qV9cDgyFhkKEjDNAi8LONXB3kUz9vFhhcSc9AtH1A2efhxG0F+pn39qRv0AZ9BfrOq3eMRf0E2pdif+c731kbcfgXzzp/gVek8eolIy+Fnf7Vp/wZotk3mU+D9tHKw9qL49/VttP2mc549I2Eb37zm3HHHXfUY9D3EjyTJfqYsv3+979fK1AyxltEaYijRaY4uPnZz362VqJkS+ZD5vjo0r//+7/XKz7kEePhv/7rv2plyxjwyqZvO6QxQbGjr3xo4C/+qdD5KYc3eKQni/AZfzLD2wtoeQUUPzIoyU0KXTo0yFVh8iLHpJeHeJT8F77whbr+jFq8biJk+1Pds725riLjpixq0P3oNoVfdj5mKDsVE24LYwChyIqVTnpKFhN/73vfq5dG0af8WcYGrIFnMFhGp2AN0lzON7gwLqX+85//vL7H1OhJRwibhWN+li36GN6AkZ51bMYuDWtaPgaOshAOBnT6UdaEu0Fiu8Ayr/KnYlBmVi4jQf6W0AxYaX77t3+7HnQEyy233FIP+O985zvx67/+67UBoc5cGkNdQQq1vG+wbSjbDC96Niv35ggDDe/pC33sntInSEFfMiDN0Ch2/EWx6+tMk7zN8UOfX4OuY1tlS0I7kx8UrdcpzTzJAa/4UW6MdWPfuP/Upz5Vy6NTTjml7nerhhTrl7/85dpf/4pLvlDexinaHBmClnGPdzh8wYggb9BkGCrDj3/841o5MwrIBfyU5WRAclYzKPhcsVNmb31YzcSX7vFcKn70nS8655xzah5E28qoeCZByoBX1clZFPX37Q6yzlsmJiNWr7SPNAwVs3V13FaZQnZxDXYOdsoMHzAD8OsqU4gnHWvZcpN7yu8//uM/6g+asLgxCwY1uBgFLFjWuHiW4QldStcgw6SWrljvwtC0ZE/hU+AGBKVusH70ox+tBwTwMwAdxhLXYPNM6VLYBqp3p9EXR3r7scpFaKcAMoDMzA1wdaH00WIE/M7v/M6WE/n8haPnxLeBy982hHLZRjBItS2njtnOW0OWJfugq33RoA3Zfq7Z9u71l76mvDn+2Y/uKXDXjN/aX9nvnDjCxXPfoOtI+VLy9dZ4PONrbxMEW2lWbIxlCpayN94pO/EoYXLAeQtjlAyhZIWbuTPO9advLHhl1/Yfg558kp6swCMMQXnqc2F5QNc9pUpOMAzwEIcnOLSN/wQeQTf5x4SDXCLzyD7K24ompW9rwMqDSQxjgYJndMpLWdCRVyLTkZeMAquU4qSSNjkin60KJIR3BV2N12DHoVv38MHA8FU6lqR9bkwFed0aMIW4mJICphzt4ZsxY7Z8R52FbCmUUjVYhBuEXpNiIfPD3CxbFrH4lDIli9mF5zv0BiPGprjdY3r5snT55UwNLeWiiF0NcAJCOCHBT/wU7gaqMMI/Bxf6hIa4BIfBa9CmwDfYWO/Kpf1cUwlknHRdAUFgb89gV8aupmvwq8h2T0HsXt+VbVqGlfHL53RQPpdpG3SMUnHYw7cHbowbV4n22jBlS4aZQfv2BcONYW7sCRNPvzpr4frpT3+6ljtmz5meP0XpA1ro+M4HJY+GmbyxTx5RtKnELaWTIWSVPKwGkAPGuXMItu7ItOOPP77+aJPZue99MAgyXwqcfCMXrEKa8AjXDrYkzcoZEsa7KwPAbN2SvWd5paHBgX16Moq8FGZCo13e+MY31rIXTybU4xe/+EXtZ7avTJDXzqD+tju0pW3PBt2Prk0LXwRyMCQzbQvS0qQUKVUKinPP5VIWBYjpKVsMzBnsrhQspjUgMH1exXelkDEbBc+lMlZe+bpnTaPDIndvQLmKKy36nHvpDG73wj0nvRTgYICnIJFPhotbuhRK8kRXm/BLGtuKpLk9aRu0D20K2X+Q/ZbPHaG9ONk3Gdb0V+co28/4SLnRFZRtmyt95EbOoHO8uaZSsuKX39Dgsp+Md7LIfnjSNDGw1G6rz8yegjPe5ZGGO4jPUHAI0LkAy/m2ChgV4uEt6fI+03ApY5RRGDnIkDCJUc7kS/Ltgx/8YHzsYx+rjZpvfOMb9YpEbnkm3WzPrEPma7tRHhkOnnMLMuOX4Q12L3S7woeSAbaFGTBgMnMCUyVjgmfhnPuS6fIetuZfhrc6EJ5x2hsYHOYvIbxM1wrhJa2M34pWGtJ0RHNrUEbLcVnW7aWzt6K1vZIHoOy/vE9Xoj3/8j55IdH63KBjbEtbZdxsewY1xUYBJsp+Mu7Ep0TzBD60xWlTfCtWLK8nIfwoVat2lsJz9u2ak4ekC+7JOquVVhIoel/cNEGRb+uYL+vI0MjxjIZVAhMjs3GzZ8YFZW12L1+/wuiLkCZMysSAgaSftD1zDAUTLOeSst7ZdlYdtJd8yvRlWVuRYa3XBt2Pblf4HXXm1joZ0+QAS4bP59awtE7znn/SKOO0558un8swV+nStcZtz5X0y3jpX9LhyrgZP6/pyjJwkGHbA8Ih219eDbqO9tor+y6hfbON0xH+DoumYG5N0x7dBs9D+yXP5rUV2rB1THSlXcVB0/K75XVbApRjIvsQzGQts1sqX7vWz8Wuq8Layvbcc5TfijjttFMrmtKZDUcceeSkSvlOjAsu+G4VvryaeY+rwzZulK6NT5SBs+JI4VP0FDme4c9wcK9cyVvqykCxuuhZ2bKM/KWn4KVxPsmZJUv9/BkEthjQYAyU7Ztl4fhZ7Xjf+95XK3z15k8OUf5eR7V94Xv4/DJNRyjDTDzKfBu0jx3ZPt2u8JMBstDbU/hkvnQlOgvrCso0ZTkhw9qjnc/iZ3h78RIGaTJ3Z3FLv47uob20XYF06RrsWOhjQozTz/ms30Gbp8Jv0HWUYxK6wrutabYGNM3wnRPSR/ldBaA8Ha61783Pq5aUnWV6Sk78efPmxmWXXVobA6efflrtt2aNN25Wx9ix+9RGwLJlS+s8Ro1qO7S7fr0P2rQtkaNX8gm66pD0zdaVwY985YE8h4/FpcCtLnh7wAE6yt3evrM64jhkaCZuT99nvm0ZmNUzbJxjsiKAjvylc8Yg38U3e+ecHfC6ssN73hT64Q9/GN/+9rdr/vY2Ua5EJNDrCBkmP3XKejfofnT7h3ccUnEABUNYWuKXbneC8hhgBg7G3RrzlgKlvTq1pmmN0xq+s0BYGPDOL9jja7DjkIo+4T6fXSmOXd3/eyJy3JTt2VH7eVuHYstDe+J3pa3Fo3gsX1OCPm/s5LkZt8NlFCdlbU/eHvm4cYfEz39+UX0gzwzaW0GW+j/xiU/U520ozSuuuKIOM87IP6sHDglbCXBAjwEhXHyf+TYuc8nfIWfKHs/gK0v9/ByoUzbGBrr2+Sl85w+8GscwIMM8g9k/P+2hDK75caJ8fc/qAaOCMSMvh/W8oSC+VQ/lA+2iDtpIWL7a51nbZD911N7ZF3ktD+0pJ3SUdm9HZ22a6Erbddvv4WenGhCsQqfcvf/JnzLdHTsW07M4MW+p8DtD1jPvE1vroF1Vf0KBcDLYve7XYMdAv+IfDlwZVw5wEb4ELaFmeZQgb9B15BjTpu7bkx85riiySy+9tH5Fzitx0ojb2XiT1rgv7/Wdt4soYP1G0VO6lB9aluLN2B2ysyTuEDCFTEHLM5fJ9bXDfvwoVMvtyu9+3br1Vfw+tV/OdDl5SEcO5Qw/625mn3XKQ8KZj2vGVY5sK849ZS4MpE85l+HK4Mo/48Hz5W2TjUlbHGVHN+vVGaRpa7u2K4OKbrBCYAIC/Bu8ENle7UFYGb619us2hQ9Ie6VDp3pdjjUKCtVewVqL0hqnrFiiveKL0xGt9C/ptEcj0ZpfK8oytd7nc+mXaM8PWtN0hozbEQzIkpb4TgpT+AwwH9XYFpRlzXu0S//MqyxXhpfxSnSUvqSxq1DWE8qyttZLHG2ujS2Hmmm65xhY9k3Nkgg3glO6so5535pXGWd3RGubaAOOYij9UrmU9aOkzEihVCZAaXLSCAOz2aTBlXkDJe21M0vrZqoZ3lkbipPxXJU1QdHxy/7i5K/cfftSjM/vQWdadcg4ruBeOMUM6W9XNcsmrTiehSddKOlk3TO+q/JlmLgZBvzcJ20ukc+Utmvmm1c005jg1xq/rI/nzpD5J26//fa6ryh8xhJsjQago37iyveljtZ2KyEs0ZW267Yl/SxIHhhxctVJzyw8VxbWvU4swS/j5z2UFWsNb+8545XXjiA807vmPZT3kOGJDM96lGH805Uo/ZNexkn/vE+UcaCMV6L0TwFg5uLwTS7p8yvL2RGSFjrp0i8Hfz5nPTJdGV9cKNMTJvwzrWsOZPfQlTJ2BzJf1ywzuGa90nnv2utU3p+2kmLJ08eZKB/18RlVY8GskaC0XOqadNMlyrx3V5RldjUDtT9MUaqf/V/8Zj/ZkrcVDvURV731vVVAgp9hlLNkit6zWaA4ZpDiMQ4cRAPpE9lGthDtQ+f77InO2lBYulKplff6iVM21wzr1avt4BwoJ780TqCVXjrPVc61y7CMV8bVThmW9c2w9Jd/mYaDsqwZl8u65HNreCL9uUyT9PKarkzXEVrjeAXSIUBL+rZOoKt0tIVrV+Lv6eisjtkGXW2Hbl3S5+zTGMxm+H54xqDIAQIKKh5/wDyQxSorknE7g/CMV8ZvvU+U9DIN5LUMTxqlH3hOBkwhlrRcCT8KTVheM6zVD8owMLggaULGkVcqS/cEpWfLb2W+uWRoedknf32tz9fEsr07Q5bNFU0gyMvlaf7C+enfpCvPXNrmb+9PmqRlP1HZLJtayiTY0WgVIuX9zoa2hWzLLJu6ASXna2oOVLXt746rP8JkmTfbR9o8OEUhGheW+e2V5gdd0M28KI3yeVfWvyMom/YAZU3lrj2Md0Y+g9++sw/HfPjDH67rnHXRfpy2+PznP18L/z/+4z+uVwLRxTO+WueDWNqTwqfMnQq3vC5Otq/8Qdv6EMy2zPDbg3TSyEMZW/unDeK03WU8acRzLeOW+Sdd4T17Kn9bWFnWjC8eeq54SDk4cTl5poHhOfMt82sP6JVxkl62IyStxNZobiv8TgHd4BXBNM66mkdX6tjgV7FTlvQdeLGcmQM5Oyqv4pUdSAEQHk6uYnKKgePPocFlOgNAPMLFNZffMo1B4dk1FZN4kP6uQOFA0s+Bnn7pn0g/ZefQSnqcMCdnM99UyO755XKmPDizF4qCAlR2S5iEm/069aI0OffKBpm//NAu65sQh5+yEJpO3FL42eYdQRoQDw30CWizVNsCykAQE7IGLZrqkG0mPkveISUz3N///d+vlQF/ZfEpU0aId4PRQtfBIBZ/WbatlbM7kW2Q9Qd+eNTBK99K1x/aw76xmay6iA/uxVeHrLc2c0qaQrPSYnvFNfs0+SHbcXeFeqWznM7w8WU4Ro+6qK/XwRwy81sSVvmyL/GncEYfY4kC0CaUvte8zNatmDAStA15oK3Ff8973lO3TbZX0qTwyRtGwfYq/EyT8Cx90ng+vK1/89lVmTI+5Nhs7Udx2uLxb6P9vN/zZc177SSsnCwlP5JZGa81fUcQL5F5Z1nL9F2htb3AFxT+b/7mb9ZGb1fL3mD70a0KHwj7b33rW/XhFooMOhoE/BQnXSquZIIMx+Qlc4qHFsanIHMAmDHmgRnPZo55IAZcS8WJBkWbSt+V8splyIQylGXP8pZxSsifK5FxpUvwQ1eZ3FP4UCr4TOearoR8sj2yXpD56A+v6RDKuYffSqNEWT73lD0lTbGZdSmjpWy/X6Ctffvfqd9sH2VJQe03EDz7gRFLrowdBiHlR8DrO98xF0fZtL880SrbuztR1jehffhrW/VVHzNZXykT5qQyIwZvJX+JL8x99ge+BX7ZT9pO21D82tPKCwWnz9For8+zjOm/K6EsHEPWR1zURx2cNAf19vsVTqGnwgdlz3HsZD3hb3Xkq1/9am30/cu//Ett9DEgtEf+MIyT7F4Js+9LSbTyhlPfOcPPj8FsbzuV7dx+m7fVXR34p0sIa8tfuiwjOi+kt/l2C5JGW9pfLXvp31GcrSHLnCjvy7LB9uaxNbQq/N0J2QbQHXXfVeh2hV8e2rN8ubME9+4GzZwDp5WB2uuC0o9gJPi13YtlPgr7wgsvrH+HwLu1WabOkArLioS+ZBSZQeUBKjMxn+lkGFH4wkuaFLuZsCVtvyhoxeIv/uIvaqVgrxuP5M/EEvYUqdeXGAGJF1vvrSHbwTWVcSpujqI3o7evfPHFF9fvPL/1rW+tv6Km3pBC1DX7KmlySU94K9A1CzbTtffvx1qsmDCeSprSe2YQJJ3MZ1cgy2DW7dccKWnfXM82UWazdAbN29/+9i3vfGc7uNfnuTKgnf/kT/6kVvCUOt6g8KUzDih0PPTe9763Xgkq2xnM8C+66KJ6+xD/ZPnE215k/2UeeW3w4pBL+qXC3x3aNvs7x9yL4Z3dDd1aE41WXvdmpFBqj6HLsHTJaJzZvSv/HYFk6K6g7ENKjsFAoVM4lCL/LHOpgEp4Jsgd4vKrgFZ7GAhmdmVZKETL4fb88+DXjqpzZ8j8lV+dcuYpf7N59baq4dcZ/+d//qc+af/nf/7n9atfufqjf5Q/XfZX6RLZr+nAO+M+pUrZUfI+bmK2SxEyBrQfoJPlLNtuV0F51CFXPqzKZBsop7YURzldPWtXz9KV5RffLP/P/uzP6qV9it15gIyX48C9vORRtmsi/TLP9uJsK9BSds59ugbbjx3RL92B5Jkcmy8ldHuNDArCyWDe27GtDJ4CZUcODExcMvLWaJfhFJ/ZvG0OCj+FbyKFYOkHSQMP2Oe2CmA/3/vSloLLPNwT7IwBM+ru5puyrPiUUy+C3ezScruZq9PiDo9RyJasc9tCebP8eU3/hPts84xfOlAO92Y6PmP6v//3/65ntmb98rckbuuDMaRsyil+ax/sCshfObg0REp/xkC+P+5ZuVMmpJ+r+Py1sx95cdBPu6tvxhMHvdy2S9ceOvLfHsjfSpW8lRF2JP29FfpT/3bWj7sCWZ6XWh93m8LPQa/BcmCXyPAS/NpzKQy4jLctaI2ftLaVzo5A5tmV/Dtjtkxf0sj79sISSbO9sPYgXgpaCpjQK8vFP/s2hXgrsv/MyChzX/eyR2/WbKm3nL1yhHkK1x0N5Wh16a+c8rXN4NU6e8FOjjswxkhxIDG3K1rbIFHSLeN0BvG0cQnnXXzC1b63L6XlUrUtFcva2kZ5s22zDHnd2WAA2uLBIzkLzhk5vkgjRXn5eT3R51vVQxhDhpNOuI90+TBUGjjaSBgDERhcW8PW2qKz8NYwZcKXO3q1rSNsreydoStpxdmW+reHF1NG0I5o6N/dEfq4u/t5Z6PbZ/jZYK3M0V5D6ngCgWBISzqZIYVFKeDcbwsyTZYl8+tuZL6ZV5Zha8yU5Ux4Tj80tEnZLnlfxmsPnYW1Ipne4MxZvXbLPLIOrp6zTTlLt2WZ8upw32tf+9r6kNpll11Wz6SlF1c4WCqXn+d02wN5JtCQR/JW0hSHn9fAKHpL6T6N6mM573rXu+pfLrPUnAKqFdkG4D5dV4FuOunkkTQs9TOOLPfbkzZT/tGPflR/690rft5MAXGzrcv2zvvuQJmHPmWYMOoofWVRHzxgtUYcb2PkNo2DfD4A5ct4DBjt7UCepXrpKHTtTumjmbTs91sF8cpfWTc0wXNZX/fZLq3+maZEmT7vxZM/ZY8nPWecjpBpy3jlcxmefiXK+uxoZJ7t1b89dFQG6bNd85rOc+mnD8iGdMYbl3EzXoPuRbe+h48h7Pn69vPkyZPrg0gGTomMlwySg1M8zrNwTtxMTwhAK73OkHmgk0qrPLW/I4E2ZLkJK7MT9ck3AYR1BGm4jOM+2wVy4JiR8kOPMMwvVqmTtK3tYz+YoNUfhGlnZYCshysFYxnegSgHrPihTwl5E0N5zIQdxlPPfC/d4TMC3naAWbI2l9bs2Ylrny11oIsw1U7KR9GJyw/yuq3INsv2c1U2fpz2o4jUTRnVweluh0wpHbPW7MOkl23murX22x7II6/Jm1l+ba3dbInob6+7Kq/2UlZQL+mk4ZSxO3gcsk3loTxm7fqbMaefCXXtq80d6NOPyauW6x3O1M7GhjLm52vFh+RvylYaWxwMn/xoVPZtXhkPVkIcKnWgskRX+yrrk/ecema/eE64z7JKk66Mk+mAf2s5WvOCkkbpl+WQJ1fShgzP9ihptt4nMi/pyvCyXO7zGTKeMiRvCfecskmcjIcP9HGGeWbgMfad63EAE5S7Qfdhp5zStwdJwXjXuuxQWScTYQbLd077ElwseMJBfALD7AtjEQ4c/2TCkhHbQ+bjSqEQIvkaEMFBmOxoGDxZNvfqRcBRuGYuhGJnzK2sOXDBvcHkmfOsHvaYCVBK02tvf/M3f1PPtrLOrXkQmhQqQduVb+mjk1czN8vcfizDGxfaTZ94FcuMU5ne/OY313XTX/a7leujH/1ovQfN+DNj9mqWvlUf/OG9dAPerN5rgxSv8vHLvu2srTpDtkO2X9bHPb7yep3XyfCF9vCtCAYZSKN+ZT/mPSTtHY2yzNnXypt5C+e0sVPOBKe2UnbtrfzCyzbLtDsSypVtIj/wLn5+ZRCfQIZlPFfxjAn9TMFnmDK7T9r8UlnoKzTVVVhpBErDOefgYCVDqDRKwdVz8kHSL/P0zOl3z1YcGFn4Q37KYRwok6s4xqEruskvaECWS1pOPFDn3B6QJuG5LI80Sd+9cshXmazuKF+WF4SLy1GsWVfOM6TBncYU51kafurGT355Fa5MGV9+GW7cZntx4kLWwbVMn3HIA7LrD//wD2sDMcMbdB92isI3izNj8pnR9jpUETAm6/xLX/pSzcQf//jH69PQQDD7KUaD7SMf+Uj9WdhkthLJVK1I/2R+dHwARnnMLHNm1Bmymdqj3x4yvivHmLF87VUUr6E4mIRWhrtP2q1py0ECmU47mUUzgAwcM5u/+qu/2jLIDMLWNkqFrz8sFaOT+bYH4eglnYcffrgW1vZYCV8CIoUOZ/BrT4LHbI8x4DQ7YUPA6QMzPfQy78zDlWGgLt5tLw2xzsrYEdBLoJ+zi5zRM/ooJ+XziqJyiQeZFp+15l2We3vKtTWU9EGZuPRTh+xbfpScVxntizNgzfgpfistmUb8HV1WdLOMQFEAXnefHyBK3sm4yp/KsQxXvuSDvHcV35h1bf2okXAu03gD5Atf+EJtOIqbbQRlOTIdv/TPsmQaeWRZ1Ue4aypg9+JlvbN+SRvvSIOPlUV/qIe0xo6vThovFLC44qUhwGW5SiTtstzKl/7KUJajVU7yUyb+JW+Lk/WXvnzO9JkHxy/Tbi+8qusV4fe///1bZP2Lpdmgc3S7wmfF/eAHP6g71BItJiqRDGoQUBxmLJaHfdjFzNBsEHMR0D4Jay9TXEzOuTc4MC86yfwGKqVjQHk2SF1zQP3lX/5l/e63A2TSUlLCpMu4rhmfRY228pdfkhMvmzCv4qmL9OhRJOiY4fvMqDqwaMVB11U5KW5pzdyUh2KyDO4dZHG0gSV77yibHVnWNbsjPOyTepXJ50udhFfmHNglKPx8tYzBA+rQGbKPEhS58pjFWU2goEGbiEcAqgcDzkqNZdoMS2S7aR99yKm32b4+18aZbwqXrZUTMo8yL7T1BePDXjHFqIza0fYEA7KMn/m0l1/G60pZthfyQL+8Zr6u6pPtmTzpWf/nl+i0uZUWfUSx6CeQNiFdmc+LBdpolX3dSlecsvyukPGyPAn1Sz8u61qCf8ah8CkR5wl8aQ+kSR4VT3ou65/+xii/3QlZtz0BrWX1nFd9LqxsX6+c+giYbUDyaE+p556Mbv09fLDs5Icz7DGafbQyRD67Ev4+zkLYE8qUHYFFGVJ+BLZnMwjKxOzM6WX+lCqhThlZVbB07hQ4GpbAGAvSsLK9D+63qgkTitKHQdAnJKWzbC0dZaqMBCjDRVyHuqRHpz0G5yhVylk6TE0QU2LKSyDZ3pA3C1c+6mAZWx2Ug8CiUDkGghmcgYKOGbD0QOFLS2GJIw/Kn6DPgUWwlWVkYKSRYBZYhnUEcUonrZlKGjJpVCQtbSB/sxrLyylgWwVt3nPu0UnllOGZZ9LuCPJMZcJl3+h7facf8Ab+8rqbV+usUuTyPbTm2R46C9tRSPrlNZ3yZRnLe3XGv4xY/Y+P7PXjN3yrbZMntE0aCvkM6LwYZBk7u4d8Lts6XRle3nNl/BLls3oz6sgJ2wXGKT7FU+lyFYoRkK6jGfWOREftnP7QWd12d7RX9nTJqyXIQyuGDsca93tSXfdUdC+HFyiZOqGDy0GQAoi151vvFLFDYmbquWxGqXs/lxFB8RqsXu2i3BkXZjiUokEtLuVJABj0mMssO5WCGSV/ZfD9bTQNfN99pyQwIQVp2RxtQpOCveaaa2rjpL06UdLKzWChbBgQ4lPIQNBKR9krN6OA0pe3PNVTWu1h2Z0yp+idN/AFM/uY3odXTn4MKQPGTNpBJW0nTB7dMYC0G7r2UbVd9lkKY9dULilEsxyuXJYt42ca9HJ7pUzTVaSi5/SbtsILvoynbe3r5m8IpMEGWY5tyWtXomybLLcrqJNT7HjF9+bVmaFr5cyyPz7Dyxlfm8GOqjs6rS7hXr54I8vdGqdEGS5+pmkPJU/l+N7dkOVrRfq3F/ZShj5LebK31X1XYacp/PaQg7S8N6jNGi21O+TnFSTfVweCwmyFAqbsCTNK0SyNHwVLyVgap/jMdvgJz59gJPgxGcVsxYGSfNvb3lbnT7FSoJSP2bLvcROOZoWMB7MHbxpYMhcf0HKf5Rff7J4hwmBAwxJ+uUTN2QdnNJiNqYc4yqysyq8cZsjuKUFlR0MbMBoYPdqFEZO/Rub3pSk55S8Fanegs4Fa+ud9WXcO8lqi9EsaremgNa246mzlwY8DMbIoOQaaA4YUvb7Qrgk0Mo8SrXntKCTNrtAuy5D3pSvL7Z7jD6kc1dX5BAcptQE+do4E31hRMpZaaSX97UWmL11X0V78rNvWkHFcjZGupGnNq738W5+3FzuKTlfRXl06Q1fj76g40NU8X2rYlfXeoQq/tSJ5Twlz7SHjuBqkOTuk3N7xjnfUAuszn/lMfdiNojMjthQEhBplSPmbJZsdyyf34tDMJbx8FifzEiY+xUqhWklAU3iW156yZ2cKCE1Kg8LPGX45k0ATDYYBhW/JnKFhL1E5pcl0FBNnpizcIT55osG4QAftVN4gnWfxvJpkSZrB8vrXv742bhguXkXKdsx0CfSyvGhx2wo0OfTl05pHQlgJz6VrBb+k3Sqw3Wdbc/igvIJ+NXs1m7clY1vHGQVfbNMmtiG0W1nu1vpnm3Tk5OWa6My/vGY5W11r+tbwdJBxM1765TXvs26ueE2dnfvAHw5H2S/VVtrI67KMRPwqfXvlTNplHl2FMnBdxbbGbw9ZxqTTUZnLOqmnumuvsg3cZ3i2xbagpJ/3SaO87wq2FjfplWXlsj4l2qOVaTMs05cuw0v6XKL0K11JtwTeJJvbQ6Z9KUKfcLsCO1ThdzRgO+rwjF+my3iEFiX567/+6/UBnK985Sv1gMw9V/vk6KaSoLAp8HwGiiPBD20ze+mS0fjzY2Dk7F48HaJMltRtCdgPVR4GgFm1lYMsN3rZgcrHACFIKR1Ly5b4c0YvLliOt6fsxDxFxaCxlE/ZgzJkWdBIA4CwFodR4zk/QKIe6qBe0ihXtoNwfiWyHNsDdEv67kvkc8ZLl8j78trq1x6EpQDL8svDLN7hH6tB2tmSvR9eyRWTNPbMaK3AgGc0Ushn+2TbZTjXep9lgDK8LBs/KP2SbsaXN+Qzp3/585NWv7tmObn22sp9PmfeaeDks7awckXxf+xjH6vzswriu/22xPBVyTNlnp67gixHWbadBfVM11l5hWed0vB2X9ZZP3h2n37bgixHpsuxkH6c+21B0sz7LF9ZNvfKKyzzK51wYYn0SwhLV9Iu/ZN+0kw/vOqaE5YM59cejEvtIn0rdhUP7QxkvbTNzka3HdrLyuReKsXU3qG9hHuM4iCaNPkToRSb2Yl9SMLKzBYDUY5mbZS1r3WZKUtjqRIDiWf53qtX8jXLoXgxohkfJS4feaBNmfOnyB3Mc4qeUvaJU6/4OPRFgduLZ1jIS10wbDkjNbNHS50pH2nVjfJRHqsTTofbinD4kKLnT1lbObA/r27Kay+WoUFJqYPB54Ci9LYL1FObSGtP2j0hn1CmbOMUONrL+QEHvLRZ2R+7K1IglPxCIOsP2xlXXXVVvcJz9tlnx1ve8pb6rQZptJf6Maicl9B2DEU8ZgtE/bWXONoH/czL1XMKpKSVz5xncVqvkPd4NQ0OaSGFKL+Sdvq7p4TyOftO3HzO/BKeORBeCtlMn3HQsVXk8Ke2cpYFTxgH8s1DbNJkmcv8ynx3F2T58IGxbezkL/O1lldc/GP8c+XEQBg/44QsUP8c32W8rSHbmTNJsM3n3sREWCLbd2uQf9Yx79WB80x2ygNf29JiBBsfVm/IKzJJmqSRSL/yvj2X4Qn36Ci/eml3RiO5QlZqPyunmVfrFchCh6nxYb4pIzzzKeN2BZl+d0RZthyPu6KsL0Lh65T2C4wBsoIGj1PhGIHSKgVIxklngFGCZsgMBIKH4HJveTz3tiliYUAwGUT5KhqIY7CjL409cjQZDxR1KlMzHvQNCAffMJ3B6So8l/rlTakqI2Xr9K+BRnmIz1HKrhhdeqsS0lPMlLs6GHSprBkSjADxclk/B4jyyl/eyi88l6QZP/yUBw3tqm7qpH4lM5UuoT8Id3mh21WBsyuBn1KwKD/BxigjLPSf7RCzeteMR1niEQagNzKclcB/DCPbQgxB2yF4gLBEN9tKWrwDKVQJe1fx9INn+XDSp3LwnLNytHK24144hYpXsnzyQVc9Mh4j0QE7faS8WW9CVRzpWpVPjid0KXBxpbFvz18a+QhzkFQZ5GWsaBt1YqA6+yCN1RDlxbPSZvldd0dkudSbgWc8MIDTP6/Zr6AtHApmABqzxps6ahsrH/pO+2hrEwM0tqf+DHqrT/qOLEh0lV6WOeO6Pl8P3/hYURu0JhlkgXooL4XK+CEv8RI+aqUFSY9LvtIO7l1L5HPpLx2e8RVEstIkxkojGYYG+qVLmNyQRRQ+WZbjCdBHt4zfGaTD+9Ba5t0JWZ+u1mtHYzsVfmW9RiXQaqXf9lw1+eZrOpVq++wqwUwxmTWXnVFWXodhDsKHI2QgO96ARMMzIYSJPVN87jE6JqfoDXT3wuQpHmWIAcVFg594KfAMEqD8paFgU4Gm0qegxeXHeiYgKXkKJB0hQSGjTbnLT3p1NOgIImX1LC/0xHHPT1rPDAR1kIaBoM7iUACZXngOqHJweuZaoR0pppzhq2dHcTsCGiBNDsjSD1qfW5HpyvvyWrr007ZWcmyVKL+6MvKc8SAw9FXSFKZtKNe///u/rw0bH1jS9tpVv7hqV0rQiooDmxQAQSWtvPQxQUZoMkTTUMDTeItiJmQJLkYtRaq/pOXk4epNAWXAG5mP+PpMn+ZBS+n1j5m2LxdapRJutsaPIsqVKXVRzxSQWXeGg7RmWcLN+KTH++qZq1l41+oRfvKlQfGcUZF/rkYJV1aCVBoukfntaOjrEl3NJ9vBjFZ7qm97Ch8yLhnjsK+DjNrNGNfeeMlslYGIjrT6B68on35LGgnP2inD0njzjHcoQ3IAz+KDHK/iyFsa/p7loR/0t3htftnP/msj5Wir07333lefXTEZcNDZhCFliDIZ6+QKevoT7TRa5YmvlVHb5RtA4ljNdE2j2LMJjYkOB2jgcXyJt8S1wpDy1nhSN3VIl8DvxoE2Id+VlRMn22ZbkPlIu7uhtS7bWrcdhe1S+Bhy06Z19fy+R4/qHgNWDFlfuSqganahNcPkDL+cUWaF84qmQWUQYjj3mKnViZ+OAMq4noUnDfmUafKePyc/aTNulqvMl5+0GAkyX2HyNqAYDByG5SgRygAdeUDSlxb4J63yuYwD7su4rWFl/NbnVqDDGfQEIoOGgJNmW4BGXuWVz5B5Z16eM04Zrz2Uccq4hBH+IYCdeSBArIbYfsFPBAzok8xPnTiCx9mPj370o1u2YEC/qz/hQjHKg3ByNoPwIjD9Kp0wQp9ylLd7wtnWkD4nAK0eSEvRmxXKx9YBI5fiNFP22//eEiAUGSt4RzgBy0D1YSo0jBH1IFzNUn0JUX6UknpaWaKIzaCUJY3UrDdIr0xAgYN6oK18hKuVEDArpOAoAcaNzx4LV271Y1iqozIrq7EMFJ+ZtLoxiIQpF0dhuEqHZjp+5TNjqXwWzo9LWukyrntXtH1fgCGjb/SZVR/GlHbzzJgtl/S5kr84/cBgZ/ToU23HGNTWlFdOFtRXvSg5s2Z9gg/1sz7FP8qI34RpDzyrbcgCyl8fMEDJBWFopjGH77SlOMognnoyuKZPn1bNfkfX/src1s9t9cDja9euqfr7yrpN/LoivhZPmP4jo5RVH6On39SNssU/6oRf5Ec2WOFJo0CbaE+zb89f/OIX6/TCjUdptbE+UPask3orB6NDW2bbK1Nb+dtQKnz8JizHrvsy7tZQpt1dkXXalnrtaGx362zcaNBsfqiwsXqgGF2hrFN2RmfIToaMz2F0gwTyOZ14eS3TQD67Sp/3SYPQ9wwZlrRaITydOOgREmZZlHzOFjn+aJfpMt+8cmAQpDEBZXiWJ8vEz32GZ5xWmq2QRzoKLq3gpJU0uuo6SlPmn8+u+dzqOvLnpCVgzKZ9ltk+vTb1rXvvl3tjQluXbZPXbDMgpPmZbYA4CX6ELOWp/2ytUKJmugQZQ5DApBz1sXazGsPYINQpCjQoDULPGxMEK8EpT3GAwKPApacQzM71A7oMLmkYC779QGl5RlP+nDKiqYwEr1kroUvhZXuVUHfp8aH4lFYKYfkT8sLVRV6Uk2czQMpNGjSEe8OEoZKfYL7wwgvrXxJUVp9xdlCSnz7y9UaH/9L5FLarcL+l4TsXzlpYTbAdQ0EwehgTDFBlU3/KmuIuHT9KhaJy5TIs79OfEqF49AFo9+T/bC9+XMLXFv0OgW945DmfbFd9JX98QhHjDXXTnvjLzJpBRgninf/6r/+qjQLhVnbUS97KRClrb4rXKowVF/V3cNc9hasOyqHP1eU///PL9ZZD8lBC+dBVJoZQ9h9/defcMzjUgYJG3weJGKX6wGqZ9NrPDN+2JplmGwxPMKr5Kzc62h9PejXZaoL64kOKHQ/jHeVwnwZj9kX2R2doLfu2YnvS7G3Yei+0i2rgVEkt2beRMJCqjupRKZHKCeOX0BHtdUbp11F4+ud9PpdMUfrntUSGtzowaNq7lijjJ8TLAYip855/ezQg6TAYuFa67d1nHK4sY2f5lMi0UMansMxQzE4oFQLLc+kIt44coUYoERaEGsFFWBIshCNlTXCZKZtBWDZNReHqlTCKgrD73ve+VwvRb37zm/Hf//3fccEFF8R3v/vdmhah4ad03/rWt9Y/hkLwlG1Romwn/ZHbL4RvGZ8A5M+oUG8KUX8QVNKLT+Dxp9QpQFfCzr30FDoa6Z9KNmm7yhM9YeITrgQhgalO9nOF+zEls2ozbsI2aYP8LKPqL5BXzpq4EvmcK1dAUXhmMKgjOmiLqy0ZAOJ6lpd2S9rSUSLagWBnrKDDACLklZkBxABTJ69BqpevGHpF1IzT1XYKpw89e93W1TN/z64OXPpmQHuO4cG5F0989H2/4n3ve1/9uuEHPvCBmi6FVtYjoT/SlVA/r7aaleJJSjfTaXvGiXY0+6cUKT48rS20nXY888wz6xUYM2LxKEvtySjAC9rSTJbxpH34aVMKUjzGnzrlqor899tv/zjttFNrAyShXuna6tImCyHrlmXP+iuDMaq88mPcqrPVCeXAT+qeBqUwcSl/RiFI596YEk87oE0GGKfGO1niqn3ID7SzLFnGVrTXHw26D+33wlagD3v2NLtqU+wUfK3sC782t2OQDJHMUTIJhiqf24PBkWgvXmd+rWHlYJM34eyaebhPJhenTJ/3hAdr2zMhnPHKuJDPrplnWZeuQjplIljMVihiMww/MuLHiihaitdshWImzHycxWysI4eGfUmOovIFQwPfrIEz8Lk8Ec8gsHRJyJjJEQqMBoKBgjVrJVy1i5kfo4CCpEDMJijWrAfkFdprE34Er2VtZQVpUvCYFWkPNBktrvqSsJMuw6DsT/6APsfYA8JNWtsM4qQ/44hBJS7laclUfpy2EKZtKD8KgXBWDjMrbUHQWs2gSLQVZUTJWCGQJwfKluXFU/rZMjPlQYgrlyV7hpY+0cYMEYrGsrJZZ64aKL92QuPLX/5yPaunsM4///z6h58oLCst+oZzYJLRQmm6T+cHibw54XAkoyC3E6ykMHwomVRCDA+Kh6P02nMZVsbLe22fV3Uo28Nz9qGrunDu0/ihxLyuqO0ZoPoFGDnaRnztpZzqgbf5QRp96uE+/dGirLMc4lCa6s04lIf+Ez/DpJGPdrJq9Du/84naeMjy4yNxXPlJpy2tHCSfcZmne+MKP6W/NOpBDnnW38IA7yTvp5OPq7Jmeymj9lYPyl8d9LXtMKsIef5EXln2VqCV4wkynrwadA+289CeAdR27di1AaPZpzGwLS+mwG0PBD/hQ0gSyASczi8HUKJkxHSQTN36DHktGTDvk+ExdZlWnmU64RmXcLZMiWkN4owH4mQ8/u4znAJ0OtiMkpDIeOiX6VqfXdFIl4NvaxAn4xnkrHJWvgFKEegXSs7MiHLgLFObxbnaX3ZfOv7iGeCUBhqElFkr595hOso6HaFvRmimzuXsMP3zXnpKwWzUqgHFl0vRWedsk2yL9tpBv6iT9rY8akaPryyf4i1tIA7Fhp4ZijopN6UoX/VgmOhr9RSHglZveTJ0CDY8q2zqRehTnpS6e4pJXtoMjzN8CGH01AsNdeP4UT5WHghwwpNfLr0qLwXACEBDf7oK5wA98VIBUlDGnz7GbyBffaZv+Zmtm72pE6MCXzPg5GP2SqHrE3Vsbe/22h6SX6GjOJBhrp3FS5TxyvjKRt4wpChBfcmPA3GTX5SNP8NTWxiL2kg6q1L6mDGjT6y6iEOxkQeML4qcMYk/pTW7Z1wxLq1CgH7WttpVPCsBlDjljOf4o29Lw/aJlRPlkbd+J1MYjgyONCbUQRmyTq5r1rSdEdDf+D0nEYzoXN1KY854V3Z1UlfxnU/Rz3idMS6u8UpZk934Ee+YFPDHM2ms4kV8IX9GoHGA5yh85ZCnMrpyJcTVRsa7skB78RrsOLyI1/J0SsfOONdxBiCGwrwdKfwcgOISNGaX4hP4Bh+Bi6ko/lLQu08FnXTdyzfDE54zXslQ6Q9oGUzCpTXYPKdANeD481NWApFgVS/WubDMGzyXeXrmgAAxkNICLstUGh3yMkDlk8YGP4OptS5bQ+ajPQ18P0FLCRlsnDYn9NIQ4Vjwed/qhLXnCLbSqSuXMzICgSPstCmnHTh9LF4aH+JTQFYS9EPWQbyy77ItPLsmP6Si86yPtJsyqbcZt3orMxBkhJ64ykvRagvx3ROKaFD20lPKhDwDwTMhnfUUBz3tTJijw6GvPOIynNRd3FQ2eEJ+eEq4MnKWV+WvHBQDQWkflkDO1ROKSN1TQVBI2lH98I+6e0YPDf785KvcjKJcsVFWM3PKXln0jbZFJ/sA8toeMl5HcToL2x6gZVxSoOqnrsqbPJJ55bjETxSxPtX+2kI7axftQIFpR8ahtkGT0Wh1hAEkPsWprfQnPhWWZx70i77EB5bU8ZV7Ky/GMuMwy8tgEMafgcq4Y8y5Hzt2n7pcbW3PgHmev62qjhjR9haS/k8Fz6inlMkKvKmOjAzjifFKtuFLbYFf8AC+VBblY6CCcuMXY9GqoHyUWRwGEH5kGKNJcRsT5Ii6KGNnfaxdWxV+g+7Fi1D4W0cOQExrQGGiZNQS4mFSYQaJgcO6puRZqZaeWYwsYoxK+Rps5UDmh7mTPj+KUnqDiILoiAFTEXPiY2C0CTmDjgGS+20GDrqeDS4Mr1xoqyvrnSAhIDxTarm0Ko4BozzuKQbhyo75peXUzeCWPumgwV96ad23V5etwRIlJZFKTHp1baXTkX93IfPKPlV/glfbUnzayuycECOE9BU/hoM0nluVEX7gRwChQ5lSmgSYdKCP+aWho31BX/NPA0SYNtf/6ImXsyGCm9KmNLNvlF0+aeCgA+75o6mc/PUFungh+1U8ZVB+ECae8ibQJsw5wjqNAbwmnZm9cgCayuaKhnwAvxO6DkZaXZMPRcBYIOQ9Z/tKnzQgr7sLlMdYofi0Q87wk7fSeeYoRZMRfEKhak/tRlmJRxFpP/1gzFNmxqr21udWexgA8sIf2lI/4lf5ajOKjNPfabCjrb/kKW9p0jDDQ/hLHGETJoyv5KZXOlfXcsVsnkwio7h169ZWfDGszlM69efExQ/aQN7KiO+UUZ8yMDIfZeH487Pak4YnGYw2nvE5ZpMEij6NXv7azLPyGzPSppxCvyMwEvCe/LRFg+5Ht/8evmUbB7Ioe4duUoCVyCJgZIdmLA/93u/9Xs1o7j/0oQ/Fv/7rv9YzDsaAmb+Bg/EMtDwkgvkISswnDoGM6fKwkdmVQZ1MmAMfLQ7zEQIGvFmwmY34n/70p2smZoSYsaGrXpga01ImTvqa8ZsdGWgGt7IaWAYcy9+gtoxO4TrYZpagTIwcZRTPiV/x/HiQk83q55nRRAA4GGUglgbMtkA7XXjhhTVN+Wd/oJP9ULbPttLfXmRe+iHvXbVjXgk4ho/2cq/99TUFpe2yLuKjk2kpN88Z3homL44flErCPWQZ+AEFoB/NxPAhgZnGQqZJJC3XfIakn88lMk0JfulftpN7SCXOMMIrhDchDuKpvzTyxG94Es9TDpSSdjROjKGsQ17VPdtqd0S2hXHrrQCrLr7RkO0rLNtK2wDFSGnzV2+KF8ShGPGUOotPsVP2KWNc165dV7Vd25f69P26dT7B2/b7BWbelHGvXm2/fYEG+Ya2tPpF2fjzEwcdfniL49+/P57aVBsmS5f6lcPn+155KPJjjz1+Sx76Mvss+7HkE2Vwrwz8k6flLdw1x0b6u6LrUOQnPvGJWjahKz6In7wvrrTCpe0Mxo9tAocvbeU16H68UDLtYGTHpyDqDOImzHLNNgh2CtD+LoFqScoAxayWM329yrM4BBhF6GpwUrwUMwsXE9oqsFyVgz2Rg0c5KVWDSBpC0z6ugWngUPgMEArTbIhRoFysf4d8CBo0zPjUl8AxuMw2csnK0lkaKwwGA0X55cOyp7wYCPIicHxtjcXMkmYYWD7UBlsbSJ1BGXNQcu45KO+hvO9ulGXIMnLqyulzCky7OuDmFT2zAkLD619WYbRlIgUZl32c9dU/BCSa8sr8UrhxZRnyWTpX8aTXV5Z9zYIIvAwr07Tn0BHPfcZrTZPhrS79XZOOa5aNw6ccBZZ+HPragBHt2wAOV1J0jEgH7nKWpm7il2VwL/2eAHXMPk9k/0O2s7oyfLVVzu6zH3I1Tzx84tkYTsOA/8CBbVsB6JATQ4cOqZ5HVLT8YFfbisyAAW1vgAhHQ/xcqUl/hkXyj7zdi9PWF2bQfgDpgLp/Djnk0OrqzMzESq5MrmTVIXV/Kbt00siHQz/rA57VMw0BaZRDemE5Htxn3yesbtjeYSSZ5KApHSffzAOkK9N2hCxDg52HblX4kMzTFeSAdBiEsrd8i8n/6q/+qmZUSpsfZWygUKicWR8DQF6UK4akvHMwUxKYy6yaMZDApMmYtgosV1kGlQdjAR1lx9QGiTJYLqXUKRuDkiI227TM7DkHMIOA4lYmikoYY0R5DSx0hTEgKCpCBH1LqQ7GoClMvvLP7QyGBWu7FGbbAvVFrysDclcgBVT2TbZT8pEr48jqi1PgXmVieDGmrAI5DEkoScslreTBnJWkX8ZLl/lkWMYty+OqDfWXftV30vHPuFwi70v/9uKUz+0h43DySpflzfTqWNISB79Ycfqnf/qnuo0YKZS8/Wb7z+pSlj/vE573FKh/GvbqnXXKeum77Gf3pdIrn8XlV7ps6z599DceEgdf8tdmybOle94gy/RZlrzn3PPjynBlYfSPHz+hXj3kDj30sPrq1b0sa8ZPJI30z/vWvPK+NU8u62w7wBsaXr90X7ZFpi/90OoKynjbK9MadB3dNopzoGEESEHbHjJeMhtFaTmOQPd6DyVu5k1hOuVKMfsVPe/emgGbZVGGn/zkJ+uPXbBG7a8nIxLK4lH27c3wOYOc4jV7Zx2b5WP4FJ6cZ/lQxsoiLIV9Khn34qk/mgnpyuU7cdHgJ18z+mR4dUUHKPeyzAQzixo9s9jtAdryLwfbnoTsD+3L8HJS2CtnZqpWS/7xH/+xfv1MPyUPaFtt3xWIm33REbIMuxJZztayei55w8qWseGrg/ZL/WSwFZLcstpePtodkf2iz8tnaK+tQHiGZdrW9K2uCqnDoaSbNNr82gyltvgvvH+eTudojc9l+Up6nSHTtSL9OwtLmHiYuNhCYHCXacuycGV7dIaMD12J3+DFY6eY7QRtV4Qtpkkr0Sw59yApN0oODYqchWnpisK0GmCp7Xd+53dqI8E+OhqY0kzdXph4lIMZPzqJZDL5Uri+FmbPnMLnZzaeipWxgJYyYX7nBihiS/Ti2//0jIHFVwf0KW9XZRcuTFmUEX1lAu++W5WwV2c7QzkIZ8v4lv+tKjB8WPXSptGwPSj7Yk8ZaK3lVHf10N7aGk8wBj/ykY/Ur0WZ8X/qU5+qvyugPfWftpcGrRRMKXDAfbpEed8RyrKVbbsjsS39pD3wre0fn+215YRvzNDM6q164SFIutpmW/LYnaHPsp9b0dqf4mQ8Yflc+ncEpFrjtabJ5zLfrdEt0Ro3y9gViJuuFa1haLb6JTK/PFeQjn97ZWmPRnvIOF2tT4MXj247pZ+dSeFRZJSi5e/2lFQyG6XrgxaW7C3Dm5XnDA345ycuHa6jCM3w7EkS+Byl6gQthUgp2zMz02MY8GehtpZB3owCeVsdcE9hUBIEJeZGSzzPFLZtBHk4Re8gn/1c5eMocQaLA1EEKUVteV45HF40cNBXFs/axizMNgKDhJ+6OLfgUJi8zPTNZAlr+Wcdsp27Cm0nLzM7ddG+ewqyrikgSt7gp12s5tj+YCxZpdGnjCi8Iq5667dSIbhvD11t29Z429onXUFZ9ywvP89ZD2CAMnRtcVntwFsOm+IdK2faSPxsOw6dvN+ToR5W2ow748d2YPK3MK4jZFjG21r859HW9mX859P/Kt1Eed8ZMl2Zfmtp9W9ncdoLS7/kpda88EbyDL/SbS/IRLLIlhI5/mJoNegauu2UfpKlaB0QMvh89rI9BZMCjBL34QozX/vYGMFsGihOytVHRTAKpWq/2wpAvn9MmFtiN+On+Ak+V0qAAiYE5GX2k8Itn+Vjz54itv8ujWd7nWZD9j8JT0qE8lUWytNKAsWtvpbmHTgUj+JWd/X1LD+GhDK6lyfFI70yMi7QkI5/Mj9/QEddpc1BJ/62DhJlcoqZ8KcIKIA9DclbWfd8zqv20a8cBYivKH4Gl5WhNNDwhDit7cmlX+axu0B5ldN4AHyhjPqV8GQgqjMedh6FIMU3eDjrkvV8KSHrZFx604fscJrcWOo+MLaeXzFKvLBt92wjqjtBPjt47e0tk7EG3Y9uV/hm7d/61rfqQydOV3ek8AkwCpQyNUjFo4xyRgIUozgMAkIsT8vyN2uWJge4QUepCkt6rH9M5uBbxkObY0BQBAQjmuJLCzmA85ppOH4ZN5VEifJZ/AT/1mfpE9qkhPCkVdLcVjBIfECDwrfnvScqfMi2b0X6u6bTlpS91RdK0WqNtqb0bQMwyDKutMKyL19MW3cHspzGABgPZvLeVgCrNlbSGKH6NuuQdXqpg8L32qk22BkKn8s+gV/lmUbhdwQHnVPhm+A16H50Ozd2RdhkOAVuFm62TaEbrKn4hFPGZsj2t82Ec3BRuOLzcy8uf+lzdgPCrTT4iI/ZDyZjWTrlbalcfA4NA1g6LmkySjj3/NI4yDJAPrtyJbK8pX8ZV13bU/QlPJcCZlshnTq05rMnorUNPGf7QLadq5m9ZX7fgfdjLd779ZW1//iP/6jPTzBMs+/1hTSZfneBeqVj4FL0X//61+tVr/zOhQOteDnHgr7O9sjrSxn6LMdlg90bKe/2Br7cXdDto0JnpqLsDClgUxGl0M37ZAp+nlPB5gAvlW8JfulvxmNP33InZ6+Xc8/QIPDLPBOZZ644pFJwla9w95k+88w47V3Le2mSBpf3ZVi6LE/ebw9eTNrdBe21QXvPre3MqHQ2wgeQfETEAT9bQv/8z/9cH/CzwiSeFRsO36VQ2llGUmt++axcVq2cY/mLv/iL+geGrFB4Y+UVr3hFvd3EwC3r3GoEv1ShfbKNSoVftmXrT3onyrZ+Pu6v9rWwF4JxqU3bXP5wWFu0tjBpWtOVzxleuo7yL1HGT7Q+t4euxGlFZ/GFKWtJt7yHfC79IJ9b/Rt0H7pV4Rt8Bl4qxY6gw4Un40jj6jmNhRS+6aCk6T6fpS8FXKZJoyPLRBCmMMz44rU34JJ+0swrtPqXYVCGJTJeuvaQYWVddiSyHV9qKNs070unzxlujDwrPR/72Mfqn1h1+POv//qva8XvPEZuCeU1+ai7oYzyka8zHK62oxw+/Pd///f6J4Sdv/ijP/qj+nfcbUkkH+NrhmfyDOf+pYzsF3U1xhlt2qwKqf1TrrSh9fl5pF8pC8CV45fwnHJCNG7Dhrb7qgcr/+fzLl3Syuc69ma6Kes4YclzW0PGQSfLXebRel/mk3lxrf7y59znGEjn2SpTxnOfLsPyPuOU/lzmmfdcg+5Ft35aF2kCy6d1HR7yO9YEUwlx0ulwjOFq0GVcjEKI8eeXjJEz6nIgAlrJ+MlsIG0Kxo4gfqbJgZ97oS8F5KE9rxf6tK4Z4N6E5I2Evk7ew6t+Se+SSy6pD1hSprYBrALl9xbwj/hJZ0fzhXLgd1dls9XgY0/edHH40HaUw6q2KOSd4yR5dW9F9om3MbyKOH78oVv28KuQ6Gn2rb/quFI833fSQT6nfNGmwjwnfXDVNyBMOs/uU3551o+QPCOspJH5lfnyzzDpXDO8BL+kBZ4z/wzLcnBZrvRLpF/SynRolPWHzINf6Q/uc2VFvEzPydtZk8w303v7iPNpXW8ySaPODboPO0Xh+711Cr+jU/pZBAeRWHsO3lBMTrCLLy3FhCHEIficsOafg6IEevxcHdZyOAQc5JGuNX4JacwQLPM6pe876QQ+xn0pwKE9H6UxK6TwLQHvzUgBBimQ9T/F7xsI+DAPwjnYSdGCeCnQdiRSUcjXa5peMXNPIDpr4lXVMu/M37Uzvn4pQ3tw6j9v3tx6BaRHj03V2D0mevayPbOBeq/bSLz1VRtv3CD+8wo106fL9kz+yPuSX/QVeaW/8Ix7V8aiKyWX9MQRLo1nyjG3X9znVqGr1RzOViN5JVyenDhZNg6yfJDly6v80mX53Sc9kBbdXBni71m+6cTJsARa/DNOplGH9EOTf5ku8+bIeFtR3orKejXoPnS7wsf4FL5X5TpS+CAugesUtUNImN2syutUvrZn6dUAoojNduxdUsYYhGutRvpZmr3gggtqJvdlPqfT24ubwMTy8XrgNddcUy/1OtyXTMthTHCfaUsauzMahf88kg+SV/BIAh8wLr2miSe92cHoNLv2NgfeJNiSFxJb44PkoVZk3l6p81lpBgclwajNQ6XKlELXtRSkreXYW7Fs2dK45ZabY9azM6r+ansDJWe9KXs2bqD4yI1fXfFzn0pKmmxnyiv5JNsf8jmVn2v6cZnGNe+lxUt4KGnL09V4JN98NIncowzFSXriZNk6gniQcVqfWyFcWFmnMm576fiJl/VWpkR7adsrUxoeZX3KtA12PLpd4ROaXsujaFtfyyuzdk/RWo4zw/dVMAzod6kxlRPIZjqEIavQqWTWr3Q5yNCWJp/dW2FAk8X83ve+t963TcbOK8YrGdfVgPP6mr1SxoY4LHR0DTrCHpJB+e0JoFAofDPVZob/Qujb8gru8ZBVJcam99zxAiXsDQ8zk+QbcJ88kddWehQQSIPv0NMvXq0j7PGSVwa9S+6QaW67lDwKSb/B82gbp6tj46ZKyVfP2qhSlVW7u+d6ti3vh3H+qzNKz+mX961xOkLZzyAdv+y3lDedQXxfC8UL3igx8elq/rsCWeftKWMpp3fnOr6U0O2/h0+4OWzkdbrOvrSn8yl8B6csY5pFmdWY4Qi352w/06yHP1iq9261VQTv11u+F0d+fvrTLJZCQ8/yPKHql/UIBYKU4JTeigLDwudrpWFQMC4MOq/xiUvg+0U2sz2npLNMaFH+ewrDMsDMHpXZt9TNLBq0QR+2OtBGXgW1tO9DTGZm+MsvMmrPXOYXP4UXfuYgBVvp75ljTKD14x//uOZF5wZ8IppBm8uc+NQ178uyNXghtJH+6ls5vzSXru25X/TpbbnZbLptFt/qsp25bW3njN+azj16+jufO4N9bV/8JAPJoq3F35Voreu2INtld67fSw1bNzlfBFKoUYop/DqCeJSzT4BS/OwQv46HGcykGA7eO7ZakN9GN3MXj6C09PqlL30prrvuujovit1HHRIO8xjQhMEXvvCFeqvASsLll19eW9F+65mSR8NgA+VWLkL9y1/+cj3Tt8RvWddJboYEmnsScnBl3RpsHcm7+toHbSjk3/qt36o/XOQnZr3Lb2ZuFSmXj7OdtXE+p7LX9oxUq0if/exn62/de63O70FYOWBgthqRrTSbvusMZtYUbJtrE3NW4IxVbditYu9XkP1V9mFnoAT3NLnSYM/ATuH8rTG6sLSufUP/j//4j+urXz3zk6cUs2VN2wJmWuI6vOQgE2Xtl7+cyM3fjc97n+AlgKV12tqv7xHUZu0MAwrbqgABa3vAloPZO4NCHhzhbCkXLTQMXOcRLLtKv6cK3uyTRnFsHckL5WyEQmac/umf/mn9gzRO9nuX30d8rAZR6Nm20uBDW0JWmRgHDNevfe1rtRH5mc98pp7ZWwXDh4zS7BvpXJNWSbNBx9A+6aqnNs8Kbe/Gb37YSUi+yb7rDNmvZZ83aLCj0O0KP63VZORW5KAUD4ObuVP2f/mXfxl/+Id/WM/ECUaCj5JNOjlDzb3zpMOfk6fZFL+cVQFhyhhwzR/KsU0gjqXaPMWftLNMZv+EuHKKZ+kfshx7Csqyus/2bNA+9Hc6PIVv0mk7PHLGGWfUxqnflrc877VHvzlv1ckhSTN/BiMjU5irrQEfz/HhH3T1hTwyT7T5W/XKZ3Bt+mz7oel2ZvOVfbUt/UaukEkNGuxIdLvCJ8i6ohDFoXztv9uHJ+wcKjMrt2xa0hBGCOaAMJBSACfEAYaCeNK7Er62DByKovgpcz+5S+kTzl69soogXSp48Sh4ZTMQlVN+9tjKcuwJ0EalAmnQdZRtVt6nMelU9e/+7u/Wb4/YQrIlZVvJzy5fdNFF9UqRVSo/4fvGN76x5il9gVcZDq7oZh9lP5V5Ndg70BWZ2aDBtmKXKvwUZKmMKVmzIgfoHFxx0I6fD/YQiJZEOUravnrOzj27F0aZc2iiLzx/Jc9Sq++nO2xnr9SWAOfwn3zNzsy4hDMM0ETbe/j27h3uI7T9cp7Ps1L4e6pA3pOMlN0V+r3VeLLUf9ZZZ9VnQuz1245y+NPrVR/84Afr5X/8lWOipNHKR+35NWjQoMH2oltP6YPZjz3LrZ3S58xwKHLLn5S9WZL9dXvrwN+eu5mRfXlxnJB2kMpsnJKm3C3LU/T22inr/Ma4mbyTz75WRuj6kR6KW9kYFmZf+ZO84juVLa1nbwaY/bt3fsA5gHwtsHV1YXeG9vVGg/IyWCioBtuPUnGn46ddnS/B/3iV0erEdc7cy3HA+Mq0DfZu4B3ffGAokj/5RcUGDXYEuvU9fKB4v/Od79TL5O19WhcUgWAkBMU3U/eM0QlOzj1/CgsNTlxpKWdXz/ytBuQyq3tpKXSOcuaX1ZZnri5AhqGTZfAsHr8UzmV+HL89AbZLfF9Am1rNYLQ02H4kH2X/e05ewhfeFvEapBUivJW8DJkW9hT+adD9cG7JG0m2iEwyGt5osKPQ7Uv6mLWczbQHcTgCkEA0EzKLNxt3QE56jmJn8VJS7oWLK41n9+J7duVSwQuXTlgq71TUrmZhXOaV/vnMQYZxaImzpyHrUiqcBtuH5IWEezxX8pYtJm3euhKUaUu/Bg1SxjRosKOx0xT+1hhYnNZ4eV/6UVKpqFyFcelXxm0PGb8zl0o8y+PaijL+ngZlbpT9zoG2zvMS7fFRgwat2FPlSoPdHztFAnWFeVuZvFTsiVTwibzPuK3xE1sLhwxvr6ytZQNCXPwU5g0aJJKPSgfJMw0aNGiwK7BTFH4q060hFWhe7aHnlR/BmbTsn9vPh1KQui9pcCXKMEutudcP6Gc45BUyjVP7Pp7iuXQZp3RlXrsbyno22LFIBQ/Js7sjDzTYPdHwTIPuwk5Z0se8FHQrSoXj3il7nxv1ilx+qcxBPf6+Ye8gixOsnFedfHff63sGBsWdBgLn4JRr5uFahvlKnrcHKPD24rhPl2lcHcDy2mAaIfwy7zJ+0ijjZdwM21XI8uzKMryUoV1T6bvHO57TNe3eoDMk7zRosKPRrQo/BRsGJvRaBV3J2BQhxe4HST73uc/VvxjFSMiT+d6B9+18iv/666+v34X3/vz3v//9Ol0KVlcuFSzDQfpS2Up300031a/9peJLZ58106eydk3n2SHALHOmyXRlXEgBn/Qyza4a1Jlv1rvBjkfZt8kTyQe7su8b7BlIPmnQYEejWxV+CrbOBFwyNwXkBL5fcDPD//a3v10rdwfovPvu9++9++49e/4+TXrmmWfWH8vxm/dOzHOUsTScT+f6Nr7373MAEb7e3/cDOL65j7YwZeTyYFUqcEaHsqHHz6+Y+aET96nE/coeA4RxAui4t1qhrL4dkPSyHLsSyrc7lOOljOxr/Y4vobNx0KBBid1FVjR4aaFbP7yDYQk5y+8Upq/aEYCJZGhxUhjm1+1cKUyfKfW6nWcfo2AQ8PdsD57SpfjN1i23+71yStpreH733bfLxfEBHf7K4hktZfFqH2V9ww031CsFlvn9DK7VAl/mu+aaa+qrD+/I03fQGSQ+iiF/n9tlWEybNq3+ip8P/cjHu7T2+mfMmLHlN/x9iyCVQNkOOxMMESsc2sCPAWmnBjseydO2nBiEvuyYr+XluGjQoD2YkOAbkxoyo+GVBjsK3a51MGvOjoGwo2xS6CUzZzwwkz///PNrReujPbl/joav3PkOua/i+ULe+9///tpAoIjN9P1Url8uo3TR8y6+lQPK2jI+g0Bawtd3zhkAFLOfu3Vvxu+b+hdccEGt0P0ev2+iMybQUyYGAfpm7559QZBjOKDPaHBl4PjMqi8E+hne/GiQunO7Crsy712Nkv9cdwbkZSWo5PsGDToCGUE+7apJQYOXLrqVowi3FHClcC0VfQkMzl8aM/v3vOc99Z6+3wtPBW551A/fWI7386Q+X8ogoJjNuil4s20DxmqAz8ei5QtzDv2ZgedP6EpnVm6Wb6uAO+ecc2pn718+fsBHnpS2WTqr27YBY8AnauXrM71WED784Q/XnwJ2IFA5fDzI532Vw7aCpX1Qv12JbONdXY5dCfzEdTfwdPJ1tnuDBp0Bv5B1DRrsaHSrwk+lbnaTB+c6QykMKVm/c/+ud72rnon7nfFMj66laEodXfeUq6V1ijoFq/gUs2VsM3w/cWswCaO0KW+zeXHSqhYmvWfp8yCgayKfrSjkKX/ltexvhYBxIS8KRX5WIoRLg3a2y65ClmFXl2NXoKz31vhxRwAfJU/uje3dYNuBT8gUrkGDHYluU/jJrCnk8pqMXLqEOKmQCWNK0vfeKX4K3z49ZDhHcdsjNVPPfXJASzhlzuAwi6fQSxqcGT8ljU7OxAhpV+H8QDgnjB9ajAxbCZby8wwBRU/xe7ZVAAS+svm0785QMp0h2zjrtzdC3fUf/upuyMvZENhb27vBtiPlU4MGOxLdpvAJuoT70qVfCcxNMVv2zpkz5UhJ+qnRs88+e8tsmitpmdn7kRIn8qdPn14flGMAEOhoUcpm18cdd1y9DO8nbjkzcH4UIBoO8jEQpHdPkdujp7ylQ9tbAa7CTjjhhJruJz/5yfjqV79ax2NwnHHGGfVv6Mv3yiuvrMvoF/pS4e/qwazddmX+uwO0AeOtu9G0dYPtRcM3OwfZzq4v9Tbv9p/HJfAchqNcJ0+eXM+S0z8dUPaUrlPvlsTti9sPF9+SuP15s2SzZ345U9ZBlvQJb7M2B/78XK64fuqW0pfe8r29dAo5Z95Oqfs1KunkZR9evsoiPz+di7ZDfug6MIiedOLyQzfLxwBwDsAhQXQZEhlf3rlywD9n2Tsbtje8ZaA/nGVw1qBB94ERyLh8+ctfXvNCyfMNGrQH54UcPiZjyJOGX7oXdIg2ToVPNr9U0W0/j5tkNeSFF15Yz879RGhHr4GZKYtD6VO4ZsOYnZKk3NEx+86ldXFSacqLAuP84p1n4ZQZutKLy9/Vfj4aGZ4QlrM+98KkYRAkDVdx0OfQUQb+8k+kUYKGfNyLl0BrZyL7Q91/+ctf1m39tre9bcsWSIMdB22dfW1F6Ic//GH8f//f/1cbhhlW8kKDBiW8/WO18mUve1k9kWh4pXuRY5KMdp864KWInap12mNcDZwNTjE69e7kvRm3hs8OcKV4KcqMr4MSDAkCVVwzKc/CPWcHSsdPmDju0UuX5ROP8hbOj2LnlwcPzZJLP4aI+OJy8hMOyixeicxnZyHzL6+tZWrQfdjZ/d1gz0czPncecnzSAakrXqrYKQq/M+ZNJamxwdXsOBU1l36UZ4blM3jOTiuv6Z8dmelL+sLKOJk+88xn4KcuSTvpeeayTK15Cct80m0NO3LAl/miy2hxTddgx6Ls39Z2zn5o0KAVySOuJhC5wli6lyrIpFa51J7bmuxqz68VZZyuxH8pYacofAKuVKbtQVgqzFSS6Z9XSrPVpdKG0j/TlXFcuVTE5bOrNJlPhpX3ypblyzz420awYsAvXdJJmum6AkyYA2BryLhdZfQsQ6bpapkabD+sAMG28ECDvRPGJbkBuYqYfPNS5R115FLeqaf7Uq6V4dol7xPC+afLtO25jJ/3exO6TeG3MidrVUd0hu1h7DKu+xwsnfm3huU1XcbFEO0pbS6RcaFkojLO9qA7mDHLhLa+6I48GrwQ2jy3exo0aA85DlPJkSkcfy6V194CuiJXNxKlHM77VpRhXLYd1xHao/NSRrcd2gOkNahftPOluQ996EP1+/A7G1mOPQllmcsuau0uz61+JcowjO+dcL8xYNb53ve+t34roUH3wRsq//mf/xn/9E//VL85ok/3NiHToGMYn/jB1XkgCst3RXwG3Ou9vhSacV5KvJN1SqRiToXtPq/axU+ie9vFK9Nkl7BSuYuHpqsD39rNm1IOJTsbZhVWvEROeEoaewN2yil9p5R12G/8xm/UB+t2JOSTSzjlvpdrzqw8Yxon1H0EB8Nkh7tmes+c+0QyQvq7lshnV3HRcqjPc6bhpyzyzUN+ZZyy3JDlAX6Y0lYC+u6FoeNqS0F6LpFpuNyOyK0HkPfpp58er3/967cooQbdA0Lq3//93+NTn/pUbeymgGnQIMd/jntXY99Pgf/iF7+oFdYxxxxT/1IopSUsx3Wmc7+7QHlKeVkiy5v+rmQSZB3IZh8ve+qpp+rXEv2AkAmKcPKP/CY7ffDMd058tpz8Igd98My3U+gZdBzM9kE1clW7yc8bD16P1q6u5KG0wspyl+Mzn7e3naWH3WXMd+sMX2Oq6MUXX1y/msfy0hGUE6WjM0CcVGjpQNHKBnf17D6ZRR7ZaankhenkpC/cMyWZcTIsq+8qHhhc9uTt1bvnGCrer8dE+RYAAa5O4mEedZB3nglI2uA+XeaTKJ+znnmPTl75uyb4yyvpCktaGb9Mk+WTTnmzzJlfgx0PH2z67Gc/u0XhQ9PeezdKOeCKH8gnH/Sy+sZI9DPcvv/hg2Jkji+OmvGTQ8ZvpnXP7U7I+uW98rmmbFJf9+Sxbw747ZN77rmnVvQUvF+WPOmkk2q5S6Grs/usKxmW56i4VOgcvQJ5z0DwCrJ8yPwbb7yxfu1R2/o+CmOK4eAV8DyHpWzKyGX587mryLrmNeXxrka3zvCTtMb263EsLwqG02EJDZpKMhuWK/3cl52cToNmp2Semd59GZ7wDBmnTJOdLX76gWdlybTZkVnGkj5kuhLpV+bfCn5ZJq6ku7X47jO+ZyjrA2XcRHt0G+wYUPj/9m//Fv/yL/9SK/zWtm+wdwIfUFQpn3yvwazeUrT3700uyBVx/Lz2tddeW8/2X/nKV9ZhIK1xvbvxU8qYdKCMykv5mrn7iXM/021W7mNqfuDMh4bM3nMiom6lTkiZm8+tKPOCzJ+iR4sBwDEq6CSrCcan31Px0TQfalMWH1gj1zO/LMO2IMuChrQpf3c1dorCb83Cc9kp4Dn92gtLuOefNMqw9IdSwUEZD9K/FfwNMh2eeUGmby9dZ2ElSnolnvf/1Xb5Vfwq84tbMmeJpNNKN5+hvG+wY0GgfOYzn6mVPkGtn3aXwd9g58P4y/GbysDHxr785S/H8ccfX3+R0Wy2jEseUY6XXnppvOpVr6pnv+RThu+OSHmk7MpI0VPyfknUGQUzd0rW10zdWzFVJ8h2SQeu6pt1Tv8SwqAM40fhp/Fk7GW8XAHQ/n7SXPmsJugHX4XN7U5ptnfMtlemXYluP7SXaK3wi22IjtJvL90ynftM/2LL2RFa6W7aZICU+XpuNWheWDZ4Pv6vljP9oDUelHEbvBBlOyVa2769NgfPGUZQO7D3hS98oRYgILw9Oq3IOB3l21WI3xgZux5lP1Jq2S++fGkZ3yFaHx0rw13FsfxN4duOfOtb31ov87fy0a6EsnIJ5VRuStaM/tZbb6331/1YmZ8dp+jTsEnezPRlnbKO2R452/Zcgl+ZXri8fUbddkEe4stwSJqelZfi1w+MdIf9/Ey68ipfpsn4+bw1ZPzdBd0qBbJh2qtwR/5dxY6mW6Yr028vva2hlW7bPYZtU/zcpk0bYmPlqmHvqfJrYyBoLVMrPUi/0r89vwbPQ/sSFFx5z6WAKP35peOf14R2NovIsI6Qacp+4Wd2Ih/36TKszLM1X8j46RrsWpR9m/f6xczSPrKvi6ZyyWuesbHMLY5+Lnlvd4YZ9L333hvf/va36/o4JOwsgr1zyl69KHBtkHyevJz8jAZlnGEMH1vD/DOee/45TtCSxj3/Sy65pDY6lIFfOmnlz2lnX3m1nfK6172uDnPY3Fa0e/FBmfO+KxB/d0K3zvAbbAsq5q2UeyUComePNsZcv8Hv51tOoqAr22yTMwtts4JkvN2NofZ0pBDRxkB4ZHsTLK6EA2h/rhS+BIw9QXuEBBNh/j//8z/1rCwFUaLsP1fLifYw80oBeG2yPLAk78wrZzuQ1xLoJ7IODXYPZN/ok3/913+tZ/Zvf/vb64NjwlLJ6Lfkwdtvv70+2PemN71ptzwAqszKYzwos1cLv/vd78YHP/jB+nAcvhae4yuVMj9X6fjj64zDnwNXP65mPPjhMuHGQzn+0kDyzMnjL//yL+Od73xnvV2ChrJlfIZUWaZMZ5/fL506W6H8fmiMv7icuHsiGoW/24DCb2NEDF+xd82YbQq/crUR0Cj87oY2zXZN5exZvwDhYmnSdyX8qqNlQEuGTlMTaPkLi+JJR2GbmRHkBFW+mpeCJWkyDrxahJ6fdJZ3xuPvJLNl3Ne85jVx1FFH1Xmha1aCbgo6eaYhIK1nKI2DBrsG2RfZD/rH/Ze+9KX6+fzzz6+3fZIv8gpeSbvlllti7ty58e53v7tWVPp0d1I8WV78bFn8a1/7Wnz0ox+t98P55bmoEtLY3/d+vZ9G97qdQ3Pq5UCfX5uUxtK6vX/nYc4666z68KIDdpbstY20+euoxoKfNWdsS/uNb3wjPvzhD8e5555bjyVlE98YcxCS8ZDjxjUNEfJXHdDzDRnjL+O11mNPwS5W+Jl1Xlsb8flnjLE7MfeOB4VfKYmqnj3qGX2PiuFYvJU12aONwfSU7nKfzz16tLad586YUVhn4XsHsh3zPkEwGfBm85QwgcLaJ3yuv/76WjARtvb4CAoK3is+hJmfZSasylkDoJfCrvRv68M07J5fvk0IUx7CieBTDisIDA7CbOrUqXU4A8OrTF7lUi6rA4wA/sZMOkj6mXfeN+gelLyV7cwPD+g7yuOuu+6KH//4x/Us1EE2fSVO9pk+9176RRddVPfz2WefvUXpbE0uotNe/3bk3xG6El9ZxMOnX//61+s989e+9rVbxkNZTvHU33aXtxBcGbqMZysdfnb86quvrlc+8D5DyDj7x3/8x5rmeeedVyt1H7ZyzxjC77YNLMM7hKed5PFHf/RH8X//7/+tDQ/L++IxGpwrkMdf/MVf1MZzlivLBk7ye3uCsXDyySfXddzdDK1tQbf/Hn7HMBA0bsUktbKrGKq6a+OptrBqiNROI6dQ3BYm3bOgXpjI7L3tyvXsaWC3MRfl3tZGKUQYCJXjVz25asvKjNv8XN07/Lf5uWzTvQUpqFIYueY9uKeQcymeYH3yySfr93XN2r2zS7GKRwjZg2Ttv+ENb4jTTjutnlWYlZiBOIVfzmLKazrI/D2n4HBPkJTIcMrb8j6hJC8zfO9kO7HtYBFBSMg6AU0AulqKZCgYN0lLvlmG1rbI8mR4gxeHbF+KI6/8wDNkHP1KeVF8ZpFWbxh/whidDDxKB29RbuJk+vacPi/zbS+usLzPcHE7i98VJ28zcXxoLzx/fjt5mUsec59jjRL2TRPPlLswPxFsFs+QZUgLz58N5icv7STMVodXF1ORG4veZtCWjIH80M4VV1xRL+0z1BnG4ho7DC3lV9csG0hjKwU9NKCsw56GXTbDb2MkjN+WfTbgCxvSfZug4vbkpZSuoL2ueL6+VZhDfJWCT2bMdqlXASrDQOqNVZtKYwvA/RYGrp6fNyReum3YEVKYaRsKHi9pO0rRrN1HPyh8fsINcDN4B4wImvwoB5T9hN7WeDLjZ7wyvfuu0ICMm/fKWoIAtDLBQDHDse1ASagrg8FJZe86Uxj8AQ1CU92yfg1ePLRr9gceo7j1HX9++i95Uv9YavbRHdtEeI5xqV8YAnfeeWed7tWvfvWWU+PSp0s+cPWcCl8/p/KUR+bnWVzl8Sx+WbYMS2S89JNH3mfeSVM8Y4kB7cuqtrD4yz/5K+nxt89PUedncI0zdWcEOfuCl72j/4pXvKLm2X/4h3+oVwAofYpaOHp333133U5//dd/Hd/5zndqBc4gVrc//dM/rQ11hoHvYfzN3/xNrby1+QUXXFCPf1sFygTql5DHV7/61Xrp38pCa132NOwGCh8DcB014PNMBsloex+0VzVIKqbEbJoB89nT1yaYsIqxWeFXwrvya1P4bak99+hhBqn99p42xDfaR1sZ/J4JYIPd7N1rc7lEb6bM8rc0z/pv49Hnl9zb2v2Fyrn1uSsoeTnvYVvoqE+ZFkp6wgkre75mXLYkHCTk57PKlIo6qjvekTbr12D7of21ofZnQJpdmiFqa8osFWzyo+ds91y6N9sVn8Lnh18Zn56TPuXnWd8lkicYembNDDwrQuKnUec+FVYafVkGaTn3+Zzxyjxd04kD4qXCdCIez33sYx+rDc2kk3zGicv/uuuuqz8lTImbtVvaV2f7+q5Wq7Sh5XhK/pOf/GQd1xI7BS+cIrb07lQ9Zf7Nb36zHsvvf//76/L8+Z//eb3UT8l7PdahR+ltIfzoRz+qv7L3gQ98YEuZ0imzFYef/vSntcFx5plnbmmrst33JOwme/jQvqBRPAzSoGqrSoEb1Gb0VaNUj22MmYOoLZY2bXuu79seN7eu/+leeih5pZWtzdrNsuwHEjIEklkFBU+YUvKUn8EM6KQASwjLtk76+by9KOl0FdLgg0zjWdlcMyzvsz5ZdweWzBopFkuetiXyB5RSsDfoHNq1o3YSBvqA0rInbeZOmVFYlH7Gae2jVMR5lUf2CV4slU1rPJCnfpWffMxqc/lfvHTic/lcoowDGbeML998Tl7jlzzp4Om3vvWtetuJg0ybyLozusU1q7c9Ja0VNQfx0NRuVgAoZ1sE3mgw46ewGQLSv+c976m3EC688MJ6Bm87yxhnGJjV+w6Gsw/iWVFg/L7lLW+pDTLG2Pve9746XtZFO8ubofW9732vvndQ0qRAuDry2xPRnNLfY6CbdkRXGcgvTaFuwIIBmQMXXC3b2ZMnDFj6hIdZgNlUCquEe37olDTTdQUpGEqUQ02YZ/QJwnwu02T8LIN6uKcEpMlwV0uxysylPyR9LulYNiYotQdDyL6wr4tpiwQaWa4GbdD+2kM7psDvqH20H6d97RObSVL4ZpcMS2HStrZx0nflkk4i07kmD3jW/w5ymo3i63e9611bzgIkrUyf9PIKWY7kkTJNZyhpgGd1xlv2y3/v936vVqZlPTONeFY5HIa95ppr6jb1UR6zcUrZ7F0dxGGcm+Wj6azDqaeeWq+CyIeBYMUKDatXaDAGGLYO/Vk1cHXojuFru0tfKhNZwOjP5yyjw7rOTfgQz0c/+tGXxP49NAp/T0JXemrP5cUXBWycg9Y9wUVQmDH4+AehQjCw5s0mDFpxWwdwpuWfS6/uU8BDa3zPXA4l19I/w9DL/DwrL6DNP1GmzytBpR6EJGFHaWQdLaHamrBSYUaUZZZOHui754Cfe0umvvLm5LLX/Sh+S7DyKJeAG7QZTpy20S5pdHXWPvou+8JM0ut32tmBTzNvafWNOOJmm3sG963IMFdp9SHofzN7ig2Po4835FGu3GSZXIVThug4GCoO/+SXbUWWDQ10fXCH0v74xz9eHzRFM3neVX1dlU9aLg0U98qnfsJzZcS9a5ZVeu0krnK7z/DWOohThmX7ZrnBvZUwhoU29Q4+QyPT7enYhaf0G3QL9nye3G4YlHk1uJ3c9fEMy3j2+byLa/YDBnt7QsGATzopTIBf+kM+p1+r8Ej6kNcUdpBphRFU7jNthonvCpY4fXTETI7Bgj5nX94eqBmJNwbMiCBpoJ80xM8yUFzyNRvirrrqqlo4e6+/fNsgy763I9sQKCXYWvtkH3D20vWbvXV95vAdpVz2cfZp3rcH8VO5uacQHVhjtDH2vNqXShONLGNZTvl5xlPGhhUfh+RS0bfG7yqyrplWefClMcjfChInXF7gHt8ra/p5zjLgQ/XJsZFh2W6tebpqn3wG4YnyXryki552MKM3Fpzx+chHPlKfgwD0Mm1Je09DM8Pfk9CVntpzefFFwcDNge5q2Y9w5f9rv/ZrtUAzqFMIYvtWocpPWs6MQjg/yjEFDUcIlcJC3BTAKYhSoZbL5PZ0c4aYaTJPtAhv8YXxE19+ORs0axJPHDTQMguxF5knm/kTXFleccze0CA4s05ZThBPGrN9e8CWnS2RptJv8LyidQjSEnV53iNRtidkO2df6G8KhXK2kuI9cQZWKuiM09rmSReSx4AytTztVbU8yY43hCedVppoKY+rw32Wra0KSKtOida6bQ3ocfJBP6EsVjdsa+BBS+Ocg3LqLU98lmilk+V25TLMFcpn1yx3loFfojWd8WaMMXxMDhz8ywOStl+sCILx2EpnT8XuM8PXD3tuO+4cdKV99tI2TOFAwDjAc8MNN9RK0A+SmLGCQU4giJeDVjoDnyBn1dvrJ0DFtUdImXrNSDi6/AlVfvYIObS8/uSDH2ZbhAhB7FnehBqF6gCXpXmCxbMwdO092npwoM4MniOA+JnVU/SEDtrimx0qhyV+p+4JdPu3rsrswBIhi44yo0WxmP2rvzq7pnCUjjAeP358fSpZud3zA/WTX7bZ3gT1zqt+9aEWCkuftrZHPpdXTvsCGhS9VSb8o1/0Fz7IOJkGxNdX2fYMjrzHG5dffvmW98odYqOghCfEa+X3EhQdg1GZ7JGLIz9laS9+Z2iNX+bpXXozZXzsi5Hq7qoOqezFTZ7MtK3PiXzOOOUVso1KP1ftpwzGnnFkbDnTYxw5FGgMe4/fZ4AZydoijWTp0+3J2H0U/p7djtuNHKBdZiTROnN7IbINDVAzVIKQle69ZUqrFArl4AVCwAEhr/RY0hZOSZqROLnPCBBmNmRGRahS8oSGcAqS0PB+O4Vt35LwJDCcLmZMWM71lTT39jIt6TpTkO9Uf+UrX6kViFm1uigHRWDGjj5hZBbGECEkvRNMWCmn5XjlsKJBUaNP2ROq9vrlyfjINxHkB9kW6UCbmL3Kk7GQSiBR3u9NSP7CK5anvd2QKzetbdLeM6eNM0zfejOC0tPWTn+nUZpxUtEzYPnlPX97zHjcF/r4e9dd2ShPfEdJQZY7aZbPHB52eBNf6OssY7ptRWva5CtX4wYPUv4UK8WbPJuvjeJz/MooVleO8VG2nfvWcmYYZB21BwPN+EWXM2YYOBQ841uejC9bYU7x69fc2pCH9izzfimg2cPfhWgdkA22Hdow25GSsoxPmJjxEKylwGh1pXCgtAlKB9coXrNps2czE2GWTBkQ4lDW4vAjFMz6zJ4JXkLMGwBOvVPOBIu9TB/2+M3f/M1a+RPuViAIb8LGPqqZBWdFgcKnrM3KKXqniNE3i1c3+VqKtfzoRDOhRXhR7PIyeyEsveakfFYUzNgZGNAqxLI9QD4UQc7yCeoMK9PsbVB37UZZaMd8lXFb20SfS4MH0KH08ZolbjNt/CoOlzNt98mrlKOtF7zucJ6T55Sad9LTOFTOUvGjkeOEyzIzYilAPKMs/KWFjLO9yPSunHzRpuzxNOVvbOU2lK2ONADcaxeGjTHk4zrKyQ9vqy9/dWU8W5UzNhjc0kunnfQVw1378kdfm8jXGDKTz2/pG7vZ3pwyZR2gvN+T0da7DXY6DACDlkXrvsH2IQcopU0ImOGb5RKgBjB01r7CLJeLT8Hm8iZHsAgnPAl4MyEzZ4I1BaNtA0KEwAEzdc/SUJjKhQ6BQ/lSxOKgp6zK7jmXYwkxM5PcNxSPQhcmvTq5p+zxTwoi6aXBT+LIB8QtFYZrOsj04oB6MTBcGR+QcfZWpALWJgwiM0XoSrtkO0O2e/YHfvJuON77wQ9+UNPFL/Lh0M+Zrr7Ge17vE+bXF/Ee5eXeV+0obgoOrQsvvLA2VM2W8UPSS5roebsDT1lh4F/yyfagvbRZZ/mXz3jeeGM4M0x/+7d/O/7kT/6kPijn1TrjB/9ZxWLgeFefU7ef//zn9TmIyy67LC699NL6VURfzPP9fr/OZ0vLeNSWDGpnUtD9sz/7s/rUPcPayXtGjpWa5P2u9Oeejkbh70JgNIOvvYHSoHOk4IAcqAQEhWcWTaDkQCZsxG0d0J5TgYLZMyFBYUtvO0A4Pw4seVO2ZkdJXzwzhBTOGV+4+FYaKG0z7SwL5IEtjmAmfM2AGAJmOeJZZbCFkIcA0USDsFcG31kXj5EgL3X3LH7mo55l3dO/FVkfdJRDmUCd9kZop+SR5BMzUrPpHLfazLVs03wWls5z0tLf+tqzqy+44SGfkrVKI272NcWsvxmMXrtjHPgIDN6RVpi4nt/4xjfWn5b16p9ZMaV/8cUX16tJDEkQn8Mf4jBw0VSfLGcr2vPrCK1xS97Le/mnn3uGKoPVGNK+PtbjoK23aj7xiU/Epz71qfrreT5x6yM6f/AHfxC/9Vu/Vf+6oHfkGQo+uMMg8Mt4fgzn13/912vlrk2OO+642qhBX9srI1eWJ8uU5Uq057cno1H4uxCUSp643l2wLYN7V6IciAQVoUeIEYKEh2cOcnC3oqwrBW0p0HK2mY8wKwWuwhgDhKKlQP6WGC2jU+IEJn/CxEEodNBwKMtsxf7+O97xjnpp0bIkBc4IsKQoPtrSoG+Pk/Prab7y5RUh+agjYyb3OH0nnNKnfJRB3S1Pmhmhg7f4qTeBSnF0JtTxYLajMqUBIn178fcGJM+UbUB55JYHP21atmvGy/t0GU+fWPGxSqRvKXn78fqTorMlpU/1AZryZvyZzTLmKHsGGV7TZ676N5WW/sdzdmot+cvTjFc+DvihhTZjkYGM1xgb2fdZ50SWvyuQtjV9CWHKmFf8lUZLppVXXhPKpV5WVzjGqC0R444i92zMq4f2APUxbtUfkn5re/FzLcHvpYpmD38XIRkw3e6CPY3ZS8FAiBHEljYJgRzUKURa60YYpDK3by695zzVbh8+FbIZOkFLqLiXluA327d0P2nSpHp/0Re+KGJCyozCoTpXSp8Slk6ZLJvzMzMn9GwhWL4n2IQxBIXZ70Q7DUMzILOy3GKQlhJRJvX2TKihzQ89dbF8SVgKz7ZobY8UkpaCGSUOMmnHjuLvTcBDnH4wW7bUzPCjPLJdWq/gnpFmr5lRZ5/ZdxMYjIywNBbRcvofr5nl61O85p6yF+ZsiPhotjq8kfdpfOhzvINn9CsjNA+rMSrk5awImuVYyXK3d+0OlLTdp+sqssyJTJ9tkn7lNdH6DO35bS9a23NXo3kPfzfA7sYUewK0WbYXAQcO6pgZE2Icpctl+xIAJXIGQKk7RU8AUnIELYVJcQoTz30qXc5Su5kaPwKT4DeD/+IXvxj/63/9r/ogEAUr/8yXEEcPLXnw54d+xuOUlxNGYbvPmQpkvcXlLx6aaKAFyuO+pFmWpT1eQ4dS0haMG8uh6Ei3t/MmHtM+2gGfWV42K3/lK19Z+2lfcRhUoO291UG5MgQdLMNf+p3BZmbNmDNDzT6RhnHgbQwK2T16jEav3pWv77Wi7B/l4Pi5Jj8548Ig9haH1QUrQr4FwJhgHDDuxIMs085GlhW2pwyZNvsk73cVtD/sqvZsxU6f4euEXdkBuxuyPXbHNtmd+yrLlWV0JRztaROuqXD5c1AOulSgBCgl7EQvgc5QkDaX/XIpkWKXjwHM32zdzJ0Az/wdqrJkSkBbfs3Zn/jyk5f4pRJ1FZ5XLuvkXp08Z3j6c1l+ZcnnpMm555Ie1xGEaQevElJUlBlDBtDONuyMxksJ6pvtlsg2sB2DDxyQs6qCD7J9KWlbLE6EO4Rnhs44xA8UrMNiZvOUfck7HJr6zcoNPkbH2yYOtSXPJA+ULpG0XMUFNJP3cunbCo5Zv8NrVnIccLMCwTBRJvEg65tofS7z7irayucqfdv1eVTtsNHWB6O1LV6PHiKkg63nyXDKttmeMu4IZD9km+2qcrSi2xR+a4UTu1sD7Grszu2wJ/SRMqYjDCk/7yfbg7bUngJPmHvx8GAKV88UHWEHBKGZlBlzKVyTnylgThikH3oUpaV26c3clAXkky7pZXp+iaSbLtOUfgn34kPS4zpKk3GyHsqb7cBfG3jVz1KzQ1/aLtNnmbm9CdlG2Yaesx0ofbNlitJ2DAVtVu4VS8Yj/jOTt+fPiHRaHG9Rpngr6WQbg2vmx8ikuLwbnsv4Gdd9iaSV99nHgPdT4TNGGHSUvLMAfjPeShYjwH6+FSpGBj4Wn7/8pEcv24ODzKPMr3NI1+baFDkabfdtTkhliNc/8V2FbWb3qkbVv7b4ntpcx2C4l+3UtbLtWJR574r8O0K3L+knecwLGGl3a4QGez7wWQo3My+v7lBclkLxXMYhbPOewnQlyOynuoLZfPKp8LxC8m0+l+EpEIHAgRSW8irpJFppl/ftQTiX9MFze/HTXxmULYW3urkKd++sgFPQlBZFYE9ZOvHLfPYGZJtpr+y7bIOynYXZD/dRJm3IuKPMGXxelTOL9yxt0kDTfdJAL8HPc/o5H/L5z3++/hlXZ0nK/sr0HSHLKT9y17N7h/f8upzv7VttgKSFvgOlZv+MGAaAlQZGgVfnjAlxKFNlSN5I2ml8dg71axtj8Cv1qMIyPMufdan7oI6/9XyUs45f4Vfy2MuxU/bwZWH/SuPnrKfpiAY7Engsl/IMeLP8/Ga5E/KEFxBWeeVSkEqXAjnjJJJXc6hk3AT/DAPpPSc9LgVQKzKda8ZtDxneep9IOiUyTllWbaR8roS3pWdKgCHkIz757QBpc8Vhb0LZH2W7aQ9+2szWDaPSlZ8rxehdeGcfQLtl24mTfVH2W3kPyS+uDoP6dT0KP3+tLdGarjVM+tLP6o2DghS+b+Y7d9BaN89plDq86hCrw6v5+V8rDQzBctVK/eTDeW4t16/i+dcUQfxfSbN5dl/fbq5CTx610557Fz/uaOwUha+DzSIg961g6wzSoEHXkIqbS0FiD5Uyc6raj2EQWGZdBFsqZQ5/Zpp0SQfyyg/yGZJGojUMWpVmGR+2Rh86iuO5jA+t9BMpbCkTy7oOh5nJmcFZdrYNIVxbap9cet4bULar+3TaguyiBJ0NcTqfArVEb9br8B2lqC3NmilUe/qpELP9Wnks0dpXma8ZPoX/5je/uebbzoA2lLSSjkOYFD2jxOt69u2VjYOyPOInLWcG1DO/cMeZ+Xt1UN0Z0OUKBid9SSvvE/wofdcMb43Ths19kUv3W+K4the/QVexU2f4wELMTm6/sxs06BqSdfFR7tuVILwoNB8e8ZERe5JmS5ZcLb0m0EnBJY1n98mfSTf9dzXKeud9Wbb0g/Szp8zw8WqWg2TGo9f2LD17datUANqgFOQvVWinbDeKHbId7GNTls52UOiu+IeCzy8xOtCpnRhQ9u3tgdt79yEdJ98ZBCWyLbfWpsqE5uc+97n6K3qdKfysQ/JtWR/fyWeIMFgoaodJyV9xcgle3CxPKnvP6iUe2O7SBgxohgg+Mutn4Dh86IQ/epk+r9oSraQDuXef5dw2iL+taRqU6FaFn6R1LAZ0zU7e9s5u0OCFaOWvVFIgjKAidCg7r1JZvjZLscrk1LQDS955z2VKgspyNqAjbSr7xO7At2W9lTmd53QpdAl7s3lvDzB+CGzbHJSItxFyloZma11fyijbTL3xj76n5Ck37WWFQ/tZ+WAkUmwUXb4qWUJaPOY7DHjMtxi84ilNtqur/ED67Kv24GQ/hW9JP/fbocw368Av6Xm2EsEAUQ/fYDjttNNqfk8FDGVZ2oOwMi/3xpNXUdH1PQFGo7GlbRg4jCBGTo6h1jzcdpJlhSpwU6cR6igNth87ZYafyKw6Y7QGDbYXraycszb8RhBaosyPn1CCBFjO2sx0LVMS8uika52lpPDeVchyKVPWK/1zXJmdUlgUkJlpvtJlf15d7TOrd+7ZopH0SrQ+v5SgvdRbf1Jiluq1F0Wb7WLfmoI3a3fVhpkGst2SN6wyMaicdHegzzODksItFX/G74yXGBr//u//vmVJP/vXNdNTrO5zdq2vfakPj+Njh/2s3jDqyr6Ub3t5J92MWz6jn8/qpXzqyojWbsK0E8VvLHmzoEyDhizLcvwqqrBG4XcrdqrCb9CgO9HKyp4JmPR3JYTMSiyZ2pd0Mp3g8oEUAtRsipC05G8mTDBmOvedC6wXCsmtIeMmWtMIb8+PKwW2mVbuMVtWpsDMQil2wj5np/9/e3cba91R1g18J89X/WZiNGqiCSIK8lrFhlJaCpVqhZKCImJERQlYQagEg4aXoNBaShBNqZYSiy0tYFsoBaUWKKJUDCS+BqlvqKgJ+tXPz/Ob8i+X86y999pnr3Ofc58z/2Qy79fMXDPrumZmzZoVJZ/8see27ThDW2CKXxWJ94ma/ncJjcmfTyl9NmfSl7+nmSiFLzHARrcvMxNMCpHy9f7bu3MX3thN8v7cBADdKVR6JqcUvsuPKO7ajpQHJq2+o7eiN9EwZqV3LkObpvp3XV/X8mt5QXbR0OOWTls9S/7/oHxj0PPlc0Tt9Rx5ruR7sNwH6SL/1SpwCP9/9iaFvyFqYB6Gwh84sTC0I9i4CSoQxmQb16rOO34rf2lsyfJbsVACbiNzUMnW/5SwDm0CrUcvbPO48XPXOtY0cVekHMrKN+DOJlBWBK66WcFT9LZWbSkTtvxoVXqh39tnM/CFsQoHbQpq++1+4Jvv5SlEW974xpggpQ/ZPX96HtU4tvJrWuPL5Ivi9z4948tlPU7KK3Od8tfHfqnsOl2/wA3kN8EzWfHpaVbzFLxJhdW1fq/v1NUpdt3W3xWhgy6DjucnhztNUkx0fNqnfsamVwmXXXZZG5PSPEiDUQc8q5NPYQer28A8DIU/cGph6D8oaB5ctRCyVkyUAiXqcBLhZfUsjsn7fwqWgrAb4B0vEGhVYVQ/8EfoKS/lV8EcI52VoRWi3QerJsLU5ETZDEHrECJBT7FTYCYp3LXck47Ks7ijlBgK0ha7bXs8tQrGNwqXG8/Cr0qLSVhoV7tH8oZW7VdjykRSX6qHvjSejB2HJ4HytxPjtQuFff3117c4aZRnAiEfxepducmKryvUn5JnTyn01LnWbR+kXalTdo1CP+/6bfXju3f+6mfFb7Jjp0k9pe/rtkT9BtZjKPyBUwvCKoIGekEpnnCl/NkUB2FHabhVzerKu12CmkIm+AhdaYTZTqd8CTdlCJMGHTQJRkIfbXkYfvUg0Lm9biAsvU9mi0OT0FQWkxVWkEf6tAhP/cREYeAr5ep1jQkTI94hOkoeH71jxjfAd/wLD9lTYrHyeC7Qjp1y9LcJgL61Qjah9OUExahO+azPCXuTOMZ7fPU3hsQZd8aAtNqsvrX+h43wJ2Xx1zBuPPeu35chtvu10Xj1tYB3/XnlJK1XA3lGQmNgeQyFP3BqYehHCEPsKqSFRaAGhDShTbGAdJS41TclHSM8K65q0CIMgVsYBc9YuVPodhLkRYMS4DdZkFZ9kjd1De2g959NCK/X1T88C/gpFhMxyoWyZwuzYvY6JsoFj/Ev+cOnSrOn3cfPhTwxYNxk8gc13ITReEo53Nddd137rp+ypwiNDWMg40K6Wqe4Q/8wkbqDclNvtrqxGXUF7bNjZqvfql+bTVqs+J2ZMAnrlX3oxT2wP4bCHzjVqMM/QkUYY9UhLAo/yht6gcsWFgVMoctT46GGVQiLIuoFdupTkTplZSvfFN2zEeFj2gVpf22jMEo+74zTJ1a9zjBQ9tkFqdvOTKUNwqb4ty58DuStSNmAZkxF4o29t7zlLauLL764reyF176G0BMWHLSuB0FtS0XqVeuW50K77GyYlLnNzyRAOrsYbivMr6FDG2p70WOfyXaeJAyFPzAwAY9FFEgQYRNsEzpJu4Rw6h/TkyrwtJNiC+/58T2KQ5jdFYfgfHronbY0zjFYLTplT3lQGnWCdpz4tWlcJM4Kn8J3aI/CPwlI29iMXTF3Q3jX/8ADD7S+tJulvYxdreyEAX5VhZ8xMTAfQ+EPDKxBHg3CpboHDg/4TNmz4867dmcm3GHvxjfhtrqt5B1q806ekreSB8rgbOyrjDOK7tprr1097WlPayvfk4j0s7Z6HUbh+/rEfzBMBlyHfc455zz0Tb/+1L/cTH09MjAPQ+EPDMyER2WTEsmjNCYFuwPvwj/vdwlyisBZCN+Z33nnnW1V74pY/4d3kj2H2+STnpsi4D7bFQEe+CzPHx8d2DwbsO35qKj9HdjVsOUvnOK/9dZb23f9F1xwweqSSy5pn8jq16rwx7O2G4bCHxhYCB6l0y6Aeh6sEy/SUOh9WmHey+f2Oz8/gqc+9antxjqr+KzkCX35KQF2aJ3t/RA+nGSFDxkbbBMcdiZw+tYEwJcL99xzT5sAuGPAp30me85lZIWvzEz0epzN4+AwMBT+wMAhwaMVgUMgwdm+8tyGiJMI4fCg2nFbzWVV7l2ub9Rt6+afB+44cGucH7R4Ly8PEx5SivLDSeFr+KdtV111VTu0Vy/eOYnQZu2F9HEgzi6PTyxt9TMu8TE2nNtwT4F3/VH80nNnjPXjIuGnFUPhD5xqrFsZHBT1caq0q8I/yQKntp8Qj4CtttUcRe0uAp/PObTlO22fZVm5Oamdm++8v+/5Vf2V9klA+Id3v/Zrv9YO7blc5yQjbYb0Yw3jxg/PUN7zO+TntL/3+w5rGjO5CjuTQDjpz9uuGAp/4NTC0I9SXloooM30Cl85J1kARZxoY7Zpwwc8sFqzmrdSs10LVmkEd/5hkG/N5cshPPQq7ZPKw7QRryh8W/peZZxU1D7tIY5J39sRyrNqsuhCJVdgmwS4yMj4ccbDIU7jh0n6kzpedsVQ+AOnFob+YSn8IALrtEB7mSh4KzNKnoB2l7yf1Yi3TW9VRtm7IrZ+RidfhHRMaHOH/kmF9uGbLX2n9E/yCj99GneP9HdMgD+MSaWbCil9X2/YMbIzRPHbJbLdn688AI2MnUovdTjpGAp/YGBgNoiLKqAp5xpWV2FWXQSxX7a6HMdf+7yPJoidsHdzXISv9KFBkHOHzmkDflJkV1999YlX+HMRNWU8xI1HIMw49Cmfi3zcz3Dvvfc2ZW+HxMrfrX5JV8cWP5yWsTYU/sDAwE6I0GRbvUNOzbtC1YrLH+koelv0lLwVl5V83q+yQ+c0CNpdEIV/zTXXtK8ThsL/KvCGoaCjutgZjyaL4Lt+vwy+77772iskn3Kee+65bRKQ/xHII688dpiCkzweh8IfGBiYDUK1rqwofMLVCXvvVP0S1SrL/wD8AtYpewJWviCr+oie+AceBF4xUfgunxn4KqLg4w4obv7EU+rGp/sb/uAP/qB95ufefqf77TZ515/7+2374/lJX+kPhT8wMPC/EIEZxB9FZOvU9bY+lXJiOoemrJIe9ahHtRvwCFPIij7b9DHoVP/Ag4g4xq+h8OfDeAL8MyHNYU9+Shw/3dToL5fu8Hd2xO6Tv/b5rt/KP4dFTzKGwh8YOIWojz2Fyx+TsEAYgekzKJfi+CTKz2qsnih5KyaK3pZ9DkjJH6VO4EYgh27KjHvgQYRnUfh2ScaW/jxMjWEGT4VlHNqB+ru/+7t2g6PDpBnDLvbxrp8/K/2pMRq6h4mUGyxV3lD4AwOnDB75KGCIYBNG0YDVjpWSd/IU/Ze+9KX2P3PxVkNOQtsedQkKv5VRRAlhCVFehy0cTxLCQ3z285wnP/nJqyc+8YmDhzNR1Vl4ljD+KH9uY9sdECavPu/Dc4dJH/3oRz90dTPIkwkAk/f/S0F9UqfQTT0TnvL3xVD4AwOnDB55AiVuiFCj5HPa2T3mhKFtezfdOe38Xd/1Xauv+ZqvaaZ+Ix9htIRQOs2o/UHhu0rWYbPB192xTrXVMyiML0u8krLl734I51B8NvrIRz6yfTrqPIqdK4pevyyx9a9ufZ/W+nLHwFKTjKHwBwYWgkfpbBDMeeTVlQBjW904XW8l77MmxiGn8847r72Tt6I3ISD4soJHJ26In93HHQXU4Uz1x1JlhXcMhe+Pcb5wgLNhbO2Kffm2Kb+4oKYJf4UZ/xQ+JW68cnsOnO7/0z/90/aayq963ebHTfkfdj/0bfJs8i/xPA2FPzCwByI8wINpJt4rwV5A1EcucaFT0/Z+7uTtaQY1T+8OouQJNyfsreD9rMbqhu162x/6oR9q7zTzuZJVUWhoX9pY6wTxp+yUvwuSVz25lbUrHXmD1HUqbB1qm4KpOiRd7E10066kjbvS5WfUlcI34bKln3QxSyP02VOo4Um7jYdTqHRqf8xFX7++XlPxjPpmPDHqnrTCM765xZkAOK/yiU984qEfODlL4RNTq/+6uwWhFX/KIhNSFrdyqi3Oc+g8jIOw5IeJdnYhTDDcW+GQIdqhf1AMhT8wcEB4dDzYHlwPYt12EzflDmpctYVzx8SvHIiQjX8dkjfuQD7vLt1IZhVvK9Phpa/92q9dPeIRj2irSdv1fX1TnymsCwdxyky9+dOmGlZt6dVHPDfh2tdnE9BJOQE6wtgwxRuo/pq/TwfCqqmo/j4OpsIqxF933XVtdUnR8DN4UuvO9Lzp/dLEjrvyIbwBbsqGLc7Ypoy85hFOATm7US9NmouUgS43RWfseX/u8zj0hItPO5M29YpyzOFQ7sSLk4afgdihk2c1ZbHRkld4FG0m7sI8L5/5zGfaVr9JsB0v9Q2d2HWrH23h6iUs9aPM1Tm2OOEm3u4LkEe4sP/5n/9p/uc973ntJ0qhuQ+Gwh8YOCA8Oh7kPMweUAKloj6g9YFNPgYiaAgNwsDp4QhYaaw2lOGAXIQwG80qdAiQ1AstYUwgn++S/XrWe3pblQ9/+MPbv8YJMWWjm/qEFn/qW9vNHT+kHmknWky+d0Yn9VE/eZOGG3zm9+M//uNtVQMHUfipj7LsWnhV4fAhHqasSrOvNzv8S9qYWmftwVN20ilbOeFRLS/1CoTHFqe8KBufkFlNfv3Xf32jB8Ih/ZM6MwF3wpM+qGmTRrkJU9eUBdwUHkMhyXPFFVc89KOaXZC2gjK14bbbbmuHQR2U0+7UOe/Mg/An+RIXvtd4SFiAZuqbMtjKYeSr5ev79IMw41cYSIu28KSXVnwdq/KEZk0PCQsSnvIYMsDlQf4zQeFD0h0UQ+EPDOyBPD5m/3fddVcTBh504VUAeJAJpzzQ3AzwUxpswoebchIfBU/hU8bxi4uAQ1M54qzOU77JgjDGisz2vPS+nyfAfYecd/NoMhFmDDdUf9wMJKwKIvQi6MSzo/DjT51DK2Vp17ve9a7VG9/4xraSlC5mF4SesmzJungFXyFxoJ5eYeAR/uAZXglnq3faw61/0MQrQEu/pF3hS8/LIGWnTYlLOmHKwBs02HjCrQ6MdPzhI8MdcCcufuCXv+YLanr0QyP14jZuPvjBD65e97rXtffZB0HoMdr1+7//+82+/PLLW93UQVmp51JQXsUU7T5NMCdvD3lquuqucb074Lbq//jHP97G3TOe8YyvxOyHofAHBg4Ijw7jgfVd7x133NHe8bl0JsI1AoxJ2uStiF96SiGKIfmiPEIrSJh8Wa0oFygLJmHc0qVOKQOEVaTcWhb0/k1pajh37w+qm/J89atfvXrpS1/aTkinXjXNHKgXyPeBD3ygfW3gr3OUeMKlQV9Y5VH6jc1IyyQ8dYkdhGa1K/rwPj5x1UD6XtnhB/T5DwPKVb5ynfX4rd/6rdWrXvWqtiN0EKAX2D2g8NGm8NO2JdqVcmp53GhXHtZ40NbK+6CmWxefMO7qB+7QiLvGJw7ipvAdHjQ2/Sa5z3MQDIU/MHBAeHTyEFL4/gTnsJvLO+CgD+cSD/Y2KKMXbodd5hxQ+K95zWtWL37xi1ff9m3f1sL2rRelgq6+sZqviPjbtYy+j/AyipEtPhOEfZBy0IR96e2KWq4Ll37nd35n9cpXvrK9ZtgXdin0jTY+5znPae3ct68rap+YXJjMKYtdER6zGUhdqr+6t0G5U+nm5E09HOLzPwr1X0rhn9nRMzBwguDhi4EI4xp2EOyTdy6Uob7MvvVdGhF4+6DSiDvKK/7EQ3XPQfgVOpSXrWkmSqYvYx8cVR8pM+PaBEZ7lqpH5eFhtA89tPWJQ4e+Qpnqk5TL7p+HpGdq2CYkvqYzPoJt+VO+umSSshSGwh8Y2AEevnUP4BIP5pIP9zZEgB03UJhL8iGKKgp/CgflRfKxKRYH26wml+Jtpb8UzV1Qy8THpZFdEP2zZJ+jlbr7rt7ZA3fow1w+1jolD3tT/oxddnXLU93rUMtj8Ma4Sti+GAr/GEFnp8ODqbCB44colbl91aeLcIDQ6U3igj58nb+aPi7lWoFwBzWt8Kxc4+/d8ff5ElbjtgEvlxRy6KWOQQRqTI+kr22IuyJxDkF+7nOfawc3na6WNnSTJ2mZ0K5IeE3HBNU9haQP7biTr/prWNzbEOWMxj5IPRj00IWpfuiRvLGt3PN1DFPbw/Yqx/kNB9+e9rSntffhwqV1iDNfIJikpU5g/KGLftIwttm9W9fH3EzGai0X5HfY1g1+mQim7nOAH9LKtxSGwj9GyIDPwMvgg7mDZOBwoY+qYIqb0IrA2YakYUcAyJuwhEeIZRzUfDUuaQmemr7GsUM7iF88u6YnKBNe45VBAEV4iUu57ISJT3jyxr0J+Ek4K39b2nVIecmPHggLNtFOnDbUdqkbO21JGdx+D+xeducOnBMQHiO/9iRv+Bf+hF7SJr4vP+4ajm6+kQ/9SpMt3qeODCWXdEzqOBd4gO4ueSpqPu5MIuYi9cYDPP+rv/qr1V/+5V+2T03/4i/+4iHe4IuvCnx+Sjl/4zd+Y/P7PBOv8MHvnO+5557VZz/72abMww82npko+LrD2Ry7BK6adhGPg3TOMzi3Y5Lns0Lx6RP53S/g65BPfvKTq0996lPt1r7777+/1UUdpZlCL1vwB82l8H9e5xuLgWOFDGi2TvdA1IEwcPzgAhsCxHft/cGwbSBkPNS+i2f0tZWIMZC+T//3YyNhsQkegs1nfeLRJvysMtC20mAInnzqRyEmrTgXobiYR3rl+2Qt8QQjxUb4SWuFk1Puif/iF7/Y0ihTfbyHzI196KTeU0CDgMxVprAp/SakLHVRTzeWpS1zaEbQ4gPloo8JYAav8YaQx8cvfOELLZzC92kkfoQXlIw+kU44gzaaFIdwfYBP6EnrRDw33sr/+c9/vikheSluSkq9uNFhGxfapx7axy9OXv2Jrj5Rtn8jSJN2zOGHMUP5+drBxUhz8vTQv/KlTIpRmLsgttGTLmPduKJ8tdFXMfh15513tquIgbKmbMHXHvgmjUmB9A7W+pTWIUSfp/rbozqBeuAhft18882tD1yAZJJgAmAcPP7xj2/hnjPjVT87yIj/eH7jjTe2OxSMY5MNn3t+7GMfa/3kgqv00aY263+08N29/ktgrPCPGTIIDIg8FAY6M3D8kH6pwmhXEML33ntvExwmDVYCtoatXuoYgC9/+cvt1i9CIEIjZRNyVhWEKAX0R3/0R00xUxRWQe985zubTaFTguhbAYlHQ9o//MM/bHFR/Gigi77Jgdv50CD0xBO6BKO6RPhRCvLb0qTQCElp0VDfOUh7D4K+DP655QbKD1+15cMf/nBrByVLyQCBzJhM4MmnP/3pFqcsl/1QOFaAeBVe4Cd+6VdKyyl1K0bKBC1lmgDkYiSgJG644YamsMSjpy+lUTdjAe0PfehDTaGFjv5Ub2PGXw3da0DxK9PqVJqknYO56TYh4xnY+IvuJtqJr+koa22lTB/2sIe1GyJdBmQs44dxbDy60IfC9997n8zqq49+9KON3xS/MW3yYkIAoW/yRXmbHHFLYyKn/ozLcCh0EwU375mAWcWj6/NcPBdnAoj3JjQmDSYQnoU5Y1K8soPUbR8MhX/MoFMJTx1tEBpcsG1wDBw95j6Q0iUtwfDud7+7reIIEILBbzkpbAoZIpQJR2GEP8VbxwZBZnvS+8Vzzjmn/dXOCtMKwerCio7y8f201YIrQgnD3JhG+Vx//fWtDFe5WsURkASiVRDhSZA66Yye+90f+9jHtt0MCkpZFJ4yrGrEy68u4glgSnAulh7vtW+29ZOyGc+hZ9AKMEqbEhCGhjSJZ+MPAS/cxAev8AI/GX+9Mxn7yEc+0mhRGvLI6wIktpU+ehQZhYTX3/zN39z6VXpjQ5wxgba/6VF27tyX/9Zbb20TCunvvvvuNpmUhtKjeM4///ymFG+//fY2WcgYmgPtyjhcCqHJXocap08Yq2vtpGTxEM9cQZtwkyETHHzF0/AYL00UTIbSv3hQnyX1YYSRw9LVOsQtTn/kfn1lmiybZOXf+jWtXQH97jmp9DbBBDI7TUtgKPxjhgyEqQE2cHyhjyIo5oLgfc973tPePz772c9uytE2NuXAT0BB+p/CpHiUQdBFEIgnSKzE0ZSPAHrqU5/alAaBxQYKWrwJAGVPKBJGhJStX9/7RtGYHFBSBKTVqnJMULIrQPFQNISoCYM6EYB+o5utZfUg6KxA7V5QVNtA0O475mt+7l0UG8hDeWiDtnglQXHEFh5lwADhLM4kC7/wwgROfmn1LSXtna9VHmUjbxS9NMplK1sYf8pPvPTGQOrDj88XXnhh6wc7BiZZ6qB8yjDl6FP9YUfCpFHYLrxRLoWvHksAnTm0+nTf8i3f0iYvdjVe+9rXNiVqLGcCanziv3bLp97aaaWORybYwkxoQ7vng3Yy0kFopB9ilIn/JsV5jWWClbKTnl+/2p2YA2V7xpecYA2FPzCwAPLwz4F0HmJK0OdClCqhnPyUIuVAMOeBF2ZF5j2hC2QIbCvICClK2rtB25Wvf/3rm/K2wvDemsBhCCzCxiqEwiEkbRcrw2sEAhOdCBi00bAyRNckwcod7Te84Q3tnaRVp7qaiBB47r83WdCWKBNC1orThCTb4Zsgb4TsXJ72qPm4d6VT6wD84WMgPoYwz2TGxEx7KSW8EI4P+Eox4LcVpnzCa1noRFHEDqThT59TailbuDH0Td/0TW0CqS8Y40Vc8rFN9NiUU+LmIHWcm34OMrZDexuS3mTn0ksvXb385S9v7b/66qtXN910U9tSp8TZ6okuo+36rvJXeF7BxAhDX3jqpUw26Du0IeExlHnOqvArs/YvI3/+fLcNtc4wJ882DIU/MLAAPIwRJJvgoScoGCsRhqIWDgSClfD73//+diWs97ZoEt7Crfa8MyRYKOwIfQLwkksuWT33uc9tK7drr722rX5s9RMc2Rq0+vQ9slcDXhvYihduMuEdJWiHPEDgUFrilWP3wY9tlOdg0vve9762u4A+QRsBB9LHrb3i0851kJ7Zlm4X1PpA/HOR9KmbtgRxo22CA3ghnAIIH0NDvwnTb9KEnj4IrYRVHvAnXn6GP3SlZeJnU1ihU+klXyYvtZxNkKf27xKotLbVI+2XDo89C1b5v/iLv9heQd1yyy1tUmkSatXtmak0M86N50x69BlaIC0TvonrlW14EDd4hk2kTa690lEXu136WBo00TPR9gx4l5+2bMPS/B4Kf2BgD1RBELMJESoeeIZAIYgS5wG3FWnl7XCeFSGa3lPaThduZWY7ncLOgTqrDitwSt9d9FbdJgwmBeLQJcBst+fdOjvvGa3CIyAjjLgJP5MGqxLhFL13wq6+JdhMKhzSI2ApODSi8AKCT9lWm3WFvAk1/76IgN4FPR+AP25IGrY+jOLAC+3VZ+IzJtRDGNhJwUt55ZOm0oug547NVNRw/USZ2V1wNsNYsH3v9HjNhz7lpGxjhH8XpF5LAa25NGtaW/IOIPJTsj/4gz/40Fj1zFC+dtDsPGmj5wx/8MP5Fq+hAvmi5D0rFLNzAAmLwUf9LJyb8jYhd3DVuDYZNpH4kR/5kdbPzrOw0VRXu2R2JRwy3AXKWwpD4Q8MLABCqK7S5sAWLOXunXgENzrCKGL0uCkEq4hsn1MW3tcKp2wJFPFW71Y9DuW98IUvbFvKfq9pe5mAB6t47/ApA4ohStpWPWFoUlEFsAkG4XrRRRc1gWkrGghZkwv1s8Wvbrb+1QE9+SMUTUq0VZ6smDZB+XUSdBD0+cLfXVGFfaBt6oivBDn+428Es8mRrXWKIwcVk5+CoIy948U7brss8qKrLEoKzUyO8IwbjYwvaU0q0k8mgXnF4hWRyZU+U556VEXpVZDXRRTPQfmyJFJ+2lLR10/7pTNOKVptccbEjtVjHvOYpuyNNZfsSOvwpN8MO0XvtZV+8uc5q3zPjOcFT9xZ7wsXX8ugafz5SkJ6Sls/6xd8ZEurfLTVx4TDeQnxFD+l71kw4c7XGiYZP/qjP/rQTtpcLNk/4zv8gYEFQPh7d2p7ftsDHcEmHcFO2PhsiDIn3AkqAgI9gsMhIAKNEsnpX8LDCsb2vBWLVTTlbsuYwCN4KGIrd4KQ0PKpH8VuBUrJEHgOePGjS2lY/XmXT8jkMz0TBD83Ieikt4Wv7pQZZeLzI/lNHghPgpJA1TZ18gmYcqUhQKcEewUhSXCbQMC29OugDfKqk7pql3onfBuiXPWtPtJuShKvTX4oELTxm5LAOwcl8VM/OCeB75QvhW6bV59QyHiGX8rQh9KpGxr8dnD0NzjkRxEZH/odz/nxV7vEo2sCcMEFF7SxxK1e6m6cUFhsadF+ylOe0uqViQBs44n2a7PdIROVJeA1FeUaZbkO+iwra6irXpNKNJ785Ce3SaW2G7PZlVJvY9dE2a6UyRbIIz0+6wvGBIA/z6IxiJ/y6lM05ddXxrh4z5d+Mba1Qfny5/wEusZz/SoGNrUX1M94MLnxGmAJjL/lDQwsAFuAPnVyut7DXtErGP4oEyto2+JW14SCVZ9tSQ86wfLDP/zDbeVmhWJlQmjIT4jddtttbdufkvGJnEkB4YcG5S2dU/RW8xSSLUUTEvGEmR0CgtBqiJCzIlEOYWpFSaEQclaDlAflIt5kgVJTB7SsaAhKilB7KBZxQAhStNoiDSG3SdDhy1VXXdUEM+U1RzGvQ/huF4RiwSe86PtjHfAHL7TJN/jaRMDjjbbayfCKxATMKs4ESp0zsTFhorxN3KTHe7ykcKMc8NiEiEGXYqE87M7gl3hjw8SCklW+emQ7mzJRT7Zxpy7CtU/d9Zn6GxfC9Dva+g/4mTn8MKbe+ta3rl7ykpe0Ou4L/eATRbxxEDU7GhXpKzYFyM1wM/iTulPAlK20MdptvIZXOUMhLhOI5A/t5JUuabLDMpU+pkI6/YK3gTTC465xU1D3TBK9QlsCQ+EPDCwACt+FJv7rTalUVCEB/BQbQ6BQ8FbxHnB+aQlkdLgJWkLL6sKKnSCSxypTHsqDMpCXAMyWOmVsi5dglD7lys8AoRMhSFgqx2qTsEJXeRFM8qKBnnLlIWSlSxxbXvWQRry2EJjSq1flRQ9tePOb39y+Lac8YVP6TQjfrUqdd7DFTdkmfBO0gwEKSXvwIe2Tnzs7BuK1jxs/KRd8wktK7brrrmuTMr/+tfITB/KgS4njPTd+hVeBcLwBcVDboS7xc/dp2MLTlzWdsFrWOkThv/SlL31o92EfqNMmhd/XvbrVm82v/mz8yVhM+yod8fKFNxBaCZM2Bipfqjs0gV3jQHzql/jUJ27t7fNVGGdR+D/7sz/7v8o8KIbCHxhYAFbHLj1xSp5S2Yb62BH+EWDgoY4QS1jc4ijmuBluRhp0ItggAiI0g5QfxVPp1NVM6CQODWGhq6zkiUICaUIjCiVmE9B405ve1BS+cwqwLc86KFteK3yr7Kc//eltF2Uu5K/QzrRLPdMebmGUDX7yJx2Y+LhwxysVkzSHHr3isL0boY82sPmTF52EVb4nffpUmUx4LS0kHVTa3NJyb1M8gZ0CX39Q+Fb4c/KsQ3jm5kGTnXUr/CDp067wVzvYUNvCzU779Yswz85UvWseCE3ow9b5p1Dp9NiUD6LwfXWz1Ar/Qe4NDAwcCPWBrsJ1GzzsMYQUAcZmIsTFcTPCCasINGFRAImvcb2JoKxQd+GMNPJTWskTmnErn1sZQeLQEJ86hgaTMmq+dZCGmSNMN6H2S+jVsDlIXWK0IeG1feET8IcHMXYBvLP/+Z//+dWrXvWqNpGpyh7Co5q3llH5V8tPWE2X8JjQFh7alf5cJD/le1DUfq1t2oa0Ifkg7rRD3UKv2klT8/Um4UEfB9v8U0iaKTMH6px6L4HlKA0MDBwIU8KgN5CHf0pxSZN4Jv4gNILQjbBMWM2b/EmbsN7U/L0tjr2LskVzV+U8B0vSTBvRTDsh/Kh2wr128VrGqxaKPZBfPMNd/ejHHZM0TNrEHV5Dwmt6bqhpEzYH0lKqu0xs1yH12tQnNS51ZVfwV9MjYdpb++NsgfovWeezq/UDA6cUVZhNCTbCkakCogrMxPeo4fJWf9zxr0NND6nftjpPIfXvae6Kmi/t2hd9G2odK/2+rMTXdOy0dR1vhFeTvBXJG3rxx16HSmtb2iB55qafwi5557QhJpOQ2q4gac5GZb8Pr6cwFP7AwAIgUDycUwLnTKAXDvH3pqL6467p4q5mClNp1qXdhvBxX6CRvgi9+PfpI7RioqxjM0kTJLzGMZsU/TqsS7+Jzrq2rssjfUwQ9zpaS6KWTYkzfV2m6pH2TLVrKix0QqvacQfr/H14sInGVNwUavq8QpmTbxuGwh8YWAgeyLrSWOIBPWwQhuuE/9KYww/8I+CY8PKgSLvSFyn/TLU3CI+nzDbMSQPr0gmvbd8FlW/6IrSWQOig63AaO2HKSd+nzBp/EFT+oLPOgLJySBBqXJAwaWvdYqe8pIO0CRI+ZQJ8cdjQa5SlMBT+wMAeyIPt/WAe1v7BHXgQEY7bEJ7uuwVbhTx39Z9UTI27uW3v+yfjmJE//WGs7wP0lJOVK7oUm68ZUr7yatmpf+xMCBPPzkn8atKm6ofQrHTFR9FXPyRvpZU6QOIY9WBCq5qatg8PEpY6+OSzT3NQjM/yBgYWgG+U/Uzm+c9//iKXkpw0EDMRNVEcU6JH2Nve9rZ2F7rrSqtQ3gXoJJ/b/tww5+Kd9M0UzVqfGp/wg9TjMDDFt4AiUc917WOmJlJRQlDzpyx53KD49re/ffWTP/mT7fKeg/Ij9aAU3eTojoiLL764fSGSuqlLVb78UeggXeikzbCuTn171iHlxM79C/KnPknHVEgjPndUJJ90woVZtYcGu9aXW5rQVZ6Lm9yW6LM88ftOtobCHxjYEx4h3yhff/317U9ybpXrH+ZtOOhjmHw1f9zK547ASXgvrIQTLj16OnEHu7QvQIcgJfiUmbrFD7/7u7/bvlV3Vz9ECewKdNXRr4Rd10vh59pg4WlXDH/lFQNVuag7kx2dno89wqOUFSRcWNw9xOFJTNIqM7zrV39JB+yYSgPQiXJBo9LMFnLCpBVG8dxzzz2rX/iFX2g3/q2r91yoixsM3QLpeui0LYqWnzE23AjpEiPxaQN30usPdazGlxDayM5kIn7xaEcpM+imbGVS3LkMKXEpMwbEc6fc7FQokz985UdPWRDexqQNoSuMXHFN8Cte8YpWh+Q9KIbCHxjYA3k4rfBdSuKaWg9oHqs8oNLlgeVOPiBIIiQIAZCWX/qYgDvxDHfyQVYlDMEVAZY0bjYjPAm/CCNhqR9wMwQQQSXcrXlukEOXHSFKgKaOjDBp2AmrIPTUR7uVrxzlC5PPNbV2SlyUU+nugtoWF5e4FMlEzKVI2qtu0tQ6aId+qPxK++RxQYyraik+7RcWxRSk3Qz+MLl5L3Xix9ekjS0+eaVDX/1iEq9eqbc6Ca8QJy8jLu7QlU+Z6gDaAOIh4fJAFKZ0flTjtkATp9rugwB9EwjXQ6OnTmimzhA+pM3ianvFMxmn+Bw3PqOZcO0T14/dtHsXKDP5Uh9+JnUCtvik5+7LS1pIem1mu3jHldkmWUtgKPyBgT3gwfSQUgR+S+sudBetQB7yCAHCJUKoPvgRbvxV+DMEVIRS8sQAusnDzUTgCUM7ygHQ4KfQpE3ZURKhE6CtfPlyjW7ClCOtNgXJX+tTET963LFrmBW+H7T4dwB/X6dd4Z76m266qX0D76Y95QC6oa1NTHigbTUdNx7Va3aFSS9/jLShxeBTFEwUbZRPyhEWVFpBdVekfuviQZpKU5kQN8Od+iZdUONc2fwbv/Ebq5/+6Z/eW+Gn7v4Tga7dHHxJ+DqsK3Mqn7S1f9bR3qcdSyP9xTZe/LTJ/yuuvPLKr6TYD0PhDwzsgShM7zfdM+69c71aN8KGqQKWCfo0QQ1ngt4fmkHia3gEHyFS44NeDETwgHTx1/DeX93bUNPJV+2rr766/aHsmc98ZvNnYnFQWOG7wtXf1JwNCNCMiR8ot/BGnWIqvyh/fmkhda/0EhYIF1bTJCzhPRIfN9S0ieuR8KSttBOWNDUOEg/GDaOtFPM111zTfr3sL3OVHweBcvSL64ZdrWtStA19XSum2tO3tSLhm2geJYwxu11eebihcQns12MDA6cchEUEH+HvhzfebzrUFNuPRqwsxVll+nkK29Y/45pVP7mxO+A2NsZfzxi3svmBTTV2EPxJjfGjFStvq+wYgjMr8KzOGH6mj4vgS5qEJ47h1k4mYTERmgzUuE1h8tW8MdojPOXtCwpL/cMvJvxjwjcrTAYPlCtP5Vl4wJZOWPjR2707fqZCO6Gmq6jxAbfwKOOaN+niTnl9Ob079CBhwK294QU+LYnUK3ZQ6wCpq3RTJmlAOxIG8Se+xvXlHBfUOmZ3bgkcC4WvcTGHgcOiOzAQTI3hKmiYdQI/cTVd4tYhaYOU1Qu7uEOzlhMIo7wSxk46gr6m5Y6JP7RreMVUGPTpq187+viDIgor9Ji0D2p4DQtqXOVfDWP6MmocA+lvpoJfXPqr9/duSJl4ZTVIMTCJTzkpP2UmPAZCq4/r8ykH/YTti0yolAMpt7rjV27ap80xwtQr/tRZuvAi+ZjQO86obQ9vlsBylA4AzHdIRmekcQMDZyOqwKyYGtMRQomb8jMRYNuei+SHSkPeGgfbaB0HRDhXZbMvwstNUGbKnoLwag6Cvn+UlzLZqWNPv5bZ02C4q9IPzTnYxuOp8pYCWs6ToL2pHuLTLu2UJ3ljxPXKUT46BpJGGAOxTwuOXOHrhJxQHhg4GxEBYgxHgBBe6wSY8OTpTSAN4bXr7B6N1IPZJESPK9Q/K8klkL5Yx4vwqnf3WIKXqUfKiT/yr/Yd5VT9TBAaSVPHStzJuxRqvZcCWnPqmXTa652/z/S+/OUvr/77v/+7+X05kXQBt/T0i/j/+I//aOm1I/HVPm5QL0a7l8KRKnyM976RSScsjTBsSaYNDFQYuwQLU7FpTCeOnUmv/HnIIfY2oMFIT1E6Sc6E3ibU8uZgbtpdaPawU1Lzb+LjOvTtWqdUki4mSiWrRv3CTnx43ddJXLWD5ItJmPz66L/+678eWoEmjT50QE5cyq7x1R255ssB32z/53/+56HKOrSXpo9e2jWFxJnE/NM//VO7rMdhts997nOrP//zP1/dfffdq49//OP/3yeSyUe//Pu///vqve997+pP/uRPWhpx+AzJU+sQdw07Cqjbkvw+coWfA0S1o5aEhzef0hzmgzBwOpFxm3eRc0CIGJdWHX//93/fvm3+/Oc/v/rHf/zHJtCsXggjaYzZ2BGMMQljpPdNNqHvdq5PfOITbUVDYdR0NV+lo4wYtJg+TU3LnoqPu8azQ5t/Gwj2Oek2Qb9UmVLLrrSTTh3xyn0K999/f/sUSn/gpf75l3/5lyZD5E1bavviribh1QgH9gMPPLD60Ic+1JRR6sp2TwHF9O53v7v1Z/oi5cafMH6KnkLzGVft85S3BFLHpemGV1M0hcf+t3/7t9Utt9zSPoF9+MMfvnrkIx/ZDIXu08tMnKRl1NfkkXEo1gTqi1/8YuOZsjLOqkl5U2FnGuq/dPlHqvDPBHS2E7WHuYswMEDZG2vbkAeYYnHL2Pvf//62NclYpbzzne9c/fM//3NLBxHyEeyx0YgRZmzL50Y5J88JNmVUGsmXOrDjJiy5pWEnT4w0KT/u0OvpStPTyA7GXFBaSyGCM6aHeMJf/5ls3XDDDU1xmpAxlD5lircmVeoWXlS6vT9hMQkLj77u675u9ZjHPKYpo/CP0X++1KCgKH9h6mhxVPODOpNtvvRI/cVrD7O0zEv5SyL8WVdXZYLJEWXvGt7v/M7vbF+++BLmB37gB9rnlqlbFPu//uu/tv4T7ssPPArf2CZTJnU+2zSZ0K+u+eX2LNk9YOPjUSITmSVw4hU+eBCYpQf/wEBgbG0aX4QOIw0hdPvtt7dVnKt4XTBz/vnnN5sAi/KNYCeIkj/KRpqqRMW5L/6v//qv22d7L3rRi1aPfexjHxr3UWjSAdpWrBRKFIR04tHkT1kMt50y6VNu2ivee1R3EUiDnjTaSYASwOyk3wZlhwdLQLlpG6yjq1yfTlKgPpv87u/+7tUTn/jE1eWXX94+r3QhkHv5w3PKP7sxgJ+MuovTZmkZPMEbfEo4BWSlSsGrn/LRs5uQfpFOv+Gl3SDGdr9w7ZDOTgHFVHmMVvp+KT4Gyl4K6pl2boJ377bw8UtfaFPa5VPViy66qCl1ytt2/9/+7d+u7rvvvtW9997beK6c8JJtJ80dAGhK/773va/lxUeT7ptvvvmhSd7S/JuL9GXG1xI4FQofjqrTBk426rjaNMbqw0spW81feumlD13DS+hZ8V144YWrb/iGb2iC3FbvF77whbbCJMAIfXTYXgFQ8Laec3BJesqAwuBPfeRJ+QQf5W0L2B3zJh0EXhSUVwGM+D/7sz9rqx15CMMPfvCD7RpUgvLOO+9sQtMVvdKpi61v8cIIzptuuqmtlNH/wAc+0GjMEV6pKyz13Faa1V1RFQ8e8YNvz/WLexKs+oRbQepHCoFi0QfZVveOWbqPfOQjrd9MAChqPNI36TN9iy94habVpqtU9QteUf54r0/x3mRDWcrUV8bIRz/60RaunC996UuLKocp6A+8WbJf1vVHLcNq3I5VdmrFUd7AbUfEZOtd73pXe35ccX3eeee150w/4WPoeX5c6WuC4MKfH/uxH2s7dHiciaYdhNe//vUtXt/UupxprOPPQXDiFX6YtSTTBgaCOr4IlW0gLClwad3IR2gRKPITOv7mZnVJuFEYEa6UJiVCkUdxEPheC1DaBBVhiB4FhT7lVYVVbArZe2orcsLvPe95T5tAgLDQtDJP/WyP2lKV19YypSWd9OojjfJclUrxKcvEwITBisxkxGRAnfv69Kg8jXsfVHqbgGdVMYA8/HZNKHwKVd+Y8HgNw33HHXe0yY62aTO3vqDAP/WpT7VtaG3HM6t6NDPpEo8O/uljfecnP49+9KObQsJTZVL+j3/849uVtv/wD//Q+g1NZVBKtrXtDkmvvtUswcOKOqb2BX4bY5vqKA5fXJiU56GmT7+ZBBnHxpt4F1dZ/ZtsebaMW7zMWRdxoK/w1bNlfLvsSl7h2X3ZVL+zCadihX9SOmvg+CGCb65QkJ6wJswJoQivGIKL8rYqsbKzrWy14XY+V2xSrlZ4lAThJL3VonMqlAml9LCHPazZBCkjDaR+0lsNEozf8R3f0V4nSIeGlaxwW52PetSj2ntScQSgcO+cbZ9aPVmhEopPetKT2gqLwLVtrf7qa6XlClZ52OLq6jD2FDbF7QrtDr3woKLWh5EmKz2g4CCXE9lCZ7SPkv2+7/u+xns84rft7HXKIx7xiEZHfjs5DpZZodvJkZ4tHF39SXnjNyWj/9j6jgLy90ATB2MCnyku29VoGEvSUYj6CtKWmCWBB1N83Afr6qgccSbB3tPbDTH58ewE+EuJg/GFT4An0hmjqbO0bBOjHGpFXxg+ewb6ibK4k4JTs6U/MHDYyOpqEwgPq0UCisIGeSJkwEqRQpGWIbS8WzZRsLoj8EwCrEqe9axntRUh5UB4hQ5hF2XPQIRYlAYlbZcBDZMEIPCEWe3YsqdYYiJA0bU6UiaFZrVkO1WY/KAe4uQDebVlG3/OBFKPKtTVN7xjSwPiGUrERMkBOzbgmQmZ1bWdGXkob5AndPDMpEc/2aq3c2PnQ7x00hgPOQPBry/VBa/tIpiA4TellLoZJ1W5pS1Q3UtBuRlTSyFtWYe0w9gyMTUubcfjH54ZyyYBVvHGnomWibE+skPlWfPrXfzEL+PUBOnbv/3b264TpZ+dLulMtIxbtDN2jxLav2RfDoU/MLAHqsDaJryAwLTyI8z99hII0BiCh+GmcAFd6QkjStpEgZ+y8ZMZCiXKZZ1wSBybYLTC9x5aXsKR8EODACRcv/d7v7ftJEQxKY8yYghOgtbuABoEMDpAAZmQEJZ1AkLQyst/HIAPMeqnXukDdRcWPyVju10b7XpY2Zvk2IXRLlvzlI72hh6gw+CHVyLnnnvu6rnPfW6bbJm4SY8nFIwJHeVEWdk5sdrXJ/rJJEFf6Ce07Aag94QnPKG977dr4DVCznCoU5A2LoWlFT56sG7cRuFpgwOUfptsTHp1hFfa7TmhxPHvBS94QeO/12bCjWM7A3hi18kvktGyk2X8SuP1mGdL/3h14N8XbP2yJO8OinW8OQj+z+v+H77iHhgYOCAIb+/FKQSrwCkQHh5eSpsw8Q6WoCL0rDIoEcLH1qyVnHe+tmzlI+ApGqsQW8MOd6FBGRBmtpNt91MKJgKEH8EsbzXCKC47CA7bUR4EKGFoIqANvm0mJB3es0ryPjmH+AhCK071tc2MpjyUGDda6q8c7SNgbVub3KgvIWtCESEevlQQ5OIpNHF9/K4wCdFerxXUJQjdTEoAPxw0pKi1leLFVzT8bQ//9R9F4ZyDPhPndYcx4JCYeH7KmBK2Y6JfcyYC/9VFX6mXeBM3fNGfwvBTf9g5sM2vHlad+plSt9q34jX5Ume8tXWNlr5T9yiKpRS09uGNVxbG4hJ0TRiNJStubeqRccLWPsrYzha38vFDXu22u+LZi1I3pvE1ae3I2Bnjl086tv4K/9VB+7ya0U9LT3B2gTbjj7Fmd2gJDIU/MLAAKIgofKuFdSA8CHIChoCy0qOwKVEC3btKgohA9Z6XQkHbBMDOAEXCEPoEJWFFwRNihL78yqd0IygpNDSUQ7FRBgRalI/DYMqUTvoIX+WjI616UNoUlcmEMrmlyXtnEwPtJ2hThroSpBQtgat+UUbKn1LmJjrq+T3f8z3NP5VmF1ihO8xFUUThh6Z6BNpvd8Vqm2IBfKMULrjggjZZUWf1z6SKguHWNmn1B14Kl44i4kdPm6Sxvc+Pljj8wyOKml95zgU4K2GcqA/e6hd23PoZj5Svbtz4ry+0izHe9uVfQOHbTYiCXUIRUmgmTPk8sUK9U/8YPMTjjC28wWe8DIxZYxAfhaPh+dBfnr2Eef7w3bMljPE8oCeOP+UeFewckRHGwhIY/8MfGFgAVlpve9vb2pYtRbgOEcRAkFD0FA0QeFmZg3jCUDyhRBjJSxCxKfi8MyaMI5iktzVvJ8CkQHgt0yE7K8cqsOWPcCVUI+yA35a2U/oveclLmuJET7g0qU+QfFDLrRDehwXXX399q8/P/dzPbUw3F1ZITtL7VItC7JG2MNz4XHmTNkDaDH0a4UkrXfjZQ5qkT3zGQA2TBg280M+pX8qdKiN0q7uG7QMT0je+8Y3tq4Bzzjmn9fs+UC9fKegf5yBMHrdBmyE8QIOpPAHtTdsZqGlqPIQGewleLQF18erCZ55XX331V0L3w1dH7MDAwM6IwCAkIlA2IYIG5LVlbzViRZ8DWQSSlaB4qxkrOQKfn4lQsxKRXph4ispKxmsCqxsrICtPqyfGDgFjUoEGJROj7mhF8dQ4CseERhm2mvmFSy8fWqlzzReTOld/6j0F4dIthdRxXXnqkrZk8sL0deaH+NnCEp40TOJrXiZhSZOw1KHSBbbwmoeBjLeE9Sb02EshtJdCxt069GUlfa1H9XPHxC9PeAWVb0HSQw0/aqjXkhgKf2BgIVC4cx9QQiUCiSCPMK8CKv7QTHj8Nb6GMbaUvW92aMmWvW1kJ5htB5tEJH0Qf0+HochtoV522WVtFUb5gLTi407dalilBzV+HfBCGdvSzYUyq8LsFSekrlP11a6KrGz7PFD7aCovJLxPwx27d/d0IW2obUl80sReEilrCaRdUzQTVu30HfRtnYK0U6bPU+lsonemUeu1BIbCHxjYA/VhjODuQcAEveBhKo34q4mgZ1M2EZI1vjeJSxk1LDRqfMqOO2nByt77ZZMGOxL8yZ/ymNCtdeTu0zEQ+kEtH6p7HyiHooiyoPwzoWASB9Vf85n0JB7EbTJpZ+/Hj8r/Gl/TxfRx4ee6tMxhIuUshdALX3ukj6oBXzc4b2HnKX3E6FevupxXqenF1XJipy29/zhB3ZfCUPgDAwsgwmWdwEh8hBIjbbbBCamEM4E0MeuQuKk0yRvBWgV2hFzqVZVGDAj3qoCiZ6KwptDnhamwCmWnLvixKe1B0NPjrvVXfvoB1EUbq6AVxkiT8E117Muci6l8B6FzWND/S9UnbcXPyusg8ZA0FL2vRXwK6lyJ99v8FL9XTc68uAHSjYeUvv7K+E7fMfqbnX5ljiNS96UwFP7AwAIgmAjDKYirQoefAqVU2DFVmUYhLSGIquCsEJZyfNvvNHuEIcHpm2/lqxNUOlP0DoqeVspZqgxtxFs2mrGh9guboSjwgm0V6eBjvm/v8582aDceLQG8D/+Zfqwnjq1c4/K2225rnwY61+KMih0nfpcZZVXv5L+LiqLUg9rHmQhUA7GPC2rdlsBQ+AMDC4AS8MnPFPLASkPY+M78He94x+raa69tp2/f+ta3tj+x8ftdLgUz50FPfE23LU9AgDLSE35OA//qr/5qW0E5mOenLr71F88QnlDpL6X0UhdwDmJpRGlArXPK1S/KNcnxD/rf/u3fbu1/85vfvHrLW97S/jVw3XXXtTAryfDibELtt31QebkEooDTLz3tGm5Fb2XvfgaX8Pimnu3eiLvuuuuhOyx8aiefPFHsxrWvDJSV/gZ+SLrjBnVasl5D4Q8M7Ig8hNUQIuwIqAphEUC27l2iwu/zOJ/i2ZYkxLwjdzmLC1kIIMhWP8FU7eqGGq8cdm8qUtcIPyf33fAG3C76eNzjHtfSocum6Nhx9zT3Rfjk64O0awmgGT7GX40dDDzAd37fwGu/W+7ke/rTn96+w7cLwz4Fi20AABgjSURBVN/zJHxIePjEHd7nywZudvyMtEnHXSEMPUaemi9lJ424+K12syuR9OL5KT+7N3Vs7YK0bwmkrmimP4L4M1F2z4UVvTsHhIUXxqm2uigqbWHntYyJwt13390mBT7P9Py5V8Ivca+55prV7/3e7zXb5VLSL9W2fZH2V57si6HwBwZ2RB7CCOpgk7CoD63T89///d/fLkyxGrHd7Nt9isbtdSYBBJJb6whDINisLq2+fbvv5j1xtuJtYbptjQAkzLntEljxEG7cEezqx9T6EIxO7mfVgwYIl5YwNhGhANFjK2tdW/dFeLsUKAcGNtH1WaQ+0C/uKbBjoy9chkOpiMOL8AFPKE38dkGKW/Vct+umPJMH35e7pU8/SqffXABkYuVyIX8/TL/pn1o3bmHiKCKXr7gulm0cuGfBapcfbXVRLkXO7SpeNx0qQ367F8L8cEfYe9/73nYrYHaTjgL62ZjLK6MetV5ereCvi3as4hMnr09QhZk441f6GvDAhVGuzfVsmRi4TwIP9Yc7+H3J4h6A7AwcJ2jfOv4cBEPhDwwcEBRoFD5BQUBvgjS+kXfineACgiuGghFHKFEchJWtdoKOcPKe0mEk/z+3WuGXjiD/8Ic/3BS/vDfffHNbyRDsDjBRDAS+MqrSZ1IHiiztMdnIv+8JUGW7Rtbkwn/Xla1OhyUcax2XADpRqKlzT5vfJ4duwLOS56+ThJyzcJkRHnstg0cUpvfFXsm4152CF25FaVLgtQi3PBTyjTfe2BSTtF7f+J89vq4bOyZ43lGb4KGtb/W5cK8fxOGX/lAeRUbB6TuTSP1lHEivLONHO+yiGBfS9ryYwpw0+2Ab/fSfCQI76fWnfuI3OeNn8MQWvot9TGbdc+F2QJdG4ZMzGnaynAVwc6DXAsl/nKBtQ+EPDBwhopAgNlRBNAXCxMNLsWc1ze2hjtCyMiSgrTZsX1LYrjMlyCkJSt1lOlY1tjjRc6mOFR+FYkJhQsCfK1cpCqtK9Y6A7JEw8YSg3YOsYNETT4HknvElT2v32MbHXYFWFMYm6JMc7gPtSx42JW8CZpVu1W4SRBFLbxXtilzb//rUyhv/XXREwZhwUTomViZ7/lDotjoKGa2MB1AWg654ypzfhETfmIRRXk95ylNa36ApTJxdCuXYjTCRMFmzi2CcUGiuNvbqSF4XPtkFMhnYhsPqawiPpyDOuLWCV3ftUd/UR7/irTCvyDIhEC9fdsW0X5jnQzyeATc+p6+Z44S0c6l6DYU/MLAj8hBCfSDnPJTSEzDSsq0yIowIL0rbNiNlS+nahrTqtyojsE0CCHvCj/Ai4HN3PcFG2aAnzGrVwSbpKA30lVPrGTdBGaVD6eUWP0rDKtCd7mg7Ge0nMnOuQT0o1F+9wtt9gc9MVfo9bf6Y+PGD0pCP7cc2JlomPJTLT/zET7S+UF/GZUf4YkWJh9zSA4Wce9vF60erTfXSb1Xh13pQ+PJIS1E/5znPaatR6d2vbhXrszQKjKJXrnK8drANTlFKq37KYutHadQ37duG8A0N7viXAFrqMYXwQp09Cya8ng/phauPCTI+G5faHxjDXs1I7zWVPCYA/qdg0pVn5WzAUvweCn9gYEdU4ccEEdLbECFG0BI6lAE3oU3RE8aEuxvy3FvuhjzCKkJRXoKKPwIYjbx7Nzmg5MWZUBCGUSipOxrcjLL5rebZiQ99Ew/byCkXLeGpz9JAf0naUXZM2lchLG1LWjzBDwoV8ImyoChMoqzOGQo1NKM4pU1ZMfqGnXowytJPxgCETvqFn9IyCbR6N0nQnyYIxopJn/MgDp0ZN+JN0Lxykc9ujHzoUISMMgF/0TA21GEbUjf5UrclgA6ac/qbQrcz4h28MxDOSNj98trEPyzsfOkzu2ReoeCTSRHa8pgE2SE477zzGn/sfNjaF9b32XGAOgXVvQ+Gwh8Y2BERCBHc8c8RFh7cKAZ5rcIIXuGEMSFue5iwItwpGdvxti3F58GPm6JXJlroCuMm+ChqW/tsdIVHuEqX+kbhA7d4fkqKQnNozSEvK33v9wlYdJNnaahn2rlEGWjgcZTKFE1hMcqW3sq68szK3jt8SsLhOJMgPBGnHxjp9Y386Vc2XprI8GebGS9NIOyaoJE2AzpgVUu5eXdvdeskum14adGzNY9edoFMULy/txuhnl7nKCfjjDJUNlrKSL5a9iaEF0sh/M4z0aP2iQnLM5/5zNXP/MzPtIkN/sv3whe+sPFBO7TRFxYmAPJ4DfUrv/IrbYfKeQuf8ZmooXnJJZesrrjiipbH85L+Oi5I22Gpeg2FPzCwI+qDGDuCfhM8tIw8hCbBSygTZN7jCiOY0PGZkIN3TlUT4pQ/yEswMVYxBB9Fw5+6EILeMxP8/sluC9hKULzyo9TZ/PLb9tQGtjqhS6kxTjC7g9+ftNWLojGBOCyo5zZe7oLwTJvXCc70DeAHparteGElKa+VIeX6y7/8y+37fO/praKlUV8rRittkyEK3opSH1lNoi0MTZME/SqOArKjo8z0CcNvoua1zKtf/eo24bv99tvbalyZ6UsK7RWveEU7PyDMKv/FL35xK8uZj8svv7xNKCg7CpHtsKA6+NTQgTX5mDkwRtbx8CDAN2aKZurEVi6jDdrqV8D+fmhClF8Ng2fJuYlcA42nXl34S6JnwKTNjorXKtx2BcSji/5xBN4YE0tg/B53YGAP5PFh33DDDauLL764CZIpSMNEsFMYFDPYWnXAjpDyvp2wlpZAJrCt+oVT/N5LUi4mAoRfBDlhR/j5ha2VG0UtvW1dSpoCspJJPQhStjIpF0peWqt6ikt8zgpYIdr6FCd9BORcRbEL7CZYgV555ZWL0Meb3/zN32wH6nyCBT3d8ARMDihm7YUclgN8ZygN78wpGvT1hTSUd3Y/8o4cX+0WUMIu9aF4KHq8lN4K3ME+5ed1hvGBxyaA2XJHE8+VKZ00wkwO9H0gzGRSurwuMLlwS516vuxlL2vjIH0Ysw0mO1dddVVTsiYL6rAvHDr0Dh49yncd8Cbt1T+Q8YdfjPZKo14JB25GXNqZvuaXji2MnTTHAb4y8IrmDW94w0N9uQ/GCn9gYAEQKBEa65A0BBNha6V26aWXtvf0Vo8O2hHcFLztxmc84xlN4RP4lDxlZaVCkQj3bp/ypTRsu1P2hB3lTZmgI594At4ugu/FKVPGCXN+gtzEwbtptvRWjgy3OlFY/JQcwaMd2nNYiBDfxM+5UFf8juBfh8TrHzzO74RNeuRnHNLTB5STyZSDlHhssmZ7XhglbcJlEseIR08fmDgBmrn7ICt/q3jGBIKfclZ3ZaQsdZBHHfVLlDpbeOL0lzGQMLxUvrJMEOw6SDe3H9MP7KX6BZS9K620W171Z4RpZ3ghLLxI+/i5Ge60Pen4jyNS5yUwFP7AwJ7IAzlXcCU9IRNBxY4AirAivCKYonAi7CKg2BFY8lrJmUhQJhS/Ogkn/N3mZ2Lh8JN3ntznn39+myiEVuoVIxy4q6BlDgtL08cDqzsG1tFOuTHaHhNw43dMeMSEbk9DGmVTtiZqlDHFn/Fisua9s8uYbFOzGf1jdyFjoJYdKCN1qGXG8CvHWNLX6PJT2snPzIF84eVSCM1NEK+O2glW+MlT86ct1VRexGQMc7OD5DluWHKCNRT+wMCeqA/jPg9mL2ymhFkQf0xN94IXvKC9WrA6BwKDcLNCFJbVolUedwRpaK0ThNUcJtDP5GIJ4E1VEuuQ+CiGbdjGD/RipLF78uxnP7tt5+N/0minXZxM6BhuSrqnXf2p57Y66H/07eAwmTSkjdJsQ8pIeUtim0JLeX0d5Mk2/aY6JV/KYDMJT97qPk7Qxk382QVD4Q8M7IEID1haWMwRQDWNLVvKwra7LWSCMIINqmCs+eKO4E17YlfU+MOEMtRnCdS2rqt/n6Yvu8YD9zpaQfKE75S8fjHJqqv0ILSSPiblcAc1PKjpg+Rj0M2kouYVNxehtRRqXdchdaX40i/8cXtFAQkLzd6u9RZWTUXvh3VhU+FLImUs9SwMhT8wsAciSCH2EqjCaY6AzSqxvs+NcFevrOhS34RJG5P4lDdVbo0/LKBv+3spIZd2oovmthWTdHixDdt4Uemw1QHY9fWMOKbWs9JdV86m8CD0IeWIj70rDpJnE9DbRDMK3KsqXza85jWvaV+KuFbYIVk/wPHZqjMP+hWt9LFdHXY1tf9jM9LWfCbP7NAQF5O8ycN/WNAefaicJbCchBoYOIXohdUm4XUmcNTlLwGTFjioUuoRgc6O0jsKaMtR9I/21sndQdofpYbOUsoH0HLWRP/0qIrUqyiHJXPLni9Qnv/857cDkZS/LzsceMznjYx2RllHcVPkUebxy8POJJMR5jCrulWa8gjzFQQ3CD8sGC+ZBC6BofAHBhbEYc725+IolMqSqErlMPh5VIpXW46q7L7c+Hepi7T6hqJbql8oM7SiPKcQvjlzkh0sh1C9GvHPAF+6+OeEz/soaV+gUP4Us09Z3VSIvvsSfP6YMF9DUNw+jxXOOExpN8HXKz5NZfs5ErfwfErrc0J0MpFcih8VoavuS00qhsIfGNgT9WE/zNn+JhyGwDlKRBFF6O2Do1rR99hVwR4npN7svDNfCumfdf0cvklXny/pKUNXUPua4c4772xb+/4i6cIpaSlmFxaZqLjL4pZbbmkKnOKmzP2HIL8P9vdAP0jSPncnyO81gr8Mmkj4r4EfJinTPRncwg9rfGmzNmaHYQkMhT8wsAeqQvLgRzCeaRxVuYeBCLq4l2ibldhRTcZOEpw9WBL6hNHffT+n76NQ8/VCnrPYwtxh4V2+1b9VusuRuNF24RT6zrhQ5F4PuNPCmPBbacre5UdW+y5bspPgawaretf3uijJHQvyuVTLoVh3JJgweBVwmM89utoRHuyLofAHBvaAB7I+7If14J8mEHAQpb8UlqZ32hDlszSsmDf1TY2zUs8zlvpQ6pS8zx5zSDWTCJCHW3oXIeXmRP8VEOe+A59K/tRP/VS77MqrAhMDP9xx0ZI7EqTzlz2wOxAlbPV9mOMqin6pMobCHxjYE0PJL4vDUPhVSYz+OjiWVm7pD3Q30RZHifc7NfLakndr5GWXXdYUsxW6cMpSesjEwIQAxAvzXl8ekwWTAQf3hNmut9p/3vOe18JNKGz/e8/v9kVhVveHMVZ7bOPNLhgKf2BgISy17TbwIC8J5SUQ4b8UvYHlMPeZofCi7L03tzq3FW8b3wl9P3d60pOe1JQ3YxKQP0VS1t7ty8vO+/lv/dZvbbbP+/74j/+4mb/5m79pfxq8//7728rf9r2fJ/k6wGFA2/i2+dFWBwf3KP7DxlD4AwPHBHkYj5tCWUpInO3QLzFnCngf06MP29RPlc6mdEtBGZRgX1atw5J8RC+n0DfRlc7K2z8KnNCn6B2c89c//3h40Yte1C41soL3zh0obpcd+ZzPCXuKX17v6k0E/A/BnwX9Y8L3/N7ju/rYlj8arqj210Th8p177rlti98vkv3Hwl8o0TUROayxlXGr/Utg/C1vYGAh3HTTTe2eenejHwfk0T4sYTQlOpYoyz/f/SXMb2GtAPfdOSHgf/3Xf729i7UKVO8IUpjiU9LswsOkZSf/tnw1T5+eEuyxiWZobIL4lJm0/DVvdSc9YyX7jne8o41v77pzX8I+cJre6Xh/y3vc4x73ldAHoczYeJHVuQkCCKPQvVu3qudnxFPS6u6/BcaPA3t2BORXbz+dYqPt8zy7Bug4AKid9WQ8OvLbvheOnnTiK58OA5/+9Kfb74xdOGRCsy/GCn9gYCEQABFSxwERQkvWCa1qsjo7rDKWADoR3lD5sq6MKsB3rYu81fSoYVNp4k9cJj3x9yaIu4+vpsZDeGOVWg2lx1gJe69dTRTuEujrVpEwtvZTeE7J50+O/kqYXxRrgzTcVvn+FMl41+50vXB/KLRD4GdR3vNrO9roeocvDEwE5PEDKib/m4iiz+Riqs5LQxnMLuNvE8YKf2BgIdx4443tL3SE0VEjCi5C6TCEUy86lirDCv+Tn/zk6pd+6ZeacN2Xrq1c/3H3tzg7MHgTYR+kLWzxUSD8U2ljAm55KEugFLmFs/nRiEKVtqZJHgjtlA/yMhRP3L2p6dCPG43YwgFt5fFbtaaO3BR90tV4+e+7777VhRdeuHrWs57VlN++yAofTdvkFWl7z4MazggLUu8+bU1T80zRqHyv+Su9IOGHhc985jOrO+64Y3XllVe2Vw37Yij8gYE94RHy0Dv8c9FFFx3plr66MIR0FEhWJxFMScMQkNJFcNWwakC4FR9DAQDlAPKKlz+IO7ShhtW08au3A1O+gX7ta1/70GdW+8Cq9E1velPb/vWOVj3DE4gySx0YaSB+cVG2gTT8lbfq3/PJdrFwaUw+fMONp8K5U4b0KVu8yY6tZOFWn1abaAinbPGGW70yMRLGL796Ca9Iu6RlUh4b2Olb8ZAxkL4wcbL93tM+CLyHd7ENhe8CnR6pV+pSkbh1SPuYqfyJr0i6hKePp/LDuvCl8NnPfrZdKPTyl798KPyBgaOGx4chCN/+9re373ttHfIzBGUEaAQ5iANhESqUAhCswqIkGP4opqrA2cKSDvJIK0sYegE6qTO3NJQ2mowylMtQSFFa0gtzSMnhKeFoR2HJm3ZQRhRUlJI47pQhzLZpeJA84pSBpkNTrkwVJp45KNSfUsnFLDHhHfBTYMK4w5/K57Ql9ZE+YdzazJ/45IWUU8OChMWkbHTR42bnPXLKY6TnR0O+nvZxh0N3rsW1M/aEJzzhrKv/YYPC9w7/ZS97Wbv8Z18MhT8wsAc8PhQKofuxj32s3bMdoQyENYVKkFGu/BDBlscvApudw1DS1nSZLKAtPOVwJx0/5RmFgB5UOkzNA9xJq9zUS3h1TyF5GYqJ4rOa1o6qEKXjFx4FL4/wtCNQZnglbmAz0qdxQ+Xnvqj0l4Trau+6666m8N1+N/C/QeHfeuutbYXvnMG+GAp/YGAPRDkShla9VqhBBOQmQSkuJgo3SjBhUwK8uivq4yzNVN6lsIl2jeOudYF1dROWiU7yhS/7AK1aPkzR7dPMQd82iL9vW/Vvg7TZpQniZs+p6y7lzcWu7dgE37RT+E7pu+1u4H+DwvfJ4BVXXLGIwt//SRoYOOWIgs7p3hjf7rKd8l1npLEatl1r1ctYBVsRZ9WLfsqI2QZCuZop9Glqut5fsS7dVPo+Lulr2j5NMKed69DTj3+KZl9uMJffU/mn8lV/4jcZdDMpSViwrs5B0m5LNxfoxCyJ0Ex7jxtSvyXrdpTtHAp/YGAPVIEcd7C0oJiDKIaYTBam0Kdlgt5fkXA22tUfcK8zyVNNzZOt/kp7V9R83LXMnm7vjqmo4UuYOZjKN9fU/Eug0l6KJoSe52QXunm28tpnE5KWCaobpuLjj3vKBH1Y9ceoa3YEN5nkr+nntHMOhsIfGNgTVVBFgMGuCqvm3RdL0Vkau9ZryXZUWseVP1M4m+q6K6LUDoKciYmSXAf8i0na8LTm5Y4JuJO3ooZN5Ut8b4J1cWx0wpOcgRkKf2DgGKM+xAMDA9PIM1KV5RzIl4Opuzxnfdr42XUXKGYqjKngl27bBL+mm0LyshlK3rkgh36XUvjj0N7AwMDAwJHAoT2H0nySd84557RVe1QSJecQbFWAvoipX7tAwnv0efKqKHRzIFIYN5M79/OFi+t8KV2fqPoc1Sej8qLBqKt06ECUufzO9GRSouys1qXlhpSffJD2q48rgtmvfOUr2+e++2Io/IGBgYGBI8EDDzzQbqh0z7377SlRoBgpyhxiBcoxijjKWjoQJm2veCGKuSpdRpp8OhpYTVPwic8Km5LPVzihB9JEaUNV4Pk0NQo/n6JmEiBtTc+NdsJShrs93N4pz74YCn9gYGBg4Ehgxexf9n5qQ8kFUXqUccKjICnNIGHS9OE9+rTc7ORLnk15gz7NlF85fd3XgRreFL8UhsIfGBgYGDjjoHqq+tmmFHtMqa6p/NKtCw/6+MRtqs+mNH1cLSsQ14dXWjVuUz12wVenVAMDAwMDA2cYFFtMtvSDGtebOejTxd/bu0Aepirznk71x13DemU/pdCFxSyFscIfGBgYGDhyRBVtU3DSLakETxOGwh8YGBgYGDgFGFv6AwMDAwMDpwBD4Q8MDAwMDJwCDIU/MDAwMDBwCjAU/sDAwMDAwCnAUPgDAwMDAwMnHqvV/wVo4YMC7SkynwAAAABJRU5ErkJggg==;" vertex="1" parent="1">
          <mxGeometry x="150" y="70" width="508" height="300" as="geometry" />
        </mxCell>
        <mxCell id="rCVp8V6lE3syv_3GfAg0-2" value="&lt;div style=&quot;text-align: justify; line-height: 180%;&quot;&gt;&lt;span style=&quot;background-color: initial;&quot;&gt;&lt;font style=&quot;font-size: 15px;&quot;&gt;&lt;br&gt;&lt;/font&gt;&lt;/span&gt;&lt;/div&gt;&lt;div style=&quot;text-align: justify; line-height: 180%;&quot;&gt;&lt;span style=&quot;background-color: initial;&quot;&gt;&lt;font style=&quot;font-size: 15px;&quot;&gt;Elemento (&lt;u&gt;nombre_elem&lt;/u&gt;, peso_atomico, simbolo, num_atomico)&lt;/font&gt;&lt;/span&gt;&lt;/div&gt;&lt;div style=&quot;text-align: justify; line-height: 180%;&quot;&gt;&lt;span style=&quot;background-color: initial;&quot;&gt;&lt;font style=&quot;font-size: 15px;&quot;&gt;Compuesto (&lt;u&gt;nombre_comp&lt;/u&gt;)&lt;/font&gt;&lt;/span&gt;&lt;/div&gt;&lt;div style=&quot;text-align: justify; line-height: 180%;&quot;&gt;&lt;span style=&quot;background-color: initial;&quot;&gt;&lt;font style=&quot;font-size: 15px;&quot;&gt;Gaseoso (&lt;u&gt;nombre_comp&lt;/u&gt;, coef_expan, temp_lic)&lt;/font&gt;&lt;/span&gt;&lt;/div&gt;&lt;div style=&quot;text-align: justify; line-height: 180%;&quot;&gt;&lt;span style=&quot;background-color: initial;&quot;&gt;&lt;font style=&quot;font-size: 15px;&quot;&gt;Liquido (&lt;u&gt;nombre_comp&lt;/u&gt;, densidad, temp_evap)&lt;/font&gt;&lt;/span&gt;&lt;/div&gt;&lt;div style=&quot;text-align: justify; line-height: 180%;&quot;&gt;&lt;span style=&quot;font-size: 15px;&quot;&gt;Solido (&lt;u&gt;nombre_comp&lt;/u&gt;, color, olor, dureza)&lt;/span&gt;&lt;/div&gt;&lt;div style=&quot;text-align: justify; line-height: 180%;&quot;&gt;&lt;span style=&quot;font-size: 15px;&quot;&gt;CompuestoPor (&lt;u&gt;fk_nombre_elem&lt;/u&gt;, &lt;u&gt;fk_nombre_comp&lt;/u&gt;, proporcion)&lt;/span&gt;&lt;/div&gt;&lt;div style=&quot;text-align: justify; line-height: 180%;&quot;&gt;&lt;span style=&quot;background-color: initial;&quot;&gt;&lt;font style=&quot;font-size: 15px;&quot;&gt;&lt;br&gt;&lt;/font&gt;&lt;/span&gt;&lt;/div&gt;" style="text;html=1;strokeColor=none;fillColor=none;align=center;verticalAlign=middle;whiteSpace=wrap;rounded=0;" vertex="1" parent="1">
          <mxGeometry x="120" y="400" width="530" height="160" as="geometry" />
        </mxCell>
      </root>
    </mxGraphModel>
  </diagram>
</mxfile>
